<svg width="38" height="39" viewBox="0 0 38 39" fill="none" xmlns="http://www.w3.org/2000/svg">
<rect y="0.636719" width="37.9391" height="37.9391" rx="8" fill="url(#paint0_linear_1_67900)"/>
<g clip-path="url(#clip0_1_67900)">
<path d="M25.9702 19.4739C25.9702 23.6125 22.6036 26.9766 18.4675 26.9766C14.3289 26.9766 10.9648 23.61 10.9648 19.4739C10.9648 15.3353 14.3289 11.9687 18.4675 11.9687C20.9178 11.9687 23.1639 13.1415 24.5608 15.0888L23.2834 14.795L23.0593 15.7661L25.9702 16.4385L26.6425 13.5275L25.6714 13.3034L25.3875 14.536C24.7401 13.6296 23.9184 12.8552 22.9671 12.26C21.62 11.4184 20.0637 10.9727 18.4675 10.9727C17.3196 10.9727 16.2065 11.1968 15.1581 11.64C14.1472 12.0708 13.2383 12.6834 12.4564 13.4628C11.677 14.2422 11.0644 15.1511 10.6361 16.1645C10.1929 17.2129 9.96875 18.326 9.96875 19.4739C9.96875 20.6218 10.1929 21.7349 10.6361 22.7833C11.0644 23.7942 11.677 24.7056 12.4564 25.485C13.2358 26.2644 14.1447 26.877 15.1581 27.3053C16.2065 27.7485 17.3196 27.9727 18.4675 27.9727C19.6154 27.9727 20.7285 27.7485 21.7769 27.3053C22.7879 26.877 23.6992 26.2644 24.4786 25.485C25.258 24.7056 25.8706 23.7967 26.2989 22.7833C26.7422 21.7349 26.9663 20.6218 26.9663 19.4739H25.9702Z" fill="white"/>
<path d="M16.4633 16.043V23.0302H15.3403V17.3677L13.9209 17.8234L13.6445 16.8398L16.0699 16.0455H16.4633V16.043Z" fill="white"/>
<path d="M20.3075 23.1466C19.7149 23.1466 19.2194 22.9847 18.8209 22.6585C18.4225 22.3348 18.1262 21.894 17.932 21.3412C17.7377 20.7884 17.6406 20.1634 17.6406 19.4737C17.6406 18.4154 17.8672 17.5588 18.3179 16.9063C18.7686 16.2539 19.4335 15.9277 20.3075 15.9277C21.1816 15.9277 21.8439 16.2514 22.2922 16.9014C22.7404 17.5513 22.9645 18.4079 22.9645 19.4737C22.9645 20.1659 22.8699 20.7884 22.6781 21.3412C22.4864 21.8965 22.1926 22.3348 21.7941 22.6585C21.3982 22.9847 20.9002 23.1466 20.3075 23.1466ZM20.3075 22.1206C20.823 22.1206 21.2015 21.8866 21.4405 21.4209C21.6796 20.9553 21.8016 20.3103 21.8016 19.4836C21.8016 17.7978 21.3036 16.9537 20.3075 16.9537C19.304 16.9537 18.8035 17.7978 18.8035 19.4836C18.8035 20.3103 18.9255 20.9553 19.1696 21.4209C19.4136 21.8866 19.7921 22.1206 20.3075 22.1206Z" fill="white"/>
</g>
<defs>
<linearGradient id="paint0_linear_1_67900" x1="19.4537" y1="-1.28733" x2="19.811" y2="43.5326" gradientUnits="userSpaceOnUse">
<stop stop-color="#FF7A40"/>
<stop offset="0.988999" stop-color="#FF4E00"/>
</linearGradient>
<clipPath id="clip0_1_67900">
<rect width="17" height="17" fill="white" transform="translate(10 11)"/>
</clipPath>
</defs>
</svg>
