<svg width="38" height="39" viewBox="0 0 38 39" fill="none" xmlns="http://www.w3.org/2000/svg">
<rect y="0.636719" width="37.9391" height="37.9391" rx="8" fill="url(#paint0_linear_1_67894)"/>
<path d="M29.729 19.0986C29.633 18.9766 29.537 18.8685 29.4478 18.7604C29.0979 18.3525 28.9539 18.1608 28.9916 17.9307C29.0774 17.8714 29.1631 17.7738 29.2523 17.6204C29.5301 17.1394 29.6193 16.4352 29.1665 16.0133C29.0945 15.9331 28.7653 15.5671 28.6967 15.5183C28.5903 15.4416 28.484 15.4067 28.3948 15.3789C28.3777 15.3719 28.3537 15.3649 28.3365 15.3579C28.3365 15.2882 28.364 15.1034 28.5355 14.6712C28.7344 14.1726 28.7344 13.7927 28.5355 13.5451C28.388 13.3639 28.1513 13.2907 27.8907 13.3464C27.5271 13.4231 27.0778 13.7752 26.9269 14.2981C26.8377 14.6049 26.6388 14.7339 26.3644 14.9117C26.0832 15.0965 25.7608 15.3056 25.5756 15.7379C25.5035 15.9053 25.4555 16.0761 25.4075 16.2399C25.5172 16.6373 25.5824 17.0557 25.5996 17.4845C25.8568 17.1882 25.9597 16.8186 26.0523 16.4909C26.1003 16.3201 26.1449 16.1597 26.2066 16.0133C26.3095 15.7728 26.4982 15.6508 26.7348 15.4939C27.0401 15.2952 27.4242 15.0442 27.5854 14.4899C27.6609 14.2249 27.8838 14.0715 28.0038 14.0297C28.0004 14.0994 27.9798 14.218 27.9044 14.4027C27.6471 15.0477 27.5923 15.4033 27.7157 15.6717C27.8289 15.9192 28.0519 15.9924 28.1822 16.0377C28.2234 16.0517 28.2645 16.0656 28.292 16.0796C28.3708 16.1632 28.6384 16.4561 28.6727 16.4909C28.6829 16.5014 28.6932 16.5118 28.7035 16.5188C28.7275 16.5397 28.803 16.6095 28.803 16.7907C28.803 17.0104 28.6932 17.2405 28.6281 17.3311C28.5286 17.359 28.4429 17.4322 28.4017 17.5368C28.1102 18.2619 28.532 18.75 28.9402 19.2206C29.0259 19.3217 29.1185 19.4263 29.2043 19.5343C29.5061 19.9143 29.705 20.5349 29.7325 20.8312C29.0225 20.6429 28.6281 20.3083 28.5526 19.8376C28.5458 19.7958 28.5389 19.754 28.532 19.7121C28.4429 19.1265 28.3605 18.5756 27.8804 18.4536C27.5786 18.3769 27.1876 18.478 26.9303 18.7011C26.704 18.8964 26.5942 19.1718 26.6216 19.4716C26.6285 19.5657 26.6422 19.6633 26.6559 19.7679C26.7005 20.1305 26.7726 20.6813 26.5702 20.8207C26.0763 21.1624 26.0249 21.6992 25.9665 22.264C25.9528 22.386 25.9425 22.5115 25.9254 22.644C25.8774 23.017 26.0077 23.2157 26.1278 23.3168C26.4296 23.5713 26.8583 23.4249 27.2047 23.3098C27.2802 23.2854 27.3556 23.261 27.4071 23.2471C27.4414 23.2401 27.4825 23.2296 27.5751 23.3273C27.7123 23.4702 27.8495 23.7351 27.9558 23.9513C28.0279 24.1012 28.1102 24.2302 28.1822 24.3417C28.4189 24.7147 28.6075 25.0111 28.3983 26.0186C28.3057 26.4578 28.1719 26.6007 28.1307 26.6251C28.0965 26.6042 28.0381 26.5031 28.0759 26.3846C28.2268 25.8826 28.2234 25.4922 28.0656 25.2237C27.9627 25.0494 27.8015 24.9379 27.5991 24.903C27.3968 24.8646 27.2664 24.8925 27.1258 25.0076C27.0915 25.0355 26.9955 25.1122 26.5153 25.1958C25.9768 25.29 25.8739 25.2028 25.6236 24.9936C25.5104 24.8995 25.3663 24.781 25.1708 24.6659C24.8382 24.4707 24.5946 24.523 24.4506 24.6032C24.0287 24.8333 23.967 25.4922 23.9052 26.5485C23.895 26.6984 23.8641 26.7995 23.8161 26.8413C23.7063 26.9319 23.3599 26.8761 23.0787 26.8343C22.746 26.782 22.3721 26.7262 22.0291 26.8029C21.5627 26.911 21.2266 26.789 20.9556 26.6879C20.7944 26.6286 20.6572 26.5763 20.5063 26.5763C20.1496 26.5763 20.0502 26.9284 20.0056 27.0818C19.9919 27.1341 19.9644 27.2317 19.9404 27.2596C19.9233 27.2631 19.8615 27.2666 19.7243 27.2178C19.0315 26.9703 18.6165 27.2352 18.3421 27.4095C18.1946 27.5037 18.1055 27.5559 18.0129 27.5559C17.7042 27.5559 16.9633 27.4758 16.7678 26.7367C16.5723 25.9976 16.003 25.9384 15.6978 25.9105C15.6635 25.907 15.6223 25.9035 15.5914 25.9C15.5331 25.5723 15.3308 25.3492 14.9878 25.2377C14.7031 25.1435 14.3155 25.1191 13.7976 25.0947C13.1837 25.0668 12.899 25.2342 12.8202 25.6769C12.8167 25.6909 12.8133 25.7118 12.8099 25.7257C12.7996 25.7327 12.7756 25.7432 12.7344 25.7536C12.3023 25.8652 11.8564 25.3074 11.8015 25.14C11.7089 24.8542 11.3899 24.401 10.2855 24.6032C9.66818 24.7147 9.63045 25.3248 9.60987 25.656C9.60644 25.7048 9.60301 25.7676 9.59615 25.8198C9.17772 25.8582 8.98565 26.3009 8.85532 26.6182C8.76271 26.2974 8.5775 25.8687 8.01845 25.5549C7.8744 25.4747 7.69948 25.3388 7.69262 25.161C7.68919 25.0634 7.73035 24.9832 7.76464 24.9413C8.01845 24.9483 8.76614 24.9239 9.07825 24.4463C9.20859 24.2441 9.30462 23.899 9.02681 23.383C8.99251 23.2994 8.93763 22.9403 9.17086 21.4587C9.18115 21.4029 9.18801 21.3576 9.19144 21.3262C9.1983 21.2809 9.19487 21.2391 9.18458 21.1937C9.11941 20.9148 9.10569 20.5488 9.26003 20.3466C9.34921 20.2281 9.50012 20.1653 9.72305 20.1584C10.7417 20.1235 11.0538 19.6424 11.3556 19.1787C11.5168 18.9312 11.6849 18.6733 11.9901 18.4327C12.292 18.1957 12.4189 18.1922 12.4394 18.1922C12.46 18.2131 12.5938 18.3874 12.5423 19.1543C12.5149 19.5587 12.5938 19.8551 12.7756 20.0607C13.0328 20.3501 13.4067 20.3605 13.705 20.371C13.8388 20.3745 13.9691 20.3815 14.0617 20.4059C14.3533 20.4895 14.6105 20.4616 14.8163 20.4407C14.9432 20.4268 15.0735 20.4128 15.101 20.4442C15.2382 20.5976 15.3959 20.6708 15.5674 20.6673C15.6943 20.6638 15.8041 20.622 15.9104 20.5453C15.7869 20.3466 15.6772 20.1409 15.5777 19.9248C15.5743 19.9283 15.5709 19.9318 15.5674 19.9352C15.3136 19.6912 15.0015 19.7226 14.7477 19.7505C14.5762 19.7679 14.415 19.7853 14.247 19.7365C14.0755 19.6877 13.9005 19.6808 13.7325 19.6773C13.5541 19.6703 13.3483 19.6633 13.2866 19.5936C13.2626 19.5657 13.2112 19.4751 13.2283 19.2032C13.266 18.6349 13.2557 17.8436 12.7619 17.5786C12.2851 17.3206 11.7466 17.7459 11.5717 17.8854C11.1773 18.1957 10.9612 18.5268 10.7863 18.7953C10.5153 19.2101 10.3679 19.4367 9.69905 19.4611C9.15714 19.482 8.86561 19.7226 8.7147 19.9213C8.37858 20.3675 8.44374 20.9811 8.50205 21.2844C8.49862 21.3053 8.49519 21.3262 8.49176 21.3471C8.26882 22.7381 8.25167 23.404 8.41973 23.7177C8.50548 23.8781 8.53635 24.0071 8.49862 24.0628C8.40258 24.2127 7.94642 24.265 7.74063 24.2441C7.41823 24.2127 7.14385 24.53 7.04439 24.8437C6.98608 25.0355 6.85575 25.6978 7.68233 26.1615C8.09047 26.3916 8.1625 26.6774 8.23109 26.9563C8.28597 27.176 8.36829 27.5106 8.72156 27.5838C9.16057 27.6745 9.34921 27.2143 9.47268 26.911C9.5207 26.7925 9.60987 26.5763 9.67161 26.5171C9.85682 26.5275 9.98029 26.4578 10.0523 26.3951C10.2512 26.2208 10.2684 25.9488 10.2855 25.7048C10.2924 25.5793 10.3027 25.4364 10.337 25.3492C10.3541 25.3039 10.3644 25.3004 10.3987 25.2934C10.896 25.2028 11.119 25.2865 11.1396 25.3597C11.2905 25.8373 12.0485 26.6495 12.8888 26.4369C13.3929 26.3079 13.4547 25.9732 13.4821 25.8129C13.4821 25.8129 13.4821 25.8129 13.4821 25.8094C13.5267 25.8024 13.609 25.7954 13.7531 25.8024C14.1886 25.8233 14.5625 25.8442 14.7683 25.9105C14.902 25.9523 14.902 25.9837 14.9123 26.0604C14.9603 26.5485 15.4096 26.5938 15.6257 26.6147C15.9104 26.6426 16.0304 26.6635 16.099 26.9284C16.4283 28.166 17.6424 28.2636 18.006 28.2636C18.301 28.2636 18.5239 28.1242 18.7023 28.0091C18.9492 27.8523 19.1104 27.7477 19.4945 27.8836C19.8032 27.9952 20.0536 27.9952 20.2559 27.8871C20.5098 27.7547 20.5989 27.5002 20.6504 27.3259C20.6744 27.3328 20.6984 27.3433 20.719 27.3503C21.0379 27.4653 21.5147 27.6431 22.1801 27.4897C22.3961 27.4409 22.6911 27.4862 22.9758 27.5281C23.4319 27.5978 23.9018 27.671 24.2448 27.3886C24.4506 27.2213 24.5672 26.9528 24.5878 26.5973C24.6118 26.2173 24.6564 25.4503 24.7661 25.2446C24.7798 25.2516 24.8004 25.2621 24.8279 25.276C24.9753 25.3632 25.0851 25.4538 25.188 25.541C25.5481 25.8408 25.8431 26.029 26.6319 25.8931C27.143 25.8059 27.3556 25.7048 27.4894 25.6107C27.51 25.6665 27.5271 25.8443 27.4242 26.1859C27.3247 26.5136 27.4071 26.8761 27.6334 27.1097C27.8221 27.3015 28.0759 27.3747 28.3194 27.3049C28.5698 27.2317 28.9059 26.9738 29.0739 26.1719C29.3449 24.8821 29.0499 24.4184 28.7653 23.9722C28.6967 23.8641 28.6315 23.763 28.5766 23.648C28.3468 23.1808 27.9627 22.3999 27.2459 22.5812C27.167 22.6021 27.0847 22.63 26.9955 22.6579C26.8995 22.6893 26.7211 22.7486 26.6114 22.766C26.6114 22.759 26.6114 22.7555 26.6148 22.7486C26.6319 22.6056 26.6456 22.4732 26.6594 22.3477C26.7108 21.8247 26.7451 21.5633 26.968 21.4099C27.5134 21.0299 27.4174 20.2595 27.3453 19.6947C27.3316 19.5971 27.3213 19.5064 27.3145 19.4228C27.3076 19.3461 27.3282 19.2938 27.3865 19.245C27.4859 19.1578 27.6369 19.1334 27.7055 19.1404C27.774 19.2345 27.8289 19.6041 27.8632 19.8307C27.8701 19.8725 27.8769 19.9143 27.8838 19.9596C27.9695 20.5244 28.364 21.26 29.7496 21.5668C29.9897 21.619 30.2058 21.5319 30.3258 21.3332C30.6276 20.7928 30.1132 19.5831 29.729 19.0986Z" fill="white"/>
<path d="M20.344 23.3718C17.2606 23.3718 14.75 20.8199 14.75 17.6859C14.75 14.5519 17.2606 12 20.344 12C23.4274 12 25.938 14.5519 25.938 17.6859C25.938 20.8199 23.4274 23.3718 20.344 23.3718ZM20.344 12.6903C17.6345 12.6903 15.4291 14.9318 15.4291 17.6859C15.4291 20.4399 17.6345 22.6815 20.344 22.6815C23.0535 22.6815 25.2589 20.4399 25.2589 17.6859C25.2555 14.9284 23.0535 12.6903 20.344 12.6903Z" fill="white"/>
<path d="M21.0906 14.6152H19.0739V17.3588H17.8906V18.077H19.0602V18.7289H17.8906V19.447H19.0602V20.7543H19.7667V19.447H22.0167V18.7289H19.7804V18.077H21.0906C22.0304 18.077 22.8021 17.2926 22.8021 16.3374C22.8021 15.3961 22.0304 14.6152 21.0906 14.6152ZM21.0906 17.3588H19.7804V15.3334H21.0906C21.6428 15.3334 22.0818 15.7901 22.0818 16.3409C22.0818 16.8987 21.6428 17.3588 21.0906 17.3588Z" fill="white"/>
<defs>
<linearGradient id="paint0_linear_1_67894" x1="19.4537" y1="-1.28733" x2="19.811" y2="43.5326" gradientUnits="userSpaceOnUse">
<stop stop-color="#FF7A40"/>
<stop offset="0.988999" stop-color="#FF4E00"/>
</linearGradient>
</defs>
</svg>
