<svg width="38" height="39" viewBox="0 0 38 39" fill="none" xmlns="http://www.w3.org/2000/svg">
<rect y="0.636719" width="37.9391" height="37.9391" rx="8" fill="url(#paint0_linear_1_67923)"/>
<g clip-path="url(#clip0_1_67923)">
<path fill-rule="evenodd" clip-rule="evenodd" d="M15.7773 16.3242C16.0511 16.0844 16.4446 16.0897 16.6701 16.1593C16.5226 15.978 16.1776 15.8288 16.0765 15.8109C15.9992 15.8398 15.7773 16.0677 15.7773 16.3242Z" fill="white"/>
<path fill-rule="evenodd" clip-rule="evenodd" d="M22.5109 15.6114C22.823 15.6587 22.9217 15.8699 22.9406 15.9344C23.0465 15.8452 23.1445 15.5348 23.1062 15.3312C22.9263 14.3686 20.6899 15.0063 19.5634 14.5975C19.5419 14.878 19.9101 15.3275 20.2624 15.4941C19.6602 16.0166 19.1195 17.0698 19.0106 18.3563C18.9017 17.0698 18.3611 16.0166 17.7588 15.4941C18.1111 15.3275 18.4796 14.878 18.4578 14.5975C17.3313 15.0063 15.0949 14.3686 14.9145 15.3312C14.8767 15.5348 14.9747 15.8452 15.0806 15.9344C15.0995 15.8699 15.1985 15.6587 15.5103 15.6114C17.086 15.3733 18.4015 17.8018 17.214 18.7838C17.1958 18.7988 17.206 18.8262 17.2305 18.8262H20.791C20.8152 18.8262 20.8254 18.7988 20.8074 18.7838C19.6196 17.8018 20.9352 15.3733 22.5109 15.6114Z" fill="white"/>
<path fill-rule="evenodd" clip-rule="evenodd" d="M20.3468 21.4562C20.4074 21.0181 20.1114 20.892 19.8018 20.9434C19.7632 20.7926 19.7317 20.6609 19.6958 20.5305C19.6672 20.425 19.6568 20.2267 19.779 20.2267C19.8449 20.2267 19.8185 20.4112 19.8122 20.4905C19.8066 20.5603 19.8318 20.6025 19.8884 20.6045C19.9237 20.6059 19.9679 20.5608 19.9941 20.531C20.1713 20.3305 20.2125 20.0201 20.0047 19.8705C19.8311 19.7447 19.3959 19.8383 19.2761 20.0172C19.2582 19.9498 19.1719 19.8385 19.1304 19.79C19.0902 19.7428 19.0797 19.7102 19.1355 19.6688C19.1617 19.6487 19.241 19.5699 19.241 19.4884C19.241 19.4402 19.2036 19.3512 19.0848 19.3512C18.9912 19.3512 18.8873 19.4159 18.8873 19.5606C18.8873 19.5927 18.895 19.6271 18.9159 19.6642C18.8567 19.6545 18.696 19.6583 18.6133 19.6788L19.7545 22.8105C20.0813 22.6493 20.3206 22.394 20.3206 22.12C20.3206 21.8865 19.9768 21.9639 19.8098 22.1462C19.756 21.8499 19.7082 21.5767 19.656 21.3042C19.6418 21.229 19.6798 21.2021 19.7402 21.1793C19.9429 21.1041 20.2605 21.165 20.2496 21.4577C20.2472 21.5238 20.34 21.5238 20.3468 21.4562Z" fill="white"/>
<path fill-rule="evenodd" clip-rule="evenodd" d="M23.4868 13.1211C23.4585 13.0304 24.3825 13.028 24.3825 13.6062C24.3825 13.9939 23.8299 14.1774 23.8299 14.5797C23.8299 14.7668 24.0314 14.9043 24.0932 14.9043C23.9509 14.2587 24.5393 14.5964 24.6984 14.7172C24.3825 13.8489 25.0936 13.8545 25.0235 13.4561C24.9748 13.178 24.3568 13.2619 24.133 13.1211C23.7363 12.8713 23.2667 11.899 22.9573 12.8713C23.5341 13.4069 23.1986 14.1952 22.4661 14.1952C22.4661 14.1952 22.4619 14.3108 22.4688 14.32C23.3423 14.2771 23.6466 13.6353 23.4868 13.1211Z" fill="white"/>
<path fill-rule="evenodd" clip-rule="evenodd" d="M21.9337 15.8109C21.8321 15.8291 21.4878 15.978 21.3398 16.1595C21.5656 16.0897 21.9591 16.0844 22.2326 16.3242C22.2326 16.0677 22.011 15.84 21.9337 15.8109Z" fill="white"/>
<path fill-rule="evenodd" clip-rule="evenodd" d="M18.5531 21.5232C18.4929 21.7026 18.5303 22.0115 18.6481 22.1179C18.4432 22.1179 18.2001 22.1562 18.0781 22.243H18.0779C18.0488 22.0835 18.2706 21.7983 18.5531 21.5232ZM17.729 22.17C17.68 22.2437 17.6562 22.3698 17.6562 22.4236C17.6562 22.734 18.026 22.7965 18.1673 22.7308C18.5756 23.126 19.3777 23.0206 19.6461 22.8879L18.234 19.0135C18.2052 18.9403 18.1017 18.9752 18.1271 19.0513L18.3666 19.7173C18.1613 19.7663 17.8313 19.9159 17.8313 20.1142C17.8313 20.378 18.2983 20.5499 18.5681 20.5293C18.5548 20.5894 18.5703 20.643 18.6122 20.6922C18.5143 20.6922 18.3295 20.7379 18.2687 20.8031C18.1256 20.6697 17.9016 20.6212 17.7952 20.7024C17.688 20.7844 17.6849 20.9228 17.7967 21.0795C17.8744 21.1879 17.9035 21.2947 17.8163 21.4206C18.1416 21.4206 18.0216 20.9975 18.1491 20.9975C18.1324 21.0795 18.1429 21.1743 18.1797 21.2797C18.2044 21.3495 18.2044 21.3993 18.1622 21.4667C18.0573 21.6344 17.8941 22.02 17.9161 22.3686C17.8095 22.3679 17.7552 22.3419 17.7927 22.1962C17.8068 22.1419 17.7734 22.1031 17.729 22.17Z" fill="white"/>
<path fill-rule="evenodd" clip-rule="evenodd" d="M27.562 17.8231C27.3438 17.9337 26.0641 18.533 24.4249 18.3114C24.4418 18.2331 24.4562 18.1546 24.468 18.0753C25.5588 17.9449 26.4457 17.7598 27.0112 17.4454C27.6554 17.0868 27.9371 16.2309 27.6117 15.594C27.6035 15.578 27.5802 15.5751 27.5683 15.5884C27.3901 15.7935 26.2697 17.0126 24.5044 17.3913C24.5 17.2999 24.4915 17.2087 24.4794 17.118C25.3367 16.6317 26.1737 16.0716 26.5725 15.5593C27.175 14.7847 27.1195 13.7969 26.5462 13.293C26.5403 13.2879 26.5326 13.2855 26.5246 13.2868C26.5168 13.2877 26.51 13.2923 26.5056 13.2989C26.3243 13.598 24.6264 16.3424 22.7621 17.5271C22.7395 17.5417 22.7165 17.5559 22.6935 17.5698C22.6399 17.6022 22.6341 17.6716 22.6797 17.713C22.8944 17.9077 23.0281 18.1788 23.0281 18.4797C23.0281 19.0029 22.6249 19.4381 22.0917 19.5325C21.8209 19.585 21.4296 19.5698 21.054 19.4456C21.037 19.4401 21.0195 19.4512 21.0195 19.4682V21.1254C21.0195 21.1521 21.0603 21.1586 21.0697 21.1332C21.2982 20.5282 21.9816 20.3997 22.2806 20.3997C22.3882 21.0463 22.5805 21.5819 22.83 21.8702C23.2366 22.3386 23.9005 22.3319 24.1882 22.0082C24.1931 22.0028 24.195 21.9956 24.1938 21.9885C24.1926 21.9815 24.1882 21.9752 24.1819 21.9718C24.0127 21.8746 23.045 21.2806 22.8513 20.3071C22.928 20.2807 23.0024 20.2508 23.0739 20.2155C23.3862 20.7324 23.8408 21.1928 24.2069 21.3686C24.8218 21.6637 25.3845 21.5201 25.6342 21.0885C25.6432 21.0733 25.6323 21.0543 25.6139 21.0526C25.2335 21.0221 24.0662 20.6877 23.5694 19.8726C23.6262 19.8205 23.682 19.766 23.7339 19.708C24.2539 20.1039 24.9891 20.4538 25.5157 20.5253C26.1315 20.609 26.8293 20.4126 26.8463 19.6963C26.8465 19.6818 26.8337 19.6702 26.8186 19.6711C26.5997 19.6842 25.1498 19.7473 24.117 19.1545C24.1528 19.0861 24.186 19.0167 24.2171 18.9462C24.2171 18.9462 25.778 19.315 26.5175 19.1928C27.2526 19.0715 27.683 18.5236 27.5998 17.842C27.5977 17.8251 27.5778 17.8151 27.562 17.8231Z" fill="white"/>
<path fill-rule="evenodd" clip-rule="evenodd" d="M13.7802 18.9461C13.8112 19.0166 13.8447 19.0862 13.8808 19.1544C12.8482 19.7469 11.399 19.6844 11.1791 19.671C11.1636 19.6701 11.1508 19.6824 11.151 19.6965C11.1682 20.4125 11.866 20.6091 12.4818 20.5252C13.008 20.4539 13.7436 20.1038 14.2634 19.7081C14.3155 19.766 14.3711 19.8204 14.4278 19.8727C13.9308 20.6876 12.7638 21.022 12.3834 21.0525C12.3652 21.0542 12.3543 21.0732 12.363 21.0884C12.6128 21.52 13.1758 21.6636 13.7906 21.3687C14.1565 21.1927 14.6111 20.7323 14.9234 20.2156C14.9952 20.2507 15.0698 20.2806 15.146 20.307C14.9522 21.2805 13.9846 21.8747 13.8156 21.9719C13.8093 21.9753 13.8049 21.9814 13.8037 21.9884C13.8025 21.9955 13.8044 22.0027 13.8091 22.0081C14.0969 22.332 14.7609 22.3385 15.1675 21.8701C15.4173 21.5818 15.6091 21.0462 15.7167 20.3996C16.0159 20.3996 16.6991 20.5281 16.9275 21.1331C16.9375 21.1585 16.978 21.152 16.978 21.1253V19.4681C16.978 19.4511 16.9602 19.44 16.9433 19.4455C16.5677 19.5697 16.1766 19.5849 15.9061 19.5324C15.3727 19.438 14.9692 19.0028 14.9692 18.4796C14.9692 18.1787 15.103 17.9074 15.3176 17.7125C15.3634 17.6715 15.3574 17.6021 15.3043 17.5697C15.281 17.5556 15.2577 17.5416 15.2349 17.527C13.3719 16.3428 11.6747 13.6004 11.4919 13.2993C11.4834 13.2852 11.463 13.2823 11.4504 13.2932C10.878 13.7972 10.8222 14.7848 11.425 15.5592C11.8236 16.0713 12.6605 16.6316 13.5176 17.1179C13.5055 17.2086 13.4973 17.2998 13.4929 17.3912C11.729 17.0125 10.6094 15.7956 10.4294 15.5892C10.4176 15.5752 10.3936 15.5781 10.3853 15.5941C10.0609 16.231 10.3426 17.0867 10.9864 17.4453C11.5515 17.7595 12.4384 17.9445 13.5295 18.0752C13.5411 18.1542 13.5554 18.233 13.5724 18.3111C11.9349 18.5327 10.6559 17.9346 10.436 17.8233C10.4195 17.815 10.3999 17.8252 10.3977 17.8424C10.315 18.524 10.7451 19.0714 11.48 19.1927C12.2193 19.3149 13.7802 18.9461 13.7802 18.9461Z" fill="white"/>
<path fill-rule="evenodd" clip-rule="evenodd" d="M13.2987 14.7172C13.4576 14.5964 14.0462 14.2587 13.9042 14.9043C13.9657 14.9043 14.1672 14.7668 14.1672 14.5797C14.1672 14.1774 13.6144 13.9939 13.6144 13.6062C13.6144 13.028 14.5384 13.0304 14.5101 13.1211C14.3505 13.6353 14.655 14.2773 15.5286 14.32C15.5349 14.3108 15.5308 14.1952 15.5308 14.1952C14.7988 14.1952 14.4633 13.4069 15.0398 12.8713C14.7302 11.899 14.2608 12.8713 13.8639 13.1211C13.6401 13.2621 13.0221 13.178 12.9736 13.4561C12.9038 13.8545 13.6144 13.8489 13.2987 14.7172Z" fill="white"/>
<path fill-rule="evenodd" clip-rule="evenodd" d="M21.3398 12.9678C21.3398 13.1889 21.4805 13.3489 21.5542 13.3965C21.6231 13.3489 21.7685 13.1889 21.7685 12.9678C21.7685 12.912 21.6924 12.7891 21.5542 12.7891C21.4158 12.7891 21.3398 12.912 21.3398 12.9678Z" fill="white"/>
<path fill-rule="evenodd" clip-rule="evenodd" d="M18.6211 10.5545L18.8614 10.5283L18.8362 10.8125H19.1625L19.1373 10.5283L19.3776 10.5545V10.2449L19.1373 10.2711L19.1625 9.99909H18.8362L18.8614 10.2711L18.6211 10.2449V10.5545Z" fill="white"/>
<path fill-rule="evenodd" clip-rule="evenodd" d="M18.6953 11.3209C18.6953 11.6349 18.8951 11.862 18.9996 11.9297C19.0973 11.862 19.3039 11.6349 19.3039 11.3209C19.3039 11.2418 19.196 11.0673 18.9996 11.0673C18.8032 11.0673 18.6953 11.2418 18.6953 11.3209Z" fill="white"/>
<path fill-rule="evenodd" clip-rule="evenodd" d="M17.0063 14.3184C17.9568 14.3184 18.384 13.7352 18.5133 13.2295C18.7271 13.2295 18.9171 13.2295 19.4811 13.2295C19.6103 13.7352 20.0375 14.3184 20.9883 14.3184H22.1183C22.2771 14.1595 22.4279 13.8904 22.4279 13.6157C22.4279 13.2203 22.0492 13.2159 21.9442 13.2161C21.871 13.5206 21.6695 13.6618 21.5563 13.717C21.436 13.665 21.2331 13.5313 21.1601 13.2151C21.0515 13.2169 20.6781 13.2217 20.6781 13.6157C20.6781 13.7018 20.6975 13.8022 20.7404 13.9173C20.7633 13.9784 20.8178 14.0684 20.8694 14.1472C20.4684 14.0921 19.9565 13.8177 19.8443 13.2295C19.8443 13.2295 20.1406 12.7589 20.2151 12.5683C20.4822 11.8833 20.0482 11.5924 19.5492 11.5924C19.4797 11.917 19.251 12.1513 18.9967 12.265C18.7426 12.1513 18.5147 11.917 18.4451 11.5924C17.9461 11.5924 17.5124 11.8833 17.7793 12.5683C17.8538 12.7589 18.1503 13.2295 18.1503 13.2295C18.0377 13.8177 17.5259 14.0921 17.1249 14.1472C17.1765 14.0684 17.2311 13.9784 17.2539 13.9173C17.2968 13.8022 17.3162 13.7018 17.3162 13.6157C17.3162 13.2217 16.9428 13.2169 16.8342 13.2151C16.7612 13.5313 16.5583 13.665 16.4383 13.717C16.3251 13.6618 16.1236 13.5206 16.0503 13.2161C15.9451 13.2159 15.5664 13.2203 15.5664 13.6157C15.5664 13.8904 15.7172 14.1595 15.876 14.3184H17.0063Z" fill="white"/>
<path fill-rule="evenodd" clip-rule="evenodd" d="M21.8463 12.1483L21.6596 12.1686L21.6793 11.9451H21.4325L21.4523 12.1686L21.2656 12.1483V12.3828L21.4523 12.3624L21.4325 12.5859H21.6793L21.6596 12.3624L21.8463 12.3828V12.1483Z" fill="white"/>
<path fill-rule="evenodd" clip-rule="evenodd" d="M16.566 11.9451H16.3194L16.3388 12.1686L16.1523 12.1483V12.3828L16.3388 12.3624L16.3194 12.5859H16.566L16.5464 12.3624L16.733 12.3828V12.1483L16.5464 12.1686L16.566 11.9451Z" fill="white"/>
<path fill-rule="evenodd" clip-rule="evenodd" d="M16.2266 12.9678C16.2266 13.1889 16.372 13.3489 16.4409 13.3965C16.5146 13.3489 16.6555 13.1889 16.6555 12.9678C16.6555 12.912 16.5793 12.7891 16.4409 12.7891C16.3027 12.7891 16.2266 12.912 16.2266 12.9678Z" fill="white"/>
<path fill-rule="evenodd" clip-rule="evenodd" d="M23.6094 23.037L23.8171 23.0144L23.7953 23.2598H24.0773L24.0555 23.0144L24.263 23.037V22.7693L24.0555 22.7918L24.0773 22.5569H23.7953L23.8171 22.7918L23.6094 22.7693V23.037Z" fill="white"/>
<path fill-rule="evenodd" clip-rule="evenodd" d="M24.0962 23.4748V24.215H23.9306H23.9304H23.7784V23.4731C23.3475 23.5308 23.0006 23.8293 22.9006 24.2172C22.5566 24.2637 21.6287 24.0574 21.7192 23.9202C22.7414 22.4824 21.9594 21.6265 21.0199 21.6741V22.6398C21.0199 22.9499 20.7493 23.2011 20.416 23.2011H19.7671C19.3016 23.2011 18.9985 23.669 18.9985 23.669C18.9985 23.669 18.6955 23.2011 18.2302 23.2011H17.5811C17.2475 23.2011 16.9776 22.9499 16.9776 22.6398V21.6741C16.0379 21.6265 15.2553 22.4827 16.2779 23.9204C16.3676 24.0562 15.409 24.2739 14.9595 24.2189C14.8409 24.0962 14.67 24.0186 14.4787 24.0186C14.3974 24.0186 14.3167 24.0332 14.2406 24.0615C14.2406 24.0615 12.4735 22.3886 12.4411 22.3721L12.4556 22.3381C12.5562 22.15 12.4023 21.9449 12.3048 21.9594C12.418 21.8237 12.4234 21.2296 11.7956 21.0922C11.8141 21.2115 11.8233 21.4551 11.8233 21.4551C11.8233 21.4551 11.3388 21.1933 11.0957 21.4193C10.8821 21.6721 11.1786 22.1311 11.1786 22.1311C11.1786 22.1311 10.9308 22.1372 10.8086 22.127C10.9883 22.7343 11.5908 22.6914 11.721 22.5714C11.7125 22.6681 11.9304 22.8058 12.115 22.6953L12.1962 22.656C12.2105 22.6754 13.9314 24.3013 13.9314 24.3013C13.8524 24.4187 13.8148 24.5624 13.8408 24.7162C13.8815 24.956 14.0813 25.1548 14.3366 25.2062C14.5167 25.2425 14.6862 25.2074 14.822 25.1279L15.2776 25.5507C15.3183 25.5876 15.3731 25.6106 15.4342 25.6062C15.5457 25.5987 15.6291 25.5083 15.6206 25.4047C15.617 25.3579 15.5932 25.3179 15.5603 25.2876C15.553 25.2794 15.0962 24.8556 15.0962 24.8556C15.473 24.5913 16.1749 24.4051 16.7577 24.4051C16.8601 24.4051 16.9081 24.3185 16.8729 24.2334C16.6089 23.5987 17.1765 23.139 17.7635 23.5133C18.0198 23.6765 18.2799 23.998 18.4758 24.5343C17.5126 24.7678 16.3032 25.4103 16.0583 26.1115C15.9642 26.3823 16.2753 26.7516 16.6533 26.826C16.66 26.8275 16.6671 26.8263 16.6726 26.8224C16.6785 26.8187 16.6826 26.8127 16.6838 26.8061C16.8814 25.759 18.0074 24.9787 18.5934 24.8464C18.6227 24.9252 18.613 24.8997 18.6426 24.9783C18.0044 25.2801 17.3857 25.9166 17.2087 26.6733C17.1277 27.0197 17.5142 27.3323 17.8333 27.4176C17.8493 27.422 17.865 27.4108 17.866 27.3953C17.9267 26.4383 18.3492 25.6256 18.7277 25.2559C18.7382 25.3281 18.7459 25.4009 18.751 25.4736C18.751 25.4736 18.3636 26.5537 18.3636 27.3417C18.3636 27.7083 18.9084 27.9641 18.9889 28C19.0895 27.9641 19.6338 27.7083 19.6338 27.3417C19.6338 26.5535 19.2463 25.4736 19.2463 25.4736C19.2514 25.4009 19.2594 25.3281 19.2698 25.2559C19.6481 25.6256 20.0709 26.4381 20.1316 27.3951C20.1323 27.4106 20.1482 27.422 20.164 27.4176C20.4834 27.3323 20.8696 27.0197 20.7889 26.6733C20.6116 25.9166 19.9931 25.2801 19.3549 24.9783C19.3843 24.8997 19.3746 24.9252 19.4039 24.8464C19.9902 24.9787 21.1159 25.759 21.3135 26.8061C21.3147 26.8127 21.3189 26.8187 21.3247 26.8224C21.3302 26.826 21.3373 26.8275 21.3441 26.826C21.7216 26.7516 22.0334 26.3823 21.9386 26.1117C21.6947 25.4103 20.4848 24.7678 19.5215 24.5346C19.7179 23.998 19.9781 23.6765 20.2341 23.5133C20.8208 23.139 21.3884 23.5989 21.1244 24.2337C21.089 24.3185 21.137 24.4051 21.2396 24.4051C21.8928 24.4051 22.6957 24.6391 23.0231 24.954C23.2083 25.2399 23.5456 25.4312 23.9309 25.4312C24.5159 25.4312 24.9901 24.9904 24.9901 24.447C24.9901 23.9556 24.6024 23.5485 24.0962 23.4748Z" fill="white"/>
</g>
<defs>
<linearGradient id="paint0_linear_1_67923" x1="19.4537" y1="-1.28733" x2="19.811" y2="43.5326" gradientUnits="userSpaceOnUse">
<stop stop-color="#FF7A40"/>
<stop offset="0.988999" stop-color="#FF4E00"/>
</linearGradient>
<clipPath id="clip0_1_67923">
<rect width="18" height="18" fill="white" transform="matrix(1 0 0 -1 10 28)"/>
</clipPath>
</defs>
</svg>
