<svg width="38" height="38" viewBox="0 0 38 38" fill="none" xmlns="http://www.w3.org/2000/svg">
<rect width="37.9391" height="37.9391" rx="8" fill="url(#paint0_linear_1_67912)"/>
<mask id="path-2-outside-1_1_67912" maskUnits="userSpaceOnUse" x="9" y="11" width="20" height="18" fill="black">
<rect fill="white" x="9" y="11" width="20" height="18"/>
<path d="M26.5795 13.558C25.6328 12.6001 24.3249 12.0403 22.9443 12.0021C21.5638 11.9639 20.2239 12.4504 19.2204 13.3542L18.9927 13.5591C17.0206 11.5668 13.7262 11.4745 11.6344 13.353C9.54274 15.2314 9.44582 18.3692 11.418 20.3615L11.9307 20.879C11.7142 21.3564 11.7834 21.9078 12.1119 22.3232C12.4404 22.7385 12.9778 22.954 13.5193 22.8876C13.4276 23.3421 13.5709 23.8109 13.9044 24.1475C14.2379 24.4841 14.721 24.6475 15.2027 24.5866C15.111 25.0411 15.2542 25.5098 15.5877 25.8464C15.9211 26.1829 16.4041 26.3463 16.8857 26.2854C16.7664 26.9026 17.077 27.523 17.6556 27.8232C18.2343 28.1233 18.9499 28.0353 19.4296 27.6051C21.1417 26.0654 21.088 26.1423 21.2497 25.8828C21.7505 26.1175 22.3462 26.071 22.8002 25.7617C23.2541 25.4524 23.4927 24.9304 23.4212 24.4032C23.8983 24.4884 24.3894 24.3508 24.7422 24.0332C25.0949 23.7156 25.2667 23.2563 25.2042 22.7978C25.856 22.9119 26.5105 22.6116 26.8231 22.055C27.1357 21.4984 27.0348 20.8132 26.5735 20.3601C28.4732 18.4546 28.4758 15.4665 26.5795 13.558ZM12.6585 22.0589C12.308 21.7041 12.3249 21.1462 12.6963 20.8113L14.2564 19.4082C14.6295 19.08 15.2104 19.0991 15.5589 19.4509C15.9074 19.8027 15.8936 20.3562 15.5279 20.6918L13.9678 22.0949C13.5956 22.4288 13.0099 22.4127 12.6585 22.0589ZM14.3419 23.758C13.9911 23.4034 14.008 22.8451 14.3797 22.5104L15.9398 21.1073C16.3119 20.773 16.898 20.7892 17.2491 21.1436C17.6001 21.498 17.583 22.0563 17.211 22.3906L15.6509 23.794C15.2783 24.1272 14.6929 24.1104 14.3419 23.7565V23.758ZM16.025 25.4568C15.6746 25.1021 15.6916 24.5442 16.0631 24.2094L17.6232 22.8064C17.9976 22.4933 18.565 22.5185 18.9073 22.8634C19.2495 23.2083 19.2439 23.7493 18.8946 24.0877L17.3346 25.4908C16.9626 25.8254 16.3764 25.8095 16.025 25.4553V25.4568ZM19.0176 27.1919C18.777 27.4082 18.4334 27.4858 18.1163 27.3954C17.7993 27.3051 17.557 27.0605 17.4806 26.7538C17.4043 26.4471 17.5055 26.1249 17.7462 25.9085L19.3062 24.5052C19.6793 24.177 20.2602 24.196 20.6087 24.5479C20.9572 24.8997 20.9434 25.4532 20.5777 25.7888L19.0176 27.1919ZM26.1139 22.0149C25.9355 22.1759 25.6972 22.2627 25.4515 22.2559C25.2059 22.2492 24.9732 22.1495 24.8049 21.9789L20.8069 17.944C20.6932 17.8292 20.5032 17.824 20.3827 17.9323C20.2622 18.0406 20.2566 18.2215 20.3704 18.3364L24.3693 22.3709C24.5965 22.6001 24.678 22.9273 24.5832 23.2293C24.4884 23.5313 24.2317 23.7622 23.9097 23.835C23.5877 23.9078 23.2494 23.8114 23.0222 23.5822L19.0236 19.5471C18.9501 19.4728 18.8405 19.4416 18.7361 19.4651C18.6318 19.4887 18.5486 19.5635 18.5179 19.6613C18.4871 19.7591 18.5135 19.8652 18.5871 19.9394L22.5845 23.9734C22.9002 24.2917 22.9226 24.7825 22.6372 25.1257C22.3517 25.4689 21.845 25.5605 21.4474 25.3407C21.5097 24.9325 21.3855 24.5185 21.1062 24.2032C20.8269 23.8879 20.4193 23.7016 19.9864 23.6914C19.6564 23.6831 19.7764 23.802 19.7848 23.4876C19.7967 23.1022 19.6473 22.728 19.3694 22.4475C19.0916 22.167 18.708 22.0033 18.3033 21.9923C17.9733 21.9823 18.0918 22.1066 18.1017 21.7885C18.1135 21.4031 17.964 21.0289 17.6861 20.7485C17.4082 20.468 17.0246 20.3043 16.6199 20.2932C16.2878 20.2843 16.4084 20.4101 16.4183 20.0895C16.4345 19.5024 16.0787 18.9637 15.5162 18.7233C14.9537 18.483 14.2946 18.5883 13.8451 18.9902C11.7 20.9187 12.4401 20.2541 12.2802 20.3978L11.8548 19.9692C10.1102 18.2066 10.1961 15.4307 12.0467 13.769C13.8972 12.1074 16.8116 12.1892 18.5562 13.9518L16.0991 16.1618C15.8661 16.3746 15.729 16.6652 15.7166 16.9725C15.6866 18.146 17.5194 18.885 18.6393 17.8754L20.8786 15.8626C20.9365 15.8105 21.0137 15.7825 21.0932 15.7846C21.1728 15.7867 21.2482 15.8189 21.3028 15.874C21.8915 16.4681 25.587 20.1983 26.1517 20.7678C26.3204 20.9379 26.4111 21.1649 26.4041 21.3988C26.397 21.6327 26.2926 21.8543 26.1139 22.0149ZM26.1652 19.9489L21.7391 15.4817C21.5752 15.3163 21.3491 15.2198 21.1105 15.2133C20.8718 15.2067 20.6403 15.2907 20.4667 15.4468L18.2271 17.4602C17.9893 17.6741 17.6718 17.7889 17.3449 17.7793C17.0179 17.7697 16.7085 17.6365 16.4849 17.4091C16.3724 17.2954 16.3119 17.1438 16.3169 16.9876C16.3219 16.8314 16.392 16.6836 16.5116 16.5767L19.6318 13.7697C21.4388 12.1404 24.2778 12.1727 26.0435 13.8426C27.8091 15.5125 27.863 18.2163 26.1652 19.9489Z"/>
</mask>
<path d="M26.5795 13.558C25.6328 12.6001 24.3249 12.0403 22.9443 12.0021C21.5638 11.9639 20.2239 12.4504 19.2204 13.3542L18.9927 13.5591C17.0206 11.5668 13.7262 11.4745 11.6344 13.353C9.54274 15.2314 9.44582 18.3692 11.418 20.3615L11.9307 20.879C11.7142 21.3564 11.7834 21.9078 12.1119 22.3232C12.4404 22.7385 12.9778 22.954 13.5193 22.8876C13.4276 23.3421 13.5709 23.8109 13.9044 24.1475C14.2379 24.4841 14.721 24.6475 15.2027 24.5866C15.111 25.0411 15.2542 25.5098 15.5877 25.8464C15.9211 26.1829 16.4041 26.3463 16.8857 26.2854C16.7664 26.9026 17.077 27.523 17.6556 27.8232C18.2343 28.1233 18.9499 28.0353 19.4296 27.6051C21.1417 26.0654 21.088 26.1423 21.2497 25.8828C21.7505 26.1175 22.3462 26.071 22.8002 25.7617C23.2541 25.4524 23.4927 24.9304 23.4212 24.4032C23.8983 24.4884 24.3894 24.3508 24.7422 24.0332C25.0949 23.7156 25.2667 23.2563 25.2042 22.7978C25.856 22.9119 26.5105 22.6116 26.8231 22.055C27.1357 21.4984 27.0348 20.8132 26.5735 20.3601C28.4732 18.4546 28.4758 15.4665 26.5795 13.558ZM12.6585 22.0589C12.308 21.7041 12.3249 21.1462 12.6963 20.8113L14.2564 19.4082C14.6295 19.08 15.2104 19.0991 15.5589 19.4509C15.9074 19.8027 15.8936 20.3562 15.5279 20.6918L13.9678 22.0949C13.5956 22.4288 13.0099 22.4127 12.6585 22.0589ZM14.3419 23.758C13.9911 23.4034 14.008 22.8451 14.3797 22.5104L15.9398 21.1073C16.3119 20.773 16.898 20.7892 17.2491 21.1436C17.6001 21.498 17.583 22.0563 17.211 22.3906L15.6509 23.794C15.2783 24.1272 14.6929 24.1104 14.3419 23.7565V23.758ZM16.025 25.4568C15.6746 25.1021 15.6916 24.5442 16.0631 24.2094L17.6232 22.8064C17.9976 22.4933 18.565 22.5185 18.9073 22.8634C19.2495 23.2083 19.2439 23.7493 18.8946 24.0877L17.3346 25.4908C16.9626 25.8254 16.3764 25.8095 16.025 25.4553V25.4568ZM19.0176 27.1919C18.777 27.4082 18.4334 27.4858 18.1163 27.3954C17.7993 27.3051 17.557 27.0605 17.4806 26.7538C17.4043 26.4471 17.5055 26.1249 17.7462 25.9085L19.3062 24.5052C19.6793 24.177 20.2602 24.196 20.6087 24.5479C20.9572 24.8997 20.9434 25.4532 20.5777 25.7888L19.0176 27.1919ZM26.1139 22.0149C25.9355 22.1759 25.6972 22.2627 25.4515 22.2559C25.2059 22.2492 24.9732 22.1495 24.8049 21.9789L20.8069 17.944C20.6932 17.8292 20.5032 17.824 20.3827 17.9323C20.2622 18.0406 20.2566 18.2215 20.3704 18.3364L24.3693 22.3709C24.5965 22.6001 24.678 22.9273 24.5832 23.2293C24.4884 23.5313 24.2317 23.7622 23.9097 23.835C23.5877 23.9078 23.2494 23.8114 23.0222 23.5822L19.0236 19.5471C18.9501 19.4728 18.8405 19.4416 18.7361 19.4651C18.6318 19.4887 18.5486 19.5635 18.5179 19.6613C18.4871 19.7591 18.5135 19.8652 18.5871 19.9394L22.5845 23.9734C22.9002 24.2917 22.9226 24.7825 22.6372 25.1257C22.3517 25.4689 21.845 25.5605 21.4474 25.3407C21.5097 24.9325 21.3855 24.5185 21.1062 24.2032C20.8269 23.8879 20.4193 23.7016 19.9864 23.6914C19.6564 23.6831 19.7764 23.802 19.7848 23.4876C19.7967 23.1022 19.6473 22.728 19.3694 22.4475C19.0916 22.167 18.708 22.0033 18.3033 21.9923C17.9733 21.9823 18.0918 22.1066 18.1017 21.7885C18.1135 21.4031 17.964 21.0289 17.6861 20.7485C17.4082 20.468 17.0246 20.3043 16.6199 20.2932C16.2878 20.2843 16.4084 20.4101 16.4183 20.0895C16.4345 19.5024 16.0787 18.9637 15.5162 18.7233C14.9537 18.483 14.2946 18.5883 13.8451 18.9902C11.7 20.9187 12.4401 20.2541 12.2802 20.3978L11.8548 19.9692C10.1102 18.2066 10.1961 15.4307 12.0467 13.769C13.8972 12.1074 16.8116 12.1892 18.5562 13.9518L16.0991 16.1618C15.8661 16.3746 15.729 16.6652 15.7166 16.9725C15.6866 18.146 17.5194 18.885 18.6393 17.8754L20.8786 15.8626C20.9365 15.8105 21.0137 15.7825 21.0932 15.7846C21.1728 15.7867 21.2482 15.8189 21.3028 15.874C21.8915 16.4681 25.587 20.1983 26.1517 20.7678C26.3204 20.9379 26.4111 21.1649 26.4041 21.3988C26.397 21.6327 26.2926 21.8543 26.1139 22.0149ZM26.1652 19.9489L21.7391 15.4817C21.5752 15.3163 21.3491 15.2198 21.1105 15.2133C20.8718 15.2067 20.6403 15.2907 20.4667 15.4468L18.2271 17.4602C17.9893 17.6741 17.6718 17.7889 17.3449 17.7793C17.0179 17.7697 16.7085 17.6365 16.4849 17.4091C16.3724 17.2954 16.3119 17.1438 16.3169 16.9876C16.3219 16.8314 16.392 16.6836 16.5116 16.5767L19.6318 13.7697C21.4388 12.1404 24.2778 12.1727 26.0435 13.8426C27.8091 15.5125 27.863 18.2163 26.1652 19.9489Z" fill="white"/>
<path d="M26.5795 13.558C25.6328 12.6001 24.3249 12.0403 22.9443 12.0021C21.5638 11.9639 20.2239 12.4504 19.2204 13.3542L18.9927 13.5591C17.0206 11.5668 13.7262 11.4745 11.6344 13.353C9.54274 15.2314 9.44582 18.3692 11.418 20.3615L11.9307 20.879C11.7142 21.3564 11.7834 21.9078 12.1119 22.3232C12.4404 22.7385 12.9778 22.954 13.5193 22.8876C13.4276 23.3421 13.5709 23.8109 13.9044 24.1475C14.2379 24.4841 14.721 24.6475 15.2027 24.5866C15.111 25.0411 15.2542 25.5098 15.5877 25.8464C15.9211 26.1829 16.4041 26.3463 16.8857 26.2854C16.7664 26.9026 17.077 27.523 17.6556 27.8232C18.2343 28.1233 18.9499 28.0353 19.4296 27.6051C21.1417 26.0654 21.088 26.1423 21.2497 25.8828C21.7505 26.1175 22.3462 26.071 22.8002 25.7617C23.2541 25.4524 23.4927 24.9304 23.4212 24.4032C23.8983 24.4884 24.3894 24.3508 24.7422 24.0332C25.0949 23.7156 25.2667 23.2563 25.2042 22.7978C25.856 22.9119 26.5105 22.6116 26.8231 22.055C27.1357 21.4984 27.0348 20.8132 26.5735 20.3601C28.4732 18.4546 28.4758 15.4665 26.5795 13.558ZM12.6585 22.0589C12.308 21.7041 12.3249 21.1462 12.6963 20.8113L14.2564 19.4082C14.6295 19.08 15.2104 19.0991 15.5589 19.4509C15.9074 19.8027 15.8936 20.3562 15.5279 20.6918L13.9678 22.0949C13.5956 22.4288 13.0099 22.4127 12.6585 22.0589ZM14.3419 23.758C13.9911 23.4034 14.008 22.8451 14.3797 22.5104L15.9398 21.1073C16.3119 20.773 16.898 20.7892 17.2491 21.1436C17.6001 21.498 17.583 22.0563 17.211 22.3906L15.6509 23.794C15.2783 24.1272 14.6929 24.1104 14.3419 23.7565V23.758ZM16.025 25.4568C15.6746 25.1021 15.6916 24.5442 16.0631 24.2094L17.6232 22.8064C17.9976 22.4933 18.565 22.5185 18.9073 22.8634C19.2495 23.2083 19.2439 23.7493 18.8946 24.0877L17.3346 25.4908C16.9626 25.8254 16.3764 25.8095 16.025 25.4553V25.4568ZM19.0176 27.1919C18.777 27.4082 18.4334 27.4858 18.1163 27.3954C17.7993 27.3051 17.557 27.0605 17.4806 26.7538C17.4043 26.4471 17.5055 26.1249 17.7462 25.9085L19.3062 24.5052C19.6793 24.177 20.2602 24.196 20.6087 24.5479C20.9572 24.8997 20.9434 25.4532 20.5777 25.7888L19.0176 27.1919ZM26.1139 22.0149C25.9355 22.1759 25.6972 22.2627 25.4515 22.2559C25.2059 22.2492 24.9732 22.1495 24.8049 21.9789L20.8069 17.944C20.6932 17.8292 20.5032 17.824 20.3827 17.9323C20.2622 18.0406 20.2566 18.2215 20.3704 18.3364L24.3693 22.3709C24.5965 22.6001 24.678 22.9273 24.5832 23.2293C24.4884 23.5313 24.2317 23.7622 23.9097 23.835C23.5877 23.9078 23.2494 23.8114 23.0222 23.5822L19.0236 19.5471C18.9501 19.4728 18.8405 19.4416 18.7361 19.4651C18.6318 19.4887 18.5486 19.5635 18.5179 19.6613C18.4871 19.7591 18.5135 19.8652 18.5871 19.9394L22.5845 23.9734C22.9002 24.2917 22.9226 24.7825 22.6372 25.1257C22.3517 25.4689 21.845 25.5605 21.4474 25.3407C21.5097 24.9325 21.3855 24.5185 21.1062 24.2032C20.8269 23.8879 20.4193 23.7016 19.9864 23.6914C19.6564 23.6831 19.7764 23.802 19.7848 23.4876C19.7967 23.1022 19.6473 22.728 19.3694 22.4475C19.0916 22.167 18.708 22.0033 18.3033 21.9923C17.9733 21.9823 18.0918 22.1066 18.1017 21.7885C18.1135 21.4031 17.964 21.0289 17.6861 20.7485C17.4082 20.468 17.0246 20.3043 16.6199 20.2932C16.2878 20.2843 16.4084 20.4101 16.4183 20.0895C16.4345 19.5024 16.0787 18.9637 15.5162 18.7233C14.9537 18.483 14.2946 18.5883 13.8451 18.9902C11.7 20.9187 12.4401 20.2541 12.2802 20.3978L11.8548 19.9692C10.1102 18.2066 10.1961 15.4307 12.0467 13.769C13.8972 12.1074 16.8116 12.1892 18.5562 13.9518L16.0991 16.1618C15.8661 16.3746 15.729 16.6652 15.7166 16.9725C15.6866 18.146 17.5194 18.885 18.6393 17.8754L20.8786 15.8626C20.9365 15.8105 21.0137 15.7825 21.0932 15.7846C21.1728 15.7867 21.2482 15.8189 21.3028 15.874C21.8915 16.4681 25.587 20.1983 26.1517 20.7678C26.3204 20.9379 26.4111 21.1649 26.4041 21.3988C26.397 21.6327 26.2926 21.8543 26.1139 22.0149ZM26.1652 19.9489L21.7391 15.4817C21.5752 15.3163 21.3491 15.2198 21.1105 15.2133C20.8718 15.2067 20.6403 15.2907 20.4667 15.4468L18.2271 17.4602C17.9893 17.6741 17.6718 17.7889 17.3449 17.7793C17.0179 17.7697 16.7085 17.6365 16.4849 17.4091C16.3724 17.2954 16.3119 17.1438 16.3169 16.9876C16.3219 16.8314 16.392 16.6836 16.5116 16.5767L19.6318 13.7697C21.4388 12.1404 24.2778 12.1727 26.0435 13.8426C27.8091 15.5125 27.863 18.2163 26.1652 19.9489Z" stroke="white" stroke-width="0.4" mask="url(#path-2-outside-1_1_67912)"/>
<defs>
<linearGradient id="paint0_linear_1_67912" x1="19.4537" y1="-1.92405" x2="19.811" y2="42.8959" gradientUnits="userSpaceOnUse">
<stop stop-color="#FF7A40"/>
<stop offset="0.988999" stop-color="#FF4E00"/>
</linearGradient>
</defs>
</svg>
