<svg width="35" height="36" viewBox="0 0 35 36" fill="none" xmlns="http://www.w3.org/2000/svg">
<rect width="35" height="36" rx="8" fill="url(#paint0_linear_112_88780)"/>
<path d="M25.4826 13.2558H23.2442V11.0174C23.2442 10.7476 23.137 10.4888 22.9462 10.298C22.7554 10.1072 22.4966 10 22.2267 10H10.0174C9.7476 10 9.48881 10.1072 9.298 10.298C9.10719 10.4888 9 10.7476 9 11.0174V24.4477C9 25.2572 9.32158 26.0336 9.89401 26.606C10.4664 27.1784 11.2428 27.5 12.0523 27.5H24.2616C24.8553 27.5 25.4246 27.2642 25.8444 26.8444C26.2642 26.4246 26.5 25.8553 26.5 25.2616V14.2733C26.5 14.0034 26.3928 13.7446 26.202 13.5538C26.0112 13.363 25.7524 13.2558 25.4826 13.2558ZM16.936 23.8372H12.0523C11.8904 23.8372 11.7351 23.7729 11.6207 23.6584C11.5062 23.5439 11.4419 23.3886 11.4419 23.2267C11.4419 23.0648 11.5062 22.9096 11.6207 22.7951C11.7351 22.6806 11.8904 22.6163 12.0523 22.6163H16.936C17.098 22.6163 17.2532 22.6806 17.3677 22.7951C17.4822 22.9096 17.5465 23.0648 17.5465 23.2267C17.5465 23.3886 17.4822 23.5439 17.3677 23.6584C17.2532 23.7729 17.098 23.8372 16.936 23.8372ZM20.1919 21.3953H12.0523C11.8904 21.3953 11.7351 21.331 11.6207 21.2165C11.5062 21.1021 11.4419 20.9468 11.4419 20.7849C11.4419 20.623 11.5062 20.4677 11.6207 20.3532C11.7351 20.2387 11.8904 20.1744 12.0523 20.1744H20.1919C20.3538 20.1744 20.509 20.2387 20.6235 20.3532C20.738 20.4677 20.8023 20.623 20.8023 20.7849C20.8023 20.9468 20.738 21.1021 20.6235 21.2165C20.509 21.331 20.3538 21.3953 20.1919 21.3953ZM20.8023 17.936C20.8002 18.0973 20.7352 18.2513 20.6212 18.3654C20.5072 18.4794 20.3531 18.5444 20.1919 18.5465H12.0523C11.8911 18.5444 11.737 18.4794 11.623 18.3654C11.509 18.2513 11.444 18.0973 11.4419 17.936V13.8663C11.444 13.705 11.509 13.551 11.623 13.4369C11.737 13.3229 11.8911 13.2579 12.0523 13.2558H20.1919C20.3531 13.2579 20.5072 13.3229 20.6212 13.4369C20.7352 13.551 20.8002 13.705 20.8023 13.8663V17.936ZM25.2791 25.2616C25.2791 25.5315 25.1719 25.7903 24.9811 25.9811C24.7903 26.1719 24.5315 26.2791 24.2616 26.2791C23.9918 26.2791 23.733 26.1719 23.5422 25.9811C23.3514 25.7903 23.2442 25.5315 23.2442 25.2616V14.4767H25.2791V25.2616Z" fill="white"/>
<path d="M12.6641 14.4766H19.5827V17.3254H12.6641V14.4766Z" fill="white"/>
<defs>
<linearGradient id="paint0_linear_112_88780" x1="19.0167" y1="-27.5094" x2="-21.7858" y2="-2.68474" gradientUnits="userSpaceOnUse">
<stop stop-color="#FF7A40"/>
<stop offset="0.988999" stop-color="#FF4E00"/>
</linearGradient>
</defs>
</svg>
