<svg width="36" height="36" viewBox="0 0 36 36" fill="none" xmlns="http://www.w3.org/2000/svg">
<rect x="0.5" y="0.5" width="35" height="35" rx="7.5" fill="#F7F7F7" stroke="#868585"/>
<path d="M25.4826 12.2558H23.2442V10.0174C23.2442 9.7476 23.137 9.48881 22.9462 9.298C22.7554 9.10719 22.4966 9 22.2267 9H10.0174C9.7476 9 9.48881 9.10719 9.298 9.298C9.10719 9.48881 9 9.7476 9 10.0174V23.4477C9 24.2572 9.32158 25.0336 9.89401 25.606C10.4664 26.1784 11.2428 26.5 12.0523 26.5H24.2616C24.8553 26.5 25.4246 26.2642 25.8444 25.8444C26.2642 25.4246 26.5 24.8553 26.5 24.2616V13.2733C26.5 13.0034 26.3928 12.7446 26.202 12.5538C26.0112 12.363 25.7524 12.2558 25.4826 12.2558ZM16.936 22.8372H12.0523C11.8904 22.8372 11.7351 22.7729 11.6207 22.6584C11.5062 22.5439 11.4419 22.3886 11.4419 22.2267C11.4419 22.0648 11.5062 21.9096 11.6207 21.7951C11.7351 21.6806 11.8904 21.6163 12.0523 21.6163H16.936C17.098 21.6163 17.2532 21.6806 17.3677 21.7951C17.4822 21.9096 17.5465 22.0648 17.5465 22.2267C17.5465 22.3886 17.4822 22.5439 17.3677 22.6584C17.2532 22.7729 17.098 22.8372 16.936 22.8372ZM20.1919 20.3953H12.0523C11.8904 20.3953 11.7351 20.331 11.6207 20.2165C11.5062 20.1021 11.4419 19.9468 11.4419 19.7849C11.4419 19.623 11.5062 19.4677 11.6207 19.3532C11.7351 19.2387 11.8904 19.1744 12.0523 19.1744H20.1919C20.3538 19.1744 20.509 19.2387 20.6235 19.3532C20.738 19.4677 20.8023 19.623 20.8023 19.7849C20.8023 19.9468 20.738 20.1021 20.6235 20.2165C20.509 20.331 20.3538 20.3953 20.1919 20.3953ZM20.8023 16.936C20.8002 17.0973 20.7352 17.2513 20.6212 17.3654C20.5072 17.4794 20.3531 17.5444 20.1919 17.5465H12.0523C11.8911 17.5444 11.737 17.4794 11.623 17.3654C11.509 17.2513 11.444 17.0973 11.4419 16.936V12.8663C11.444 12.705 11.509 12.551 11.623 12.4369C11.737 12.3229 11.8911 12.2579 12.0523 12.2558H20.1919C20.3531 12.2579 20.5072 12.3229 20.6212 12.4369C20.7352 12.551 20.8002 12.705 20.8023 12.8663V16.936ZM25.2791 24.2616C25.2791 24.5315 25.1719 24.7903 24.9811 24.9811C24.7903 25.1719 24.5315 25.2791 24.2616 25.2791C23.9918 25.2791 23.733 25.1719 23.5422 24.9811C23.3514 24.7903 23.2442 24.5315 23.2442 24.2616V13.4767H25.2791V24.2616Z" fill="#868585"/>
<path d="M12.6641 13.4766H19.5827V16.3254H12.6641V13.4766Z" fill="#868585"/>
</svg>
