<svg width="36" height="36" viewBox="0 0 36 36" fill="none" xmlns="http://www.w3.org/2000/svg">
<path d="M8 0.5H28C32.1421 0.5 35.5 3.85786 35.5 8V28C35.5 32.1421 32.1421 35.5 28 35.5H8C3.85786 35.5 0.5 32.1421 0.5 28V8C0.5 3.85786 3.85786 0.5 8 0.5Z" fill="#F7F7F7" stroke="#868585"/>
<path d="M23.4194 9H12.5806C12.1622 9.00242 11.7615 9.17339 11.4656 9.47581C11.1697 9.77823 11.0024 10.1877 11 10.6154V25.3846C11.0024 25.8123 11.1697 26.2218 11.4656 26.5242C11.7615 26.8266 12.1622 26.9976 12.5806 27H23.4194C23.8378 26.9976 24.2385 26.8266 24.5344 26.5242C24.8303 26.2218 24.9976 25.8123 25 25.3846V10.6154C24.9976 10.1877 24.8303 9.77823 24.5344 9.47581C24.2385 9.17339 23.8378 9.00242 23.4194 9ZM17.5755 17.5662L15.769 19.4123C15.642 19.542 15.4698 19.6148 15.2903 19.6148C15.1108 19.6148 14.9386 19.542 14.8116 19.4123L13.9084 18.4892C13.7887 18.358 13.7236 18.1844 13.7267 18.0051C13.7298 17.8257 13.8009 17.6546 13.925 17.5277C14.0491 17.4009 14.2165 17.3282 14.392 17.3251C14.5675 17.3219 14.7374 17.3885 14.8658 17.5108L15.2903 17.9446L16.6181 16.5877C16.7465 16.4654 16.9163 16.3988 17.0918 16.402C17.2673 16.4052 17.4348 16.4778 17.5589 16.6047C17.683 16.7315 17.7541 16.9026 17.7572 17.082C17.7603 17.2613 17.6951 17.4349 17.5755 17.5662ZM17.5755 12.9508L15.769 14.7969C15.642 14.9266 15.4698 14.9994 15.2903 14.9994C15.1108 14.9994 14.9386 14.9266 14.8116 14.7969L13.9084 13.8738C13.7887 13.7426 13.7236 13.569 13.7267 13.3897C13.7298 13.2103 13.8009 13.0392 13.925 12.9123C14.0491 12.7855 14.2165 12.7128 14.392 12.7097C14.5675 12.7065 14.7374 12.7731 14.8658 12.8954L15.2903 13.3292L16.6181 11.9723C16.7465 11.85 16.9163 11.7834 17.0918 11.7866C17.2673 11.7898 17.4348 11.8624 17.5589 11.9893C17.683 12.1161 17.7541 12.2872 17.7572 12.4666C17.7603 12.6459 17.6951 12.8195 17.5755 12.9508ZM21.6129 23.3077H14.4041C14.2244 23.3077 14.0521 23.2348 13.9251 23.1049C13.7981 22.9751 13.7267 22.799 13.7267 22.6154C13.7267 22.4318 13.7981 22.2557 13.9251 22.1258C14.0521 21.996 14.2244 21.9231 14.4041 21.9231H21.6129C21.7926 21.9231 21.9649 21.996 22.0919 22.1258C22.219 22.2557 22.2903 22.4318 22.2903 22.6154C22.2903 22.799 22.219 22.9751 22.0919 23.1049C21.9649 23.2348 21.7926 23.3077 21.6129 23.3077ZM21.6129 18.6923H19.8065C19.6268 18.6923 19.4545 18.6194 19.3274 18.4895C19.2004 18.3597 19.129 18.1836 19.129 18C19.129 17.8164 19.2004 17.6403 19.3274 17.5105C19.4545 17.3806 19.6268 17.3077 19.8065 17.3077H21.6129C21.7926 17.3077 21.9649 17.3806 22.0919 17.5105C22.219 17.6403 22.2903 17.8164 22.2903 18C22.2903 18.1836 22.219 18.3597 22.0919 18.4895C21.9649 18.6194 21.7926 18.6923 21.6129 18.6923ZM21.6129 14.0769H19.8065C19.6268 14.0769 19.4545 14.004 19.3274 13.8742C19.2004 13.7443 19.129 13.5682 19.129 13.3846C19.129 13.201 19.2004 13.0249 19.3274 12.8951C19.4545 12.7652 19.6268 12.6923 19.8065 12.6923H21.6129C21.7926 12.6923 21.9649 12.7652 22.0919 12.8951C22.219 13.0249 22.2903 13.201 22.2903 13.3846C22.2903 13.5682 22.219 13.7443 22.0919 13.8742C21.9649 14.004 21.7926 14.0769 21.6129 14.0769Z" fill="#868585"/>
</svg>
