<svg width="36" height="36" viewBox="0 0 36 36" fill="none" xmlns="http://www.w3.org/2000/svg">
<path d="M8 0.5H28C32.1421 0.5 35.5 3.85786 35.5 8V28C35.5 32.1421 32.1421 35.5 28 35.5H8C3.85786 35.5 0.5 32.1421 0.5 28V8C0.5 3.85786 3.85786 0.5 8 0.5Z" fill="#F7F7F7" stroke="#868585"/>
<path d="M28 15.5457C28.0035 16.3304 27.5616 17.0437 26.8722 17.3661L24.6291 18.4193L23.376 19.0045L19.8171 20.6818C18.6692 21.2367 17.3436 21.2367 16.1956 20.6818L12.6243 19.0045L11.3712 18.4193L10.118 17.8212V23.4384C10.2989 23.5563 10.408 23.763 10.4063 23.9846V25.3238C10.4096 25.6794 10.1345 25.9705 9.79185 25.974C9.7878 25.974 9.78375 25.974 9.77971 25.974H9.20327C8.86062 25.9775 8.5801 25.6921 8.57672 25.3365C8.57668 25.3323 8.57668 25.3281 8.57672 25.3238V23.9846C8.57503 23.763 8.6841 23.5563 8.86493 23.4384V17.4571C8.8641 17.3817 8.87685 17.3067 8.90253 17.2361C8.00318 16.6525 7.73004 15.4229 8.29246 14.4897C8.49545 14.1529 8.7908 13.8867 9.14062 13.7253L16.1956 10.4096C17.3455 9.86347 18.6673 9.86347 19.8171 10.4096L26.8722 13.7253C27.5616 14.0478 28.0035 14.7611 28 15.5457ZM20.3309 21.8651C18.857 22.576 17.1558 22.576 15.6819 21.8651L11.3712 19.8496V21.514C11.3739 22.5269 11.8271 23.4818 12.5992 24.1016C15.7913 26.6328 20.2215 26.6328 23.4136 24.1016C24.1824 23.4804 24.6311 22.5252 24.6291 21.5141V19.8367L23.8898 20.1878L20.3309 21.8651Z" fill="#868585"/>
</svg>
