<svg width="36" height="36" viewBox="0 0 36 36" fill="none" xmlns="http://www.w3.org/2000/svg">
<path d="M8 0.5H28C32.1421 0.5 35.5 3.85786 35.5 8V28C35.5 32.1421 32.1421 35.5 28 35.5H8C3.85786 35.5 0.5 32.1421 0.5 28V8C0.5 3.85786 3.85786 0.5 8 0.5Z" fill="#F7F7F7" stroke="#868585"/>
<path d="M26.5139 19.9412C25.9847 19.4289 25.7013 18.7268 25.7013 18.0058C25.7013 17.2847 25.9847 16.6016 26.5139 16.0703C26.6084 15.9754 26.684 15.9185 26.7974 15.8236C26.9486 15.7098 27.0053 15.52 26.9486 15.3303C26.7785 14.6851 26.5139 14.0779 26.2115 13.5087C26.117 13.3569 25.9469 13.262 25.7768 13.281C25.6257 13.2999 25.5123 13.2999 25.3989 13.2999C23.887 13.2999 22.6585 12.0665 22.6585 10.5675C22.6585 10.4537 22.6585 10.3208 22.6774 10.188C22.6963 10.0172 22.6207 9.82747 22.4507 9.75157C21.8837 9.44797 21.26 9.18232 20.6364 9.01154C20.4663 8.97359 20.2584 9.03052 20.145 9.16334C20.0694 9.29617 19.9938 9.41002 19.9182 9.46695C19.3891 9.97928 18.7087 10.2639 17.9906 10.2639C17.2724 10.2639 16.5731 9.97928 16.0629 9.46695C15.9684 9.37207 15.9117 9.29617 15.8172 9.18232C15.7038 9.03052 15.5148 8.97359 15.3258 9.03052C14.6833 9.22027 14.0785 9.46695 13.5115 9.77055C13.3604 9.86542 13.2659 10.0362 13.2848 10.207C13.3037 10.3588 13.3037 10.4726 13.3037 10.5865C13.3037 12.1045 12.0752 13.3189 10.5633 13.3189C10.4499 13.3189 10.3176 13.3189 10.1854 13.2999C10.0153 13.281 9.82628 13.3569 9.75069 13.5276C9.4483 14.0969 9.18372 14.7231 9.01363 15.3492C8.97584 15.52 9.01363 15.7288 9.16482 15.8426C9.29711 15.9375 9.39161 16.0134 9.4483 16.0893C10.5255 17.1519 10.5255 18.8786 9.4483 19.9602C9.37271 20.0171 9.29711 20.093 9.18372 20.1879C9.03253 20.2828 8.97584 20.4915 9.03253 20.6623C9.22152 21.3075 9.4672 21.9147 9.76958 22.4839C9.86408 22.6357 10.0342 22.7306 10.2043 22.7116C10.3554 22.6926 10.4688 22.6926 10.5822 22.6926C12.0941 22.6926 13.3226 23.926 13.3226 25.4251C13.3226 25.5389 13.3226 25.6717 13.3037 25.8046C13.2848 25.9753 13.3604 26.1651 13.5304 26.241C14.0974 26.5446 14.7211 26.8102 15.3447 26.981C15.5148 27.019 15.7227 26.981 15.8361 26.8292C15.9306 26.7154 16.0062 26.6015 16.0818 26.5446C16.6109 26.0323 17.2913 25.7476 18.0094 25.7476C18.7276 25.7476 19.4269 26.0323 19.9371 26.5446C20.0316 26.6395 20.0883 26.7154 20.1828 26.8292C20.2773 26.9431 20.4096 27 20.5419 27C20.5797 27 20.6364 27 20.6742 26.981C21.3167 26.7913 21.9215 26.5446 22.4885 26.241C22.6396 26.1461 22.7341 25.9753 22.7152 25.8046C22.6963 25.6528 22.6963 25.5389 22.6963 25.4251C22.6963 23.907 23.9248 22.6926 25.4367 22.6926C25.5501 22.6926 25.6824 22.6926 25.8146 22.7116C25.9847 22.7306 26.1737 22.6547 26.2493 22.4839C26.5517 21.9147 26.8163 21.2885 26.9864 20.6623C27.0242 20.4915 26.9864 20.2828 26.8352 20.1689C26.684 20.093 26.5706 20.0171 26.5139 19.9412ZM22.3373 18.0058C22.3373 20.3966 20.3907 22.3701 17.9906 22.3701C15.5904 22.3701 13.6438 20.3966 13.6438 18.0058C13.6438 15.6149 15.5904 13.6415 17.9906 13.6415C20.3907 13.6415 22.3373 15.5959 22.3373 18.0058Z" fill="#868585"/>
</svg>
