<svg width="36" height="36" viewBox="0 0 36 36" fill="none" xmlns="http://www.w3.org/2000/svg">
<path d="M8 0.5H28C32.1421 0.5 35.5 3.85786 35.5 8V28C35.5 32.1421 32.1421 35.5 28 35.5H8C3.85786 35.5 0.5 32.1421 0.5 28V8C0.5 3.85786 3.85786 0.5 8 0.5Z" fill="#F7F7F7" stroke="#868585"/>
<path d="M25.075 20.2299L21.1097 15.2748V10.8838C21.774 10.8838 22.3124 10.3454 22.3124 9.68113V9.67928C22.3124 9.01504 21.774 8.47656 21.1097 8.47656H13.8897C13.2255 8.47656 12.687 9.01504 12.687 9.67928V9.68113C12.687 10.3454 13.2255 10.8838 13.8897 10.8838L13.8897 15.2748L9.92443 20.2299C8.58684 21.9 8.85663 24.3397 10.5286 25.6773C11.2164 26.2263 12.0695 26.5266 12.9511 26.5266L21.964 26.5266C23.8082 26.5266 25.4584 25.2713 25.8393 23.4669C26.0832 22.3115 25.7946 21.1281 25.075 20.2299ZM16.297 16.1184V10.8838H18.7024V16.1184L20.2908 18.1038H14.7086L16.297 16.1184Z" fill="#868585"/>
</svg>
