<svg width="97" height="93" viewBox="0 0 97 93" fill="none" xmlns="http://www.w3.org/2000/svg">
<path d="M30.172 0H26.7305V3.2704H30.172V0Z" fill="#353232"/>
<path d="M46.8791 0H43.4375V3.2704H46.8791V0Z" fill="#353232"/>
<path d="M50.2189 0H46.7773V3.2704H50.2189V0Z" fill="#353232"/>
<path d="M56.9025 0H53.4609V3.2704H56.9025V0Z" fill="#353232"/>
<path d="M60.2423 0H56.8008V3.2704H60.2423V0Z" fill="#353232"/>
<path d="M63.5822 0H60.1406V3.2704H63.5822V0Z" fill="#353232"/>
<path d="M70.2697 0H66.8281V3.2704H70.2697V0Z" fill="#353232"/>
<path d="M36.8556 3.17383H33.4141V6.44423H36.8556V3.17383Z" fill="#353232"/>
<path d="M43.5392 3.17383H40.0977V6.44423H43.5392V3.17383Z" fill="#353232"/>
<path d="M46.8791 3.17383H43.4375V6.44423H46.8791V3.17383Z" fill="#353232"/>
<path d="M33.5119 6.35156H30.0703V9.62197H33.5119V6.35156Z" fill="#353232"/>
<path d="M36.8556 6.35156H33.4141V9.62197H36.8556V6.35156Z" fill="#353232"/>
<path d="M43.5392 6.35156H40.0977V9.62197H43.5392V6.35156Z" fill="#353232"/>
<path d="M50.2189 6.35156H46.7773V9.62197H50.2189V6.35156Z" fill="#353232"/>
<path d="M66.9259 6.35156H63.4844V9.62197H66.9259V6.35156Z" fill="#353232"/>
<path d="M70.2697 6.35156H66.8281V9.62197H70.2697V6.35156Z" fill="#353232"/>
<path d="M36.8556 9.52539H33.4141V12.7958H36.8556V9.52539Z" fill="#353232"/>
<path d="M40.1955 9.52539H36.7539V12.7958H40.1955V9.52539Z" fill="#353232"/>
<path d="M43.5392 9.52539H40.0977V12.7958H43.5392V9.52539Z" fill="#353232"/>
<path d="M53.5588 9.52539H50.1172V12.7958H53.5588V9.52539Z" fill="#353232"/>
<path d="M60.2423 9.52539H56.8008V12.7958H60.2423V9.52539Z" fill="#353232"/>
<path d="M66.9259 9.52539H63.4844V12.7958H66.9259V9.52539Z" fill="#353232"/>
<path d="M30.172 12.7012H26.7305V15.9716H30.172V12.7012Z" fill="#353232"/>
<path d="M33.5119 12.7012H30.0703V15.9716H33.5119V12.7012Z" fill="#353232"/>
<path d="M36.8556 12.7012H33.4141V15.9716H36.8556V12.7012Z" fill="#353232"/>
<path d="M43.5392 12.7012H40.0977V15.9716H43.5392V12.7012Z" fill="#353232"/>
<path d="M46.8791 12.7012H43.4375V15.9716H46.8791V12.7012Z" fill="#353232"/>
<path d="M63.5822 12.7012H60.1406V15.9716H63.5822V12.7012Z" fill="#353232"/>
<path d="M66.9259 12.7012H63.4844V15.9716H66.9259V12.7012Z" fill="#353232"/>
<path d="M70.2697 12.7012H66.8281V15.9716H70.2697V12.7012Z" fill="#353232"/>
<path d="M30.172 15.875H26.7305V19.1454H30.172V15.875Z" fill="#353232"/>
<path d="M33.5119 15.875H30.0703V19.1454H33.5119V15.875Z" fill="#353232"/>
<path d="M43.5392 15.875H40.0977V19.1454H43.5392V15.875Z" fill="#353232"/>
<path d="M50.2189 15.875H46.7773V19.1454H50.2189V15.875Z" fill="#353232"/>
<path d="M53.5588 15.875H50.1172V19.1454H53.5588V15.875Z" fill="#353232"/>
<path d="M60.2423 15.875H56.8008V19.1454H60.2423V15.875Z" fill="#353232"/>
<path d="M30.172 19.0508H26.7305V22.3212H30.172V19.0508Z" fill="#353232"/>
<path d="M36.8556 19.0508H33.4141V22.3212H36.8556V19.0508Z" fill="#353232"/>
<path d="M43.5392 19.0508H40.0977V22.3212H43.5392V19.0508Z" fill="#353232"/>
<path d="M50.2189 19.0508H46.7773V22.3212H50.2189V19.0508Z" fill="#353232"/>
<path d="M56.9025 19.0508H53.4609V22.3212H56.9025V19.0508Z" fill="#353232"/>
<path d="M63.5861 19.0508H60.1445V22.3212H63.5861V19.0508Z" fill="#353232"/>
<path d="M70.2697 19.0508H66.8281V22.3212H70.2697V19.0508Z" fill="#353232"/>
<path d="M33.5119 22.2266H30.0703V25.497H33.5119V22.2266Z" fill="#353232"/>
<path d="M36.8556 22.2266H33.4141V25.497H36.8556V22.2266Z" fill="#353232"/>
<path d="M40.1955 22.2266H36.7539V25.497H40.1955V22.2266Z" fill="#353232"/>
<path d="M46.8791 22.2266H43.4375V25.497H46.8791V22.2266Z" fill="#353232"/>
<path d="M50.2189 22.2266H46.7773V25.497H50.2189V22.2266Z" fill="#353232"/>
<path d="M56.9025 22.2266H53.4609V25.497H56.9025V22.2266Z" fill="#353232"/>
<path d="M66.9259 22.2266H63.4844V25.497H66.9259V22.2266Z" fill="#353232"/>
<path d="M70.2697 22.2266H66.8281V25.497H70.2697V22.2266Z" fill="#353232"/>
<path d="M6.78141 25.4023H3.33984V28.6727H6.78141V25.4023Z" fill="#353232"/>
<path d="M10.1252 25.4023H6.68359V28.6727H10.1252V25.4023Z" fill="#353232"/>
<path d="M13.465 25.4023H10.0234V28.6727H13.465V25.4023Z" fill="#353232"/>
<path d="M16.8088 25.4023H13.3672V28.6727H16.8088V25.4023Z" fill="#353232"/>
<path d="M20.1486 25.4023H16.707V28.6727H20.1486V25.4023Z" fill="#353232"/>
<path d="M23.4884 25.4023H20.0469V28.6727H23.4884V25.4023Z" fill="#353232"/>
<path d="M26.8283 25.4023H23.3867V28.6727H26.8283V25.4023Z" fill="#353232"/>
<path d="M33.5119 25.4023H30.0703V28.6727H33.5119V25.4023Z" fill="#353232"/>
<path d="M40.1955 25.4023H36.7539V28.6727H40.1955V25.4023Z" fill="#353232"/>
<path d="M46.8791 25.4023H43.4375V28.6727H46.8791V25.4023Z" fill="#353232"/>
<path d="M53.5588 25.4023H50.1172V28.6727H53.5588V25.4023Z" fill="#353232"/>
<path d="M66.9259 25.4023H63.4844V28.6727H66.9259V25.4023Z" fill="#353232"/>
<path d="M80.2931 25.4023H76.8516V28.6727H80.2931V25.4023Z" fill="#353232"/>
<path d="M83.633 25.4023H80.1914V28.6727H83.633V25.4023Z" fill="#353232"/>
<path d="M97.0002 25.4023H93.5586V28.6727H97.0002V25.4023Z" fill="#353232"/>
<path d="M6.78141 28.5781H3.33984V31.8485H6.78141V28.5781Z" fill="#353232"/>
<path d="M10.1252 28.5781H6.68359V31.8485H10.1252V28.5781Z" fill="#353232"/>
<path d="M13.465 28.5781H10.0234V31.8485H13.465V28.5781Z" fill="#353232"/>
<path d="M20.1486 28.5781H16.707V31.8485H20.1486V28.5781Z" fill="#353232"/>
<path d="M26.8283 28.5781H23.3867V31.8485H26.8283V28.5781Z" fill="#353232"/>
<path d="M30.172 28.5781H26.7305V31.8485H30.172V28.5781Z" fill="#353232"/>
<path d="M40.1955 28.5781H36.7539V31.8485H40.1955V28.5781Z" fill="#353232"/>
<path d="M43.5392 28.5781H40.0977V31.8485H43.5392V28.5781Z" fill="#353232"/>
<path d="M53.5588 28.5781H50.1172V31.8485H53.5588V28.5781Z" fill="#353232"/>
<path d="M63.5861 28.5781H60.1445V31.8485H63.5861V28.5781Z" fill="#353232"/>
<path d="M70.2697 28.5781H66.8281V31.8485H70.2697V28.5781Z" fill="#353232"/>
<path d="M73.6095 28.5781H70.168V31.8485H73.6095V28.5781Z" fill="#353232"/>
<path d="M80.2931 28.5781H76.8516V31.8485H80.2931V28.5781Z" fill="#353232"/>
<path d="M83.633 28.5781H80.1914V31.8485H83.633V28.5781Z" fill="#353232"/>
<path d="M86.9767 28.5781H83.5352V31.8485H86.9767V28.5781Z" fill="#353232"/>
<path d="M97.0002 28.5781H93.5586V31.8485H97.0002V28.5781Z" fill="#353232"/>
<path d="M13.465 31.752H10.0234V35.0224H13.465V31.752Z" fill="#353232"/>
<path d="M16.8088 31.752H13.3672V35.0224H16.8088V31.752Z" fill="#353232"/>
<path d="M23.4884 31.752H20.0469V35.0224H23.4884V31.752Z" fill="#353232"/>
<path d="M33.5119 31.752H30.0703V35.0224H33.5119V31.752Z" fill="#353232"/>
<path d="M36.8556 31.752H33.4141V35.0224H36.8556V31.752Z" fill="#353232"/>
<path d="M46.8791 31.752H43.4375V35.0224H46.8791V31.752Z" fill="#353232"/>
<path d="M53.5588 31.752H50.1172V35.0224H53.5588V31.752Z" fill="#353232"/>
<path d="M56.9025 31.752H53.4609V35.0224H56.9025V31.752Z" fill="#353232"/>
<path d="M73.6095 31.752H70.168V35.0224H73.6095V31.752Z" fill="#353232"/>
<path d="M76.9494 31.752H73.5078V35.0224H76.9494V31.752Z" fill="#353232"/>
<path d="M80.2931 31.752H76.8516V35.0224H80.2931V31.752Z" fill="#353232"/>
<path d="M86.9767 31.752H83.5352V35.0224H86.9767V31.752Z" fill="#353232"/>
<path d="M90.3166 31.752H86.875V35.0224H90.3166V31.752Z" fill="#353232"/>
<path d="M3.44157 34.9258H0V38.1962H3.44157V34.9258Z" fill="#353232"/>
<path d="M6.78141 34.9258H3.33984V38.1962H6.78141V34.9258Z" fill="#353232"/>
<path d="M13.465 34.9258H10.0234V38.1962H13.465V34.9258Z" fill="#353232"/>
<path d="M20.1486 34.9258H16.707V38.1962H20.1486V34.9258Z" fill="#353232"/>
<path d="M26.8283 34.9258H23.3867V38.1962H26.8283V34.9258Z" fill="#353232"/>
<path d="M30.172 34.9258H26.7305V38.1962H30.172V34.9258Z" fill="#353232"/>
<path d="M33.5119 34.9258H30.0703V38.1962H33.5119V34.9258Z" fill="#353232"/>
<path d="M40.1955 34.9258H36.7539V38.1962H40.1955V34.9258Z" fill="#353232"/>
<path d="M46.8791 34.9258H43.4375V38.1962H46.8791V34.9258Z" fill="#353232"/>
<path d="M50.2189 34.9258H46.7773V38.1962H50.2189V34.9258Z" fill="#353232"/>
<path d="M56.9025 34.9258H53.4609V38.1962H56.9025V34.9258Z" fill="#353232"/>
<path d="M70.2697 34.9258H66.8281V38.1962H70.2697V34.9258Z" fill="#353232"/>
<path d="M73.6095 34.9258H70.168V38.1962H73.6095V34.9258Z" fill="#353232"/>
<path d="M76.9494 34.9258H73.5078V38.1962H76.9494V34.9258Z" fill="#353232"/>
<path d="M80.2931 34.9258H76.8516V38.1962H80.2931V34.9258Z" fill="#353232"/>
<path d="M86.9767 34.9258H83.5352V38.1962H86.9767V34.9258Z" fill="#353232"/>
<path d="M93.6603 34.9258H90.2188V38.1962H93.6603V34.9258Z" fill="#353232"/>
<path d="M3.44157 38.1016H0V41.372H3.44157V38.1016Z" fill="#353232"/>
<path d="M10.1252 38.1016H6.68359V41.372H10.1252V38.1016Z" fill="#353232"/>
<path d="M16.8088 38.1016H13.3672V41.372H16.8088V38.1016Z" fill="#353232"/>
<path d="M23.4884 38.1016H20.0469V41.372H23.4884V38.1016Z" fill="#353232"/>
<path d="M43.5392 38.1016H40.0977V41.372H43.5392V38.1016Z" fill="#353232"/>
<path d="M46.8791 38.1016H43.4375V41.372H46.8791V38.1016Z" fill="#353232"/>
<path d="M53.5588 38.1016H50.1172V41.372H53.5588V38.1016Z" fill="#353232"/>
<path d="M56.9025 38.1016H53.4609V41.372H56.9025V38.1016Z" fill="#353232"/>
<path d="M60.2423 38.1016H56.8008V41.372H60.2423V38.1016Z" fill="#353232"/>
<path d="M63.5861 38.1016H60.1445V41.372H63.5861V38.1016Z" fill="#353232"/>
<path d="M66.9259 38.1016H63.4844V41.372H66.9259V38.1016Z" fill="#353232"/>
<path d="M73.6095 38.1016H70.168V41.372H73.6095V38.1016Z" fill="#353232"/>
<path d="M80.2931 38.1016H76.8516V41.372H80.2931V38.1016Z" fill="#353232"/>
<path d="M93.6603 38.1016H90.2188V41.372H93.6603V38.1016Z" fill="#353232"/>
<path d="M97.0002 38.1016H93.5586V41.372H97.0002V38.1016Z" fill="#353232"/>
<path d="M3.44157 41.2773H0V44.5477H3.44157V41.2773Z" fill="#353232"/>
<path d="M16.8088 41.2773H13.3672V44.5477H16.8088V41.2773Z" fill="#353232"/>
<path d="M26.8283 41.2773H23.3867V44.5477H26.8283V41.2773Z" fill="#353232"/>
<path d="M30.172 41.2773H26.7305V44.5477H30.172V41.2773Z" fill="#353232"/>
<path d="M33.5119 41.2773H30.0703V44.5477H33.5119V41.2773Z" fill="#353232"/>
<path d="M43.5392 41.2773H40.0977V44.5477H43.5392V41.2773Z" fill="#353232"/>
<path d="M50.2189 41.2773H46.7773V44.5477H50.2189V41.2773Z" fill="#353232"/>
<path d="M53.5588 41.2773H50.1172V44.5477H53.5588V41.2773Z" fill="#353232"/>
<path d="M56.9025 41.2773H53.4609V44.5477H56.9025V41.2773Z" fill="#353232"/>
<path d="M60.2423 41.2773H56.8008V44.5477H60.2423V41.2773Z" fill="#353232"/>
<path d="M63.5822 41.2773H60.1406V44.5477H63.5822V41.2773Z" fill="#353232"/>
<path d="M66.9259 41.2773H63.4844V44.5477H66.9259V41.2773Z" fill="#353232"/>
<path d="M73.6095 41.2773H70.168V44.5477H73.6095V41.2773Z" fill="#353232"/>
<path d="M76.9494 41.2773H73.5078V44.5477H76.9494V41.2773Z" fill="#353232"/>
<path d="M83.633 41.2773H80.1914V44.5477H83.633V41.2773Z" fill="#353232"/>
<path d="M86.9767 41.2773H83.5352V44.5477H86.9767V41.2773Z" fill="#353232"/>
<path d="M93.6603 41.2773H90.2188V44.5477H93.6603V41.2773Z" fill="#353232"/>
<path d="M97.0002 41.2773H93.5586V44.5477H97.0002V41.2773Z" fill="#353232"/>
<path d="M3.44157 44.4531H0V47.7235H3.44157V44.4531Z" fill="#353232"/>
<path d="M23.4884 44.4531H20.0469V47.7235H23.4884V44.4531Z" fill="#353232"/>
<path d="M26.8283 44.4531H23.3867V47.7235H26.8283V44.4531Z" fill="#353232"/>
<path d="M33.5119 44.4531H30.0703V47.7235H33.5119V44.4531Z" fill="#353232"/>
<path d="M40.1955 44.4531H36.7539V47.7235H40.1955V44.4531Z" fill="#353232"/>
<path d="M46.8791 44.4531H43.4375V47.7235H46.8791V44.4531Z" fill="#353232"/>
<path d="M76.9494 44.4531H73.5078V47.7235H76.9494V44.4531Z" fill="#353232"/>
<path d="M80.2931 44.4531H76.8516V47.7235H80.2931V44.4531Z" fill="#353232"/>
<path d="M10.1252 47.627H6.68359V50.8974H10.1252V47.627Z" fill="#353232"/>
<path d="M13.465 47.627H10.0234V50.8974H13.465V47.627Z" fill="#353232"/>
<path d="M16.8088 47.627H13.3672V50.8974H16.8088V47.627Z" fill="#353232"/>
<path d="M20.1486 47.627H16.707V50.8974H20.1486V47.627Z" fill="#353232"/>
<path d="M30.172 47.627H26.7305V50.8974H30.172V47.627Z" fill="#353232"/>
<path d="M33.5119 47.627H30.0703V50.8974H33.5119V47.627Z" fill="#353232"/>
<path d="M36.8556 47.627H33.4141V50.8974H36.8556V47.627Z" fill="#353232"/>
<path d="M40.1955 47.627H36.7539V50.8974H40.1955V47.627Z" fill="#353232"/>
<path d="M46.8791 47.627H43.4375V50.8974H46.8791V47.627Z" fill="#353232"/>
<path d="M50.2189 47.627H46.7773V50.8974H50.2189V47.627Z" fill="#353232"/>
<path d="M56.9025 47.627H53.4609V50.8974H56.9025V47.627Z" fill="#353232"/>
<path d="M70.2697 47.627H66.8281V50.8974H70.2697V47.627Z" fill="#353232"/>
<path d="M76.9494 47.627H73.5078V50.8974H76.9494V47.627Z" fill="#353232"/>
<path d="M83.633 47.627H80.1914V50.8974H83.633V47.627Z" fill="#353232"/>
<path d="M86.9767 47.627H83.5352V50.8974H86.9767V47.627Z" fill="#353232"/>
<path d="M3.44157 50.8027H0V54.0731H3.44157V50.8027Z" fill="#353232"/>
<path d="M6.78141 50.8027H3.33984V54.0731H6.78141V50.8027Z" fill="#353232"/>
<path d="M10.1252 50.8027H6.68359V54.0731H10.1252V50.8027Z" fill="#353232"/>
<path d="M16.8088 50.8027H13.3672V54.0731H16.8088V50.8027Z" fill="#353232"/>
<path d="M20.1486 50.8027H16.707V54.0731H20.1486V50.8027Z" fill="#353232"/>
<path d="M23.4884 50.8027H20.0469V54.0731H23.4884V50.8027Z" fill="#353232"/>
<path d="M26.8283 50.8027H23.3867V54.0731H26.8283V50.8027Z" fill="#353232"/>
<path d="M36.8556 50.8027H33.4141V54.0731H36.8556V50.8027Z" fill="#353232"/>
<path d="M43.5392 50.8027H40.0977V54.0731H43.5392V50.8027Z" fill="#353232"/>
<path d="M50.2189 50.8027H46.7773V54.0731H50.2189V50.8027Z" fill="#353232"/>
<path d="M56.9025 50.8027H53.4609V54.0731H56.9025V50.8027Z" fill="#353232"/>
<path d="M60.2423 50.8027H56.8008V54.0731H60.2423V50.8027Z" fill="#353232"/>
<path d="M73.6095 50.8027H70.168V54.0731H73.6095V50.8027Z" fill="#353232"/>
<path d="M86.9767 50.8027H83.5352V54.0731H86.9767V50.8027Z" fill="#353232"/>
<path d="M90.3166 50.8027H86.875V54.0731H90.3166V50.8027Z" fill="#353232"/>
<path d="M3.44157 53.9766H0V57.247H3.44157V53.9766Z" fill="#353232"/>
<path d="M10.1252 53.9766H6.68359V57.247H10.1252V53.9766Z" fill="#353232"/>
<path d="M26.8283 53.9766H23.3867V57.247H26.8283V53.9766Z" fill="#353232"/>
<path d="M46.8791 53.9766H43.4375V57.247H46.8791V53.9766Z" fill="#353232"/>
<path d="M53.5588 53.9766H50.1172V57.247H53.5588V53.9766Z" fill="#353232"/>
<path d="M60.2423 53.9766H56.8008V57.247H60.2423V53.9766Z" fill="#353232"/>
<path d="M66.9259 53.9766H63.4844V57.247H66.9259V53.9766Z" fill="#353232"/>
<path d="M70.2697 53.9766H66.8281V57.247H70.2697V53.9766Z" fill="#353232"/>
<path d="M76.9494 53.9766H73.5078V57.247H76.9494V53.9766Z" fill="#353232"/>
<path d="M80.2931 53.9766H76.8516V57.247H80.2931V53.9766Z" fill="#353232"/>
<path d="M83.633 53.9766H80.1914V57.247H83.633V53.9766Z" fill="#353232"/>
<path d="M90.3166 53.9766H86.875V57.247H90.3166V53.9766Z" fill="#353232"/>
<path d="M93.6603 53.9766H90.2188V57.247H93.6603V53.9766Z" fill="#353232"/>
<path d="M97.0002 53.9766H93.5586V57.247H97.0002V53.9766Z" fill="#353232"/>
<path d="M3.44157 57.1543H0V60.4247H3.44157V57.1543Z" fill="#353232"/>
<path d="M10.1252 57.1543H6.68359V60.4247H10.1252V57.1543Z" fill="#353232"/>
<path d="M13.465 57.1543H10.0234V60.4247H13.465V57.1543Z" fill="#353232"/>
<path d="M16.8088 57.1543H13.3672V60.4247H16.8088V57.1543Z" fill="#353232"/>
<path d="M23.4884 57.1543H20.0469V60.4247H23.4884V57.1543Z" fill="#353232"/>
<path d="M36.8556 57.1543H33.4141V60.4247H36.8556V57.1543Z" fill="#353232"/>
<path d="M40.1955 57.1543H36.7539V60.4247H40.1955V57.1543Z" fill="#353232"/>
<path d="M43.5392 57.1543H40.0977V60.4247H43.5392V57.1543Z" fill="#353232"/>
<path d="M50.2189 57.1543H46.7773V60.4247H50.2189V57.1543Z" fill="#353232"/>
<path d="M53.5588 57.1543H50.1172V60.4247H53.5588V57.1543Z" fill="#353232"/>
<path d="M56.9025 57.1543H53.4609V60.4247H56.9025V57.1543Z" fill="#353232"/>
<path d="M60.2423 57.1543H56.8008V60.4247H60.2423V57.1543Z" fill="#353232"/>
<path d="M76.9494 57.1543H73.5078V60.4247H76.9494V57.1543Z" fill="#353232"/>
<path d="M80.2931 57.1523H76.8516V60.4227H80.2931V57.1523Z" fill="#353232"/>
<path d="M3.44157 60.3281H0V63.5985H3.44157V60.3281Z" fill="#353232"/>
<path d="M13.465 60.3281H10.0234V63.5985H13.465V60.3281Z" fill="#353232"/>
<path d="M20.1486 60.3281H16.707V63.5985H20.1486V60.3281Z" fill="#353232"/>
<path d="M30.172 60.3281H26.7305V63.5985H30.172V60.3281Z" fill="#353232"/>
<path d="M33.5119 60.3281H30.0703V63.5985H33.5119V60.3281Z" fill="#353232"/>
<path d="M46.8791 60.3281H43.4375V63.5985H46.8791V60.3281Z" fill="#353232"/>
<path d="M50.2189 60.3281H46.7773V63.5985H50.2189V60.3281Z" fill="#353232"/>
<path d="M53.5588 60.3281H50.1172V63.5985H53.5588V60.3281Z" fill="#353232"/>
<path d="M76.9494 60.3281H73.5078V63.5985H76.9494V60.3281Z" fill="#353232"/>
<path d="M83.633 60.3281H80.1914V63.5985H83.633V60.3281Z" fill="#353232"/>
<path d="M93.6603 60.3281H90.2188V63.5985H93.6603V60.3281Z" fill="#353232"/>
<path d="M97.0002 60.3281H93.5586V63.5985H97.0002V60.3281Z" fill="#353232"/>
<path d="M3.44157 63.5039H0V66.7743H3.44157V63.5039Z" fill="#353232"/>
<path d="M16.8088 63.5039H13.3672V66.7743H16.8088V63.5039Z" fill="#353232"/>
<path d="M20.1486 63.5039H16.707V66.7743H20.1486V63.5039Z" fill="#353232"/>
<path d="M23.4884 63.5039H20.0469V66.7743H23.4884V63.5039Z" fill="#353232"/>
<path d="M26.8283 63.5039H23.3867V66.7743H26.8283V63.5039Z" fill="#353232"/>
<path d="M40.1955 63.5039H36.7539V66.7743H40.1955V63.5039Z" fill="#353232"/>
<path d="M43.5392 63.5039H40.0977V66.7743H43.5392V63.5039Z" fill="#353232"/>
<path d="M46.8791 63.5039H43.4375V66.7743H46.8791V63.5039Z" fill="#353232"/>
<path d="M50.2189 63.5039H46.7773V66.7743H50.2189V63.5039Z" fill="#353232"/>
<path d="M53.5588 63.5039H50.1172V66.7743H53.5588V63.5039Z" fill="#353232"/>
<path d="M56.9025 63.5039H53.4609V66.7743H56.9025V63.5039Z" fill="#353232"/>
<path d="M60.2423 63.5039H56.8008V66.7743H60.2423V63.5039Z" fill="#353232"/>
<path d="M63.5822 63.5039H60.1406V66.7743H63.5822V63.5039Z" fill="#353232"/>
<path d="M70.2697 63.5039H66.8281V66.7743H70.2697V63.5039Z" fill="#353232"/>
<path d="M73.6095 63.5039H70.168V66.7743H73.6095V63.5039Z" fill="#353232"/>
<path d="M76.9494 63.5039H73.5078V66.7743H76.9494V63.5039Z" fill="#353232"/>
<path d="M80.2931 63.5039H76.8516V66.7743H80.2931V63.5039Z" fill="#353232"/>
<path d="M83.633 63.5039H80.1914V66.7743H83.633V63.5039Z" fill="#353232"/>
<path d="M86.9767 63.5039H83.5352V66.7743H86.9767V63.5039Z" fill="#353232"/>
<path d="M90.3166 63.5039H86.875V66.7743H90.3166V63.5039Z" fill="#353232"/>
<path d="M97.0002 63.5039H93.5586V66.7743H97.0002V63.5039Z" fill="#353232"/>
<path d="M30.172 66.6777H26.7305V69.9481H30.172V66.6777Z" fill="#353232"/>
<path d="M46.8791 66.6777H43.4375V69.9481H46.8791V66.6777Z" fill="#353232"/>
<path d="M53.5588 66.6777H50.1172V69.9481H53.5588V66.6777Z" fill="#353232"/>
<path d="M56.9025 66.6777H53.4609V69.9481H56.9025V66.6777Z" fill="#353232"/>
<path d="M60.2423 66.6777H56.8008V69.9481H60.2423V66.6777Z" fill="#353232"/>
<path d="M63.5861 66.6777H60.1445V69.9481H63.5861V66.6777Z" fill="#353232"/>
<path d="M66.9259 66.6777H63.4844V69.9481H66.9259V66.6777Z" fill="#353232"/>
<path d="M70.2697 66.6777H66.8281V69.9481H70.2697V66.6777Z" fill="#353232"/>
<path d="M83.633 66.6777H80.1914V69.9481H83.633V66.6777Z" fill="#353232"/>
<path d="M86.9767 66.6777H83.5352V69.9481H86.9767V66.6777Z" fill="#353232"/>
<path d="M97.0002 66.6777H93.5586V69.9481H97.0002V66.6777Z" fill="#353232"/>
<path d="M30.172 69.8535H26.7305V73.1239H30.172V69.8535Z" fill="#353232"/>
<path d="M40.1955 69.8535H36.7539V73.1239H40.1955V69.8535Z" fill="#353232"/>
<path d="M43.5392 69.8535H40.0977V73.1239H43.5392V69.8535Z" fill="#353232"/>
<path d="M46.8791 69.8535H43.4375V73.1239H46.8791V69.8535Z" fill="#353232"/>
<path d="M50.2189 69.8535H46.7773V73.1239H50.2189V69.8535Z" fill="#353232"/>
<path d="M53.5588 69.8535H50.1172V73.1239H53.5588V69.8535Z" fill="#353232"/>
<path d="M63.5822 69.8535H60.1406V73.1239H63.5822V69.8535Z" fill="#353232"/>
<path d="M66.9259 69.8535H63.4844V73.1239H66.9259V69.8535Z" fill="#353232"/>
<path d="M70.2697 69.8535H66.8281V73.1239H70.2697V69.8535Z" fill="#353232"/>
<path d="M76.9494 69.8535H73.5078V73.1239H76.9494V69.8535Z" fill="#353232"/>
<path d="M83.633 69.8535H80.1914V73.1239H83.633V69.8535Z" fill="#353232"/>
<path d="M30.172 73.0273H26.7305V76.2977H30.172V73.0273Z" fill="#353232"/>
<path d="M36.8556 73.0273H33.4141V76.2977H36.8556V73.0273Z" fill="#353232"/>
<path d="M43.5392 73.0273H40.0977V76.2977H43.5392V73.0273Z" fill="#353232"/>
<path d="M50.2189 73.0273H46.7773V76.2977H50.2189V73.0273Z" fill="#353232"/>
<path d="M66.9259 73.0273H63.4844V76.2977H66.9259V73.0273Z" fill="#353232"/>
<path d="M70.2697 73.0273H66.8281V76.2977H70.2697V73.0273Z" fill="#353232"/>
<path d="M83.633 73.0273H80.1914V76.2977H83.633V73.0273Z" fill="#353232"/>
<path d="M86.9767 73.0273H83.5352V76.2977H86.9767V73.0273Z" fill="#353232"/>
<path d="M30.172 76.2031H26.7305V79.4735H30.172V76.2031Z" fill="#353232"/>
<path d="M33.5119 76.2031H30.0703V79.4735H33.5119V76.2031Z" fill="#353232"/>
<path d="M40.1955 76.2031H36.7539V79.4735H40.1955V76.2031Z" fill="#353232"/>
<path d="M46.8791 76.2031H43.4375V79.4735H46.8791V76.2031Z" fill="#353232"/>
<path d="M53.5588 76.2031H50.1172V79.4735H53.5588V76.2031Z" fill="#353232"/>
<path d="M63.5822 76.2031H60.1406V79.4735H63.5822V76.2031Z" fill="#353232"/>
<path d="M70.2697 76.2031H66.8281V79.4735H70.2697V76.2031Z" fill="#353232"/>
<path d="M73.6095 76.2031H70.168V79.4735H73.6095V76.2031Z" fill="#353232"/>
<path d="M76.9494 76.2031H73.5078V79.4735H76.9494V76.2031Z" fill="#353232"/>
<path d="M80.2931 76.2031H76.8516V79.4735H80.2931V76.2031Z" fill="#353232"/>
<path d="M83.633 76.2031H80.1914V79.4735H83.633V76.2031Z" fill="#353232"/>
<path d="M86.9767 76.2031H83.5352V79.4735H86.9767V76.2031Z" fill="#353232"/>
<path d="M90.3166 76.2031H86.875V79.4735H90.3166V76.2031Z" fill="#353232"/>
<path d="M93.6603 76.2031H90.2188V79.4735H93.6603V76.2031Z" fill="#353232"/>
<path d="M97.0002 76.2031H93.5586V79.4735H97.0002V76.2031Z" fill="#353232"/>
<path d="M30.172 79.3789H26.7305V82.6493H30.172V79.3789Z" fill="#353232"/>
<path d="M33.5119 79.3789H30.0703V82.6493H33.5119V79.3789Z" fill="#353232"/>
<path d="M36.8556 79.3789H33.4141V82.6493H36.8556V79.3789Z" fill="#353232"/>
<path d="M40.1955 79.3789H36.7539V82.6493H40.1955V79.3789Z" fill="#353232"/>
<path d="M53.5588 79.3789H50.1172V82.6493H53.5588V79.3789Z" fill="#353232"/>
<path d="M56.9025 79.3789H53.4609V82.6493H56.9025V79.3789Z" fill="#353232"/>
<path d="M60.2423 79.3789H56.8008V82.6493H60.2423V79.3789Z" fill="#353232"/>
<path d="M63.5861 79.3789H60.1445V82.6493H63.5861V79.3789Z" fill="#353232"/>
<path d="M66.9259 79.3789H63.4844V82.6493H66.9259V79.3789Z" fill="#353232"/>
<path d="M70.2697 79.3789H66.8281V82.6493H70.2697V79.3789Z" fill="#353232"/>
<path d="M73.6095 79.3789H70.168V82.6493H73.6095V79.3789Z" fill="#353232"/>
<path d="M80.2931 79.3789H76.8516V82.6493H80.2931V79.3789Z" fill="#353232"/>
<path d="M86.9767 79.3789H83.5352V82.6493H86.9767V79.3789Z" fill="#353232"/>
<path d="M30.172 82.5547H26.7305V85.8251H30.172V82.5547Z" fill="#353232"/>
<path d="M36.8556 82.5547H33.4141V85.8251H36.8556V82.5547Z" fill="#353232"/>
<path d="M40.1955 82.5547H36.7539V85.8251H40.1955V82.5547Z" fill="#353232"/>
<path d="M43.5392 82.5547H40.0977V85.8251H43.5392V82.5547Z" fill="#353232"/>
<path d="M50.2189 82.5547H46.7773V85.8251H50.2189V82.5547Z" fill="#353232"/>
<path d="M60.2423 82.5547H56.8008V85.8251H60.2423V82.5547Z" fill="#353232"/>
<path d="M63.5822 82.5547H60.1406V85.8251H63.5822V82.5547Z" fill="#353232"/>
<path d="M66.9259 82.5547H63.4844V85.8251H66.9259V82.5547Z" fill="#353232"/>
<path d="M70.2697 82.5547H66.8281V85.8251H70.2697V82.5547Z" fill="#353232"/>
<path d="M73.6095 82.5547H70.168V85.8251H73.6095V82.5547Z" fill="#353232"/>
<path d="M76.9494 82.5547H73.5078V85.8251H76.9494V82.5547Z" fill="#353232"/>
<path d="M80.2931 82.5547H76.8516V85.8251H80.2931V82.5547Z" fill="#353232"/>
<path d="M83.633 82.5547H80.1914V85.8251H83.633V82.5547Z" fill="#353232"/>
<path d="M86.9767 82.5547H83.5352V85.8251H86.9767V82.5547Z" fill="#353232"/>
<path d="M90.3166 82.5547H86.875V85.8251H90.3166V82.5547Z" fill="#353232"/>
<path d="M93.6603 82.5547H90.2188V85.8251H93.6603V82.5547Z" fill="#353232"/>
<path d="M30.172 85.7285H26.7305V88.9989H30.172V85.7285Z" fill="#353232"/>
<path d="M33.5119 85.7285H30.0703V88.9989H33.5119V85.7285Z" fill="#353232"/>
<path d="M40.1955 85.7285H36.7539V88.9989H40.1955V85.7285Z" fill="#353232"/>
<path d="M56.9025 85.7285H53.4609V88.9989H56.9025V85.7285Z" fill="#353232"/>
<path d="M66.9259 85.7285H63.4844V88.9989H66.9259V85.7285Z" fill="#353232"/>
<path d="M70.2697 85.7285H66.8281V88.9989H70.2697V85.7285Z" fill="#353232"/>
<path d="M73.6095 85.7285H70.168V88.9989H73.6095V85.7285Z" fill="#353232"/>
<path d="M83.633 85.7285H80.1914V88.9989H83.633V85.7285Z" fill="#353232"/>
<path d="M93.6603 85.7285H90.2188V88.9989H93.6603V85.7285Z" fill="#353232"/>
<path d="M33.5119 88.9043H30.0703V92.1747H33.5119V88.9043Z" fill="#353232"/>
<path d="M36.8556 88.9043H33.4141V92.1747H36.8556V88.9043Z" fill="#353232"/>
<path d="M40.1955 88.9043H36.7539V92.1747H40.1955V88.9043Z" fill="#353232"/>
<path d="M43.5392 88.9043H40.0977V92.1747H43.5392V88.9043Z" fill="#353232"/>
<path d="M46.8791 88.9043H43.4375V92.1747H46.8791V88.9043Z" fill="#353232"/>
<path d="M56.9025 88.9043H53.4609V92.1747H56.9025V88.9043Z" fill="#353232"/>
<path d="M66.9259 88.9043H63.4844V92.1747H66.9259V88.9043Z" fill="#353232"/>
<path d="M73.6095 88.9043H70.168V92.1747H73.6095V88.9043Z" fill="#353232"/>
<path d="M83.633 88.9062H80.1914V92.1767H83.633V88.9062Z" fill="#353232"/>
<path d="M86.9767 88.9062H83.5352V92.1767H86.9767V88.9062Z" fill="#353232"/>
<path d="M90.3166 88.9062H86.875V92.1767H90.3166V88.9062Z" fill="#353232"/>
<path d="M7.51798 22.226H16.0384C20.048 22.226 23.3893 19.0509 23.3893 15.2407V7.14409C23.3893 3.17515 20.048 0 15.8713 0H7.35092C3.34133 0 0 3.17515 0 6.98533V15.082C0 19.0509 3.34133 22.226 7.51798 22.226ZM20.048 7.62036V14.6057C20.048 16.987 17.8761 19.0509 15.3701 19.0509H8.01918C5.34612 19.0509 3.34133 17.1458 3.34133 14.6057V7.62036C3.34133 5.239 5.51319 3.17515 8.01918 3.17515H15.3701C18.0432 3.17515 20.048 5.08024 20.048 7.62036Z" fill="#353232"/>
<path d="M81.0258 22.226H89.5462C93.5558 22.226 96.8971 19.0509 96.8971 15.2407V7.14409C96.8971 3.17515 93.5558 0 89.3791 0H80.8587C76.8491 0 73.5078 3.17515 73.5078 6.98533V15.082C73.5078 19.0509 76.8491 22.226 81.0258 22.226ZM93.5558 7.62036V14.6057C93.5558 16.987 91.3839 19.0509 88.8779 19.0509H81.527C78.8539 19.0509 76.8491 17.1458 76.8491 14.6057V7.62036C76.8491 5.239 79.021 3.17515 81.527 3.17515H88.8779C91.551 3.17515 93.5558 5.08024 93.5558 7.62036Z" fill="#353232"/>
<path d="M7.51798 92.0796H16.0384C20.048 92.0796 23.3893 88.9044 23.3893 85.0942V76.9976C23.3893 73.0287 20.048 69.8535 15.8713 69.8535H7.35092C3.34133 69.8535 0 73.0287 0 76.8388V84.9355C0 88.9044 3.34133 92.0796 7.51798 92.0796ZM20.048 77.4739V84.4592C20.048 86.8406 17.8761 88.9044 15.3701 88.9044H8.01918C5.34612 88.9044 3.34133 86.9993 3.34133 84.4592V77.4739C3.34133 75.0925 5.51319 73.0287 8.01918 73.0287H15.3701C18.0432 73.0287 20.048 74.9338 20.048 77.4739Z" fill="#353232"/>
<path d="M16.7037 6.35156H6.67969V15.877H16.7037V6.35156Z" fill="#353232"/>
<path d="M90.2193 6.35156H80.1953V15.877H90.2193V6.35156Z" fill="#353232"/>
<path d="M16.7037 76.2051H6.67969V85.7305H16.7037V76.2051Z" fill="#353232"/>
</svg>
