<svg width="26" height="26" viewBox="0 0 26 26" fill="none" xmlns="http://www.w3.org/2000/svg">
<path fill-rule="evenodd" clip-rule="evenodd" d="M17.5429 18.8568L24.4154 25.7284C24.7775 26.0905 25.3662 26.0905 25.7284 25.7284C26.0905 25.3662 26.0905 24.7775 25.7284 24.4154L18.8568 17.5429C20.4169 15.6866 21.3575 13.2918 21.3575 10.6788C21.3575 4.78501 16.5725 0 10.6788 0C4.78501 0 0 4.78501 0 10.6788C0 16.5725 4.78501 21.3575 10.6788 21.3575C13.2918 21.3575 15.6866 20.4169 17.5429 18.8568ZM10.6788 1.85718C15.5473 1.85718 19.5003 5.81017 19.5003 10.6788C19.5003 15.5473 15.5473 19.5003 10.6788 19.5003C5.81017 19.5003 1.85718 15.5473 1.85718 10.6788C1.85718 5.81017 5.81017 1.85718 10.6788 1.85718Z" fill="#7C7C7C"/>
</svg>
