<svg width="52" height="52" viewBox="0 0 52 52" fill="none" xmlns="http://www.w3.org/2000/svg">
<circle cx="26" cy="26" r="26" fill="url(#paint0_linear_73_76)"/>
<path d="M35.9749 22.6084C35.6792 19.3584 33.3131 17 30.3472 17C28.6135 17 27.0089 17.8003 25.9567 19.1218C24.9227 17.7864 23.3731 17 21.6594 17C18.7035 17 16.3416 19.3445 16.0342 22.5774C16.0025 22.7871 15.9251 23.5351 16.2059 24.7066C16.6241 26.4385 17.5864 28.0113 18.9977 29.2635L25.426 34.7969C25.5826 34.9323 25.7801 35 25.9759 35C26.1708 35 26.3666 34.9331 26.5232 34.7993L33.0607 29.2146C34.0254 28.2291 35.3593 26.6889 35.8041 24.6927C36.0883 23.4169 35.9816 22.6427 35.9749 22.6084Z" fill="white"/>
<defs>
<linearGradient id="paint0_linear_73_76" x1="28.2533" y1="-39.7359" x2="-31.4329" y2="-2.38452" gradientUnits="userSpaceOnUse">
<stop stop-color="#FF7A40"/>
<stop offset="0.988999" stop-color="#FF4E00"/>
</linearGradient>
</defs>
</svg>
