<svg width="52" height="52" viewBox="0 0 52 52" fill="none" xmlns="http://www.w3.org/2000/svg">
<circle cx="26" cy="26" r="26" fill="url(#paint0_linear_73_78)"/>
<path d="M36.3437 23.7597H34.635C34.4297 22.9567 34.1107 22.1903 33.689 21.479L34.899 20.2727C35.0237 20.148 35.0897 19.983 35.0897 19.807C35.0897 19.631 35.0237 19.466 34.899 19.3413L32.6586 17.101C32.402 16.8443 31.984 16.8443 31.731 17.101L30.521 18.311C29.8097 17.8893 29.0397 17.5703 28.2403 17.365V15.6563C28.2403 15.2933 27.947 15 27.584 15H24.416C24.053 15 23.7597 15.2933 23.7597 15.6563V17.365C22.9603 17.5703 22.194 17.8893 21.479 18.311L20.269 17.101C20.016 16.8443 19.598 16.8443 19.3414 17.101L17.101 19.3413C16.9763 19.466 16.9103 19.631 16.9103 19.807C16.9103 19.983 16.9763 20.148 17.101 20.269L18.311 21.479C17.8893 22.1903 17.5703 22.9567 17.365 23.7597H15.6563C15.2934 23.7597 15 24.053 15 24.416V27.584C15 27.947 15.2934 28.2403 15.6563 28.2403H17.365C17.5703 29.0433 17.8893 29.8097 18.311 30.521L17.101 31.7273C16.9763 31.852 16.9103 32.017 16.9103 32.193C16.9103 32.369 16.9763 32.534 17.101 32.6587L19.3414 34.899C19.598 35.1557 20.016 35.1557 20.269 34.899L21.479 33.689C22.194 34.1107 22.9603 34.4297 23.7597 34.635V36.3437C23.7597 36.7067 24.053 37 24.416 37H27.584C27.947 37 28.2403 36.7067 28.2403 36.3437V34.635C29.0397 34.4297 29.806 34.1107 30.521 33.689L31.731 34.899C31.984 35.1557 32.402 35.1557 32.6586 34.899L34.899 32.6587C35.0237 32.534 35.0897 32.369 35.0897 32.193C35.0897 32.017 35.0237 31.852 34.899 31.731L33.689 30.521C34.1107 29.8097 34.4297 29.0433 34.635 28.2403H36.3437C36.7066 28.2403 37 27.947 37 27.584V24.416C37 24.053 36.7066 23.7597 36.3437 23.7597ZM26 31.1333L25.934 31.1297C24.57 31.115 23.294 30.5687 22.337 29.5933C21.3873 28.629 20.8667 27.353 20.8667 26C20.8667 23.1693 23.1693 20.8667 26 20.8667C28.8307 20.8667 31.1333 23.1693 31.1333 26C31.1333 27.353 30.6127 28.629 29.663 29.597C28.706 30.5687 27.43 31.115 26.0403 31.1333H26Z" fill="white"/>
<path d="M28.9194 24.0881L27.9527 23.0837C27.8453 22.9721 27.6691 22.9721 27.5616 23.0837L25.4299 25.2986L24.4384 24.2684C24.3337 24.1625 24.1519 24.1625 24.0473 24.2684L23.0806 25.2728C22.9731 25.3845 22.9731 25.5647 23.0806 25.6764L25.2343 27.9142C25.2866 27.9685 25.3555 28 25.4299 28C25.5015 28 25.5731 27.9685 25.6227 27.9142L28.9194 24.4916C29.0269 24.38 29.0269 24.1997 28.9194 24.0881Z" fill="white"/>
<defs>
<linearGradient id="paint0_linear_73_78" x1="28.2533" y1="-39.7359" x2="-31.4329" y2="-2.38452" gradientUnits="userSpaceOnUse">
<stop stop-color="#FF7A40"/>
<stop offset="0.988999" stop-color="#FF4E00"/>
</linearGradient>
</defs>
</svg>
