<svg width="52" height="52" viewBox="0 0 52 52" fill="none" xmlns="http://www.w3.org/2000/svg">
<circle cx="26" cy="26" r="26" fill="url(#paint0_linear_73_79)"/>
<path fill-rule="evenodd" clip-rule="evenodd" d="M36 26C36 31.5228 31.5228 36 26 36C20.4771 36 16 31.5228 16 26C16 20.4771 20.4771 16 26 16C31.5228 16 36 20.4771 36 26ZM26 21.75C23.6528 21.75 21.75 23.6528 21.75 26C21.75 28.3472 23.6528 30.25 26 30.25C28.3472 30.25 30.25 28.3472 30.25 26C30.25 23.6528 28.3472 21.75 26 21.75ZM20.25 26C20.25 22.8244 22.8244 20.25 26 20.25C29.1756 20.25 31.75 22.8244 31.75 26C31.75 29.1756 29.1756 31.75 26 31.75C22.8244 31.75 20.25 29.1756 20.25 26ZM26 27C26.5523 27 27 26.5523 27 26C27 25.4477 26.5523 25 26 25C25.4477 25 25 25.4477 25 26C25 26.5523 25.4477 27 26 27Z" fill="white"/>
<defs>
<linearGradient id="paint0_linear_73_79" x1="28.2533" y1="-39.7359" x2="-31.4329" y2="-2.38452" gradientUnits="userSpaceOnUse">
<stop stop-color="#FF7A40"/>
<stop offset="0.988999" stop-color="#FF4E00"/>
</linearGradient>
</defs>
</svg>
