<svg width="53" height="52" viewBox="0 0 53 52" fill="none" xmlns="http://www.w3.org/2000/svg">
<ellipse cx="26.306" cy="26" rx="25.8294" ry="26" fill="white"/>
<path d="M35.603 18.6777H31.9922V17.3277C31.9923 17.1505 31.9573 16.9751 31.8895 16.8118C31.8217 16.6485 31.7224 16.5007 31.5973 16.3769C31.4723 16.2532 31.3241 16.1562 31.1616 16.0915C30.999 16.0269 30.8253 15.9959 30.6507 16.0004H21.6294C21.2162 16.0004 20.8199 16.1662 20.5267 16.4616C20.2335 16.757 20.0673 17.158 20.0643 17.5773V18.7117H16.3977C16.0328 18.7116 15.6824 18.8563 15.4213 19.115C15.1602 19.3736 15.0091 19.7256 15.0003 20.0957V20.5382C14.9817 23.062 15.7658 25.5246 17.2361 27.5603C17.518 27.9606 17.8281 28.3397 18.1639 28.6947C20.1056 30.6934 22.6859 31.9242 25.4414 32.1661V34.9568H21.3387C21.1905 34.9568 21.0483 35.0165 20.9435 35.1229C20.8387 35.2293 20.7798 35.3735 20.7798 35.524C20.7798 35.6744 20.8387 35.8187 20.9435 35.9251C21.0483 36.0314 21.1905 36.0912 21.3387 36.0912H30.6507C30.799 36.0912 30.9411 36.0314 31.046 35.9251C31.1508 35.8187 31.2097 35.6744 31.2097 35.524C31.2097 35.3735 31.1508 35.2293 31.046 35.1229C30.9411 35.0165 30.799 34.9568 30.6507 34.9568H26.5257V32.098C29.3081 31.8669 31.9154 30.6265 33.8702 28.604C34.2099 28.2494 34.5237 27.8702 34.8093 27.4695C36.2753 25.4316 37.0589 22.9705 37.045 20.4474V20.0957C37.0451 19.9056 37.0076 19.7175 36.9346 19.5424C36.8616 19.3673 36.7546 19.2089 36.6201 19.0766C36.4856 18.9443 36.3262 18.8409 36.1515 18.7723C35.9767 18.7038 35.7902 18.6716 35.603 18.6777ZM21.1822 23.6692V17.5773C21.1852 17.4589 21.2335 17.3464 21.3171 17.2637C21.4006 17.1811 21.5127 17.1348 21.6294 17.1349H30.6507C30.7011 17.1349 30.7495 17.1552 30.7851 17.1914C30.8207 17.2275 30.8408 17.2766 30.8408 17.3277V23.6125C30.8743 23.6805 30.6507 30.748 26.1792 30.748C25.6016 30.7727 25.0252 30.6756 24.4864 30.4628C23.9476 30.2499 23.4582 29.926 23.0491 29.5115C21.104 27.4922 21.1822 23.7146 21.1822 23.6692ZM18.0969 26.8342C16.792 25.0036 16.0987 22.7974 16.1182 20.5382V20.0957C16.1182 20.0205 16.1477 19.9484 16.2001 19.8952C16.2525 19.842 16.3236 19.8121 16.3977 19.8121H20.0643V23.6465C20.0643 23.8167 19.9861 27.5716 21.9536 29.9653C20.8295 29.4079 19.8025 28.6684 18.9129 27.7758C18.6103 27.4907 18.3369 27.1752 18.0969 26.8342ZM35.8824 20.5382C35.9101 22.8109 35.2207 25.0329 33.915 26.8796C33.6684 27.2153 33.3955 27.5302 33.0989 27.8212C32.1888 28.7458 31.1351 29.5123 29.98 30.0901C31.2674 28.2187 31.9687 25.9967 31.9922 23.7146V19.8121H35.603C35.6771 19.8121 35.7482 19.842 35.8006 19.8952C35.853 19.9484 35.8824 20.0205 35.8824 20.0957V20.5382Z" fill="#FF4E00"/>
</svg>
