<svg width="53" height="52" viewBox="0 0 53 52" fill="none" xmlns="http://www.w3.org/2000/svg">
<ellipse cx="26.5286" cy="26" rx="25.8294" ry="26" fill="white"/>
<path fill-rule="evenodd" clip-rule="evenodd" d="M22.6634 21.4707C23.0398 21.4707 23.3454 21.8001 23.3454 22.2056V24.7028C23.3454 26.082 24.3829 27.2001 25.6626 27.2001H26.3185V22.9406H25.5315C25.155 22.9406 24.8495 22.6113 24.8495 22.2056C24.8495 21.8001 25.155 21.4707 25.5315 21.4707H28.4695C28.8459 21.4707 29.1515 21.8001 29.1515 22.2056C29.1515 22.6113 28.8459 22.9406 28.4695 22.9406H27.6824V27.2001H28.3383C29.6181 27.2001 30.6555 26.082 30.6555 24.7028V22.2056C30.6555 21.7997 30.9609 21.4707 31.3375 21.4707H33.4361C33.8125 21.4707 34.1181 21.8001 34.1181 22.2056C34.1181 22.6113 33.8125 22.9406 33.4361 22.9406H32.0195V24.7028C32.0195 26.8938 30.3714 28.67 28.3383 28.67H27.6824V31.6479H28.4695C28.8459 31.6479 29.1515 31.9771 29.1515 32.3828C29.1515 32.7884 28.8459 33.1178 28.4695 33.1178H25.5315C25.155 33.1178 24.8495 32.7884 24.8495 32.3828C24.8495 31.9771 25.155 31.6479 25.5315 31.6479H26.3185V28.67H25.6626C23.6296 28.67 21.9814 26.8938 21.9814 24.7028V22.9406H20.5648C20.1884 22.9406 19.8828 22.6113 19.8828 22.2056C19.8828 21.8001 20.1884 21.4707 20.5648 21.4707H22.6634Z" fill="#FF4E00"/>
<circle cx="27" cy="26" r="10.5" stroke="#FF4E00"/>
</svg>
