<svg width="53" height="52" viewBox="0 0 53 52" fill="none" xmlns="http://www.w3.org/2000/svg">
<ellipse cx="26.5286" cy="26" rx="25.8294" ry="26" fill="white"/>
<path d="M23.2833 26.3463C22.2314 26.3463 21.2031 26.0135 20.3285 25.3902C19.4539 24.7668 18.7722 23.8808 18.3697 22.8441C17.9671 21.8075 17.8618 20.6668 18.067 19.5664C18.2723 18.4659 18.7788 17.455 19.5226 16.6616C20.2664 15.8682 21.214 15.3279 22.2457 15.109C23.2774 14.8901 24.3468 15.0025 25.3186 15.4318C26.2904 15.8612 27.121 16.5884 27.7054 17.5213C28.2898 18.4543 28.6017 19.5511 28.6017 20.6731C28.5986 22.1767 28.0373 23.6178 27.0406 24.681C26.0438 25.7441 24.6929 26.3429 23.2833 26.3463ZM23.2833 16.2382C22.4657 16.2382 21.6664 16.4969 20.9866 16.9814C20.3068 17.4659 19.7769 18.1546 19.464 18.9604C19.1511 19.7661 19.0693 20.6528 19.2288 21.5081C19.3883 22.3635 19.782 23.1492 20.3602 23.7659C20.9383 24.3826 21.6749 24.8026 22.4768 24.9728C23.2787 25.1429 24.1099 25.0556 24.8653 24.7218C25.6207 24.3881 26.2663 23.8229 26.7205 23.0977C27.1748 22.3726 27.4172 21.52 27.4172 20.6479C27.4172 19.4784 26.9817 18.3568 26.2064 17.5298C25.4312 16.7028 24.3797 16.2382 23.2833 16.2382Z" fill="#FF4E00"/>
<path d="M29.5141 26.6612C28.8852 26.6769 28.259 26.5698 27.6663 26.3454C27.5885 26.3155 27.517 26.2696 27.4558 26.2102C27.3947 26.1509 27.3451 26.0793 27.3099 25.9995C27.2747 25.9197 27.2546 25.8333 27.2507 25.7453C27.2468 25.6572 27.2592 25.5691 27.2872 25.4862C27.3152 25.4032 27.3583 25.327 27.4139 25.2617C27.4695 25.1965 27.5366 25.1436 27.6114 25.1061C27.6862 25.0685 27.7672 25.0471 27.8498 25.0429C27.9324 25.0388 28.0149 25.052 28.0927 25.0819C28.5452 25.2728 29.0274 25.3714 29.5141 25.3725C30.5305 25.3133 31.4871 24.8408 32.187 24.0523C32.8869 23.2639 33.277 22.2193 33.277 21.1334C33.277 20.0476 32.8869 19.003 32.187 18.2145C31.4871 17.426 30.5305 16.9536 29.5141 16.8944C29.357 16.8944 29.2064 16.8278 29.0953 16.7093C28.9842 16.5909 28.9218 16.4302 28.9218 16.2626C28.9249 16.0961 28.9882 15.9373 29.0987 15.8195C29.2091 15.7017 29.358 15.6341 29.5141 15.6309C30.8395 15.6986 32.0895 16.3079 33.0051 17.3324C33.9206 18.357 34.4313 19.718 34.4313 21.1334C34.4313 22.5488 33.9206 23.9099 33.0051 24.9344C32.0895 25.9589 30.8395 26.5682 29.5141 26.636V26.6612Z" fill="#FF4E00"/>
<path d="M30.5107 37.2877H15.7043C15.4606 37.2891 15.2197 37.2333 14.9986 37.1241C14.7775 37.0149 14.5816 36.855 14.425 36.656C14.2588 36.4598 14.1362 36.2261 14.0665 35.9723C13.9967 35.7185 13.9816 35.4512 14.0223 35.1903C14.3582 33.4701 15.1471 31.8878 16.2965 30.6291C17.1254 29.7565 18.1078 29.0673 19.1872 28.6011C20.2666 28.1349 21.4218 27.9009 22.5863 27.9125H23.3088C25.1922 27.9125 28.7813 29.0876 30.3211 31.1976C31.1902 32.3688 31.8015 33.7333 32.1098 35.1903C32.1589 35.4427 32.1558 35.7036 32.1006 35.9546C32.0453 36.2056 31.9393 36.4406 31.7899 36.6433C31.6356 36.8461 31.4405 37.0093 31.219 37.1208C30.9976 37.2323 30.7555 37.2894 30.5107 37.2877ZM22.7995 29.2013C21.7656 29.17 20.7363 29.3596 19.7721 29.7589C18.8079 30.1581 17.9283 30.759 17.1849 31.5261C16.1773 32.5845 15.4885 33.9395 15.2068 35.4177C15.1928 35.4913 15.1951 35.5673 15.2136 35.6397C15.2321 35.7121 15.2663 35.7789 15.3134 35.8347C15.3581 35.8959 15.4158 35.9449 15.4816 35.9779C15.5475 36.0108 15.6197 36.0267 15.6924 36.0242H30.4988C30.5663 36.0227 30.6328 36.0062 30.694 35.9757C30.7552 35.9453 30.8097 35.9015 30.8542 35.8473C30.8937 35.7923 30.9216 35.7288 30.9359 35.6612C30.9502 35.5936 30.9506 35.5234 30.9371 35.4556C30.6868 34.1969 30.168 33.0166 29.4209 32.0063C28.2364 30.2879 25.0027 29.2013 23.3562 29.2013H22.7995Z" fill="#FF4E00"/>
<path d="M38.3403 36.9606H33.8273C33.6702 36.9606 33.5196 36.894 33.4085 36.7755C33.2975 36.6571 33.2351 36.4964 33.2351 36.3288C33.2351 36.1613 33.2975 36.0006 33.4085 35.8821C33.5196 35.7636 33.6702 35.6971 33.8273 35.6971H38.3403C38.409 35.6998 38.4775 35.6865 38.5409 35.6581C38.6043 35.6297 38.6611 35.587 38.7075 35.5328C38.754 35.4815 38.7888 35.4195 38.8093 35.3516C38.8298 35.2837 38.8355 35.2117 38.826 35.1411C38.5127 33.6378 37.663 32.3236 36.4569 31.477C34.9672 30.5484 33.2885 30.0195 31.5649 29.9355C31.4871 29.9339 31.4104 29.9159 31.3391 29.8826C31.2679 29.8493 31.2035 29.8014 31.1496 29.7416C31.0957 29.6817 31.0533 29.6112 31.025 29.5339C30.9967 29.4566 30.9829 29.3741 30.9845 29.2911C30.9845 29.2087 30.9999 29.1272 31.0298 29.0512C31.0597 28.9753 31.1035 28.9065 31.1587 28.8488C31.2138 28.7912 31.2792 28.7458 31.351 28.7155C31.4228 28.6851 31.4995 28.6703 31.5768 28.672C33.5149 28.7547 35.4034 29.3495 37.0729 30.403C37.8306 30.9213 38.4831 31.5966 38.9918 32.3887C39.5004 33.1809 39.8549 34.0739 40.0342 35.0148C40.0595 35.263 40.0349 35.5141 39.962 35.7513C39.8892 35.9886 39.7697 36.2065 39.6117 36.3907C39.4536 36.5748 39.2606 36.7209 39.0455 36.8191C38.8303 36.9174 38.598 36.9656 38.364 36.9606H38.3403Z" fill="#FF4E00"/>
</svg>
