<svg width="52" height="52" viewBox="0 0 52 52" fill="none" xmlns="http://www.w3.org/2000/svg">
<circle cx="26" cy="26" r="26" fill="white"/>
<path d="M35.5576 24.4272C35.7199 25.1065 35.8039 25.8022 35.8078 26.5007C35.8078 28.3415 35.2619 30.141 34.2391 31.6715C33.2164 33.2021 31.7627 34.395 30.0618 35.0995C28.361 35.8039 26.4895 35.9882 24.6839 35.6291C22.8783 35.27 21.2198 34.3835 19.9181 33.0819C18.6163 31.7803 17.7298 30.1219 17.3707 28.3165C17.0115 26.511 17.1958 24.6397 17.9003 22.939C18.6048 21.2383 19.7979 19.7848 21.3286 18.7621C22.8593 17.7394 24.6589 17.1935 26.4998 17.1935C27.1042 17.1922 27.7071 17.2521 28.2994 17.3723L28.657 16.1806C27.9458 16.0484 27.2231 15.9885 26.4998 16.0018C24.4232 16.0018 22.3931 16.6176 20.6664 17.7712C18.9397 18.9248 17.594 20.5645 16.7993 22.483C16.0045 24.4014 15.7966 26.5124 16.2018 28.549C16.6069 30.5855 17.6069 32.4563 19.0753 33.9246C20.5438 35.3929 22.4146 36.3928 24.4514 36.7979C26.4882 37.203 28.5993 36.9951 30.5179 36.2005C32.4365 35.4058 34.0764 34.0601 35.2301 32.3336C36.3838 30.6071 36.9996 28.5772 36.9996 26.5007C36.9977 25.6985 36.9057 24.899 36.7255 24.1173L35.5576 24.4272Z" fill="#FF4E00"/>
<path d="M31.5886 25.6861C31.645 26.0337 31.6675 26.386 31.6557 26.7379C31.6081 27.7615 31.258 28.748 30.6497 29.5727C30.0414 30.3973 29.2021 31.0231 28.2381 31.3708C27.2741 31.7185 26.2286 31.7727 25.2338 31.5263C24.239 31.2799 23.3396 30.7442 22.6494 29.9867C21.9591 29.2293 21.509 28.2843 21.356 27.2711C21.2029 26.2579 21.3538 25.222 21.7896 24.2946C22.2253 23.3671 22.9263 22.5897 23.804 22.0606C24.6816 21.5315 25.6965 21.2745 26.7202 21.3221C26.944 21.3221 27.1679 21.378 27.3917 21.4116L27.7722 20.2926C27.4247 20.2328 27.0728 20.2028 26.7202 20.2031C25.4746 20.1595 24.2441 20.4863 23.1843 21.1421C22.1245 21.7979 21.283 22.7532 20.7663 23.8872C20.2495 25.0212 20.0808 26.283 20.2813 27.5129C20.4819 28.7428 21.0428 29.8856 21.893 30.7968C22.7433 31.708 23.8447 32.3465 25.0579 32.6318C26.2712 32.917 27.5418 32.836 28.7091 32.3992C29.8763 31.9623 30.8877 31.1891 31.6155 30.1774C32.3432 29.1657 32.7544 27.961 32.7973 26.7156C32.8069 26.2811 32.7769 25.8466 32.7077 25.4175L31.5886 25.6861Z" fill="#FF4E00"/>
<path d="M26.0536 27.5495C25.8928 27.5491 25.7387 27.4834 25.6252 27.3667C25.5694 27.31 25.5252 27.2426 25.495 27.1683C25.4648 27.0941 25.4492 27.0144 25.4492 26.9339C25.4492 26.8535 25.4648 26.7738 25.495 26.6995C25.5252 26.6253 25.5694 26.5578 25.6252 26.5012L28.5999 23.5511L28.231 20.3817C28.1848 19.7951 28.3641 19.2133 28.7308 18.7603L30.7179 16.3832C30.8435 16.2375 31.0037 16.1273 31.1829 16.0633C31.3621 15.9992 31.5543 15.9835 31.7412 16.0175C31.9249 16.0511 32.097 16.1327 32.2408 16.2544C32.3847 16.3761 32.4954 16.5339 32.5622 16.7124L33.6093 19.3821L36.1081 20.1013C36.3145 20.1562 36.5028 20.2669 36.6531 20.4219C36.8035 20.5769 36.9104 20.7704 36.9627 20.9823C37.015 21.1941 37.0108 21.4165 36.9504 21.6261C36.8901 21.8357 36.7759 22.0248 36.6197 22.1736L34.6802 24.0875C34.1623 24.5039 33.5176 24.7197 32.8597 24.697L29.4566 24.4166L26.4581 27.3789C26.4062 27.4349 26.3433 27.4791 26.2736 27.5085C26.2039 27.5379 26.1289 27.5519 26.0536 27.5495ZM30.5989 23.2829L32.9787 23.4902C33.2906 23.465 33.5923 23.3648 33.8592 23.1976L35.7987 21.2837L33.3356 20.5645L30.5989 23.2829ZM31.4794 17.2975L29.647 19.5405C29.4898 19.74 29.4094 19.9915 29.4209 20.2476L29.6827 22.4784L32.4551 19.7234L31.4794 17.2975Z" fill="#FF4E00"/>
</svg>
