<svg width="52" height="52" viewBox="0 0 52 52" fill="none" xmlns="http://www.w3.org/2000/svg">
<circle cx="26" cy="26" r="26" fill="white"/>
<mask id="path-2-outside-1_1_57832" maskUnits="userSpaceOnUse" x="13" y="15" width="26" height="24" fill="black">
<rect fill="white" x="13" y="15" width="26" height="24"/>
<path d="M36.106 18.1422C34.8437 16.8252 33.0999 16.0554 31.2591 16.0029C29.4184 15.9503 27.6319 16.6192 26.2939 17.8621L25.9903 18.1438C23.3608 15.4044 18.9682 15.2775 16.1793 17.8603C13.3903 20.4432 13.2611 24.7577 15.8906 27.4971L16.5743 28.2086C16.2856 28.8651 16.3779 29.6232 16.8159 30.1943C17.2539 30.7655 17.9703 31.0618 18.6924 30.9704C18.5701 31.5953 18.7612 32.2399 19.2059 32.7028C19.6505 33.1656 20.2946 33.3903 20.9369 33.3066C20.8146 33.9315 21.0056 34.576 21.4502 35.0388C21.8948 35.5015 22.5388 35.7262 23.181 35.6425C23.0219 36.4911 23.436 37.3441 24.2075 37.7568C24.979 38.1696 25.9332 38.0486 26.5727 37.457C28.8556 35.34 28.784 35.4456 28.9997 35.0889C29.6674 35.4116 30.4616 35.3476 31.0669 34.9223C31.6721 34.497 31.9903 33.7793 31.895 33.0544C32.5311 33.1715 33.1859 32.9824 33.6562 32.5457C34.1266 32.1089 34.3556 31.4774 34.2723 30.847C35.1414 31.0038 36.014 30.5909 36.4308 29.8256C36.8476 29.0603 36.7131 28.1182 36.098 27.4951C38.6309 24.875 38.6344 20.7665 36.106 18.1422ZM17.5447 29.8309C17.0774 29.3432 17.0999 28.576 17.5951 28.1155L19.6752 26.1863C20.1726 25.735 20.9472 25.7612 21.4118 26.245C21.8765 26.7287 21.8581 27.4898 21.3705 27.9513L19.2904 29.8805C18.7942 30.3396 18.0131 30.3175 17.5447 29.8309ZM19.7892 32.1672C19.3214 31.6796 19.344 30.912 19.8396 30.4517L21.9197 28.5226C22.4158 28.0628 23.1974 28.0852 23.6654 28.5725C24.1334 29.0597 24.1107 29.8274 23.6146 30.2871L21.5345 32.2167C21.0377 32.6749 20.2571 32.6519 19.7892 32.1652V32.1672ZM22.0333 34.503C21.5661 34.0153 21.5888 33.2482 22.0841 32.788L24.1642 30.8588C24.6635 30.4283 25.42 30.4629 25.8764 30.9372C26.3327 31.4114 26.3253 32.1553 25.8595 32.6206L23.7794 34.5498C23.2835 35.0099 22.5018 34.9881 22.0333 34.5011V34.503ZM26.0235 36.8888C25.7026 37.1863 25.2445 37.293 24.8218 37.1687C24.3991 37.0444 24.076 36.7081 23.9742 36.2864C23.8724 35.8647 24.0073 35.4217 24.3282 35.1242L26.4083 33.1947C26.9057 32.7434 27.6803 32.7696 28.145 33.2533C28.6096 33.7371 28.5912 34.4981 28.1036 34.9596L26.0235 36.8888ZM35.4852 29.7704C35.2474 29.9919 34.9296 30.1112 34.602 30.1019C34.2745 30.0926 33.9642 29.9555 33.7399 29.7209L28.4092 24.173C28.2576 24.0152 28.0043 24.0079 27.8436 24.1569C27.6829 24.3059 27.6755 24.5546 27.8272 24.7125L33.159 30.26C33.4619 30.5751 33.5707 31.0251 33.4443 31.4403C33.3179 31.8555 32.9755 32.173 32.5462 32.2731C32.1169 32.3732 31.6659 32.2407 31.363 31.9256L26.0315 26.3773C25.9334 26.2751 25.7873 26.2322 25.6482 26.2646C25.5091 26.297 25.3982 26.3998 25.3572 26.5343C25.3162 26.6688 25.3514 26.8146 25.4495 26.9167L30.7793 32.4634C31.2002 32.9011 31.2301 33.5759 30.8495 34.0478C30.469 34.5198 29.7934 34.6457 29.2633 34.3435C29.3463 33.7822 29.1806 33.2129 28.8083 32.7794C28.4359 32.3459 27.8924 32.0898 27.3152 32.0756C26.8752 32.0643 27.0352 32.2277 27.0464 31.7955C27.0623 31.2655 26.8631 30.751 26.4926 30.3653C26.1221 29.9797 25.6107 29.7545 25.0711 29.7394C24.6311 29.7256 24.7891 29.8966 24.8023 29.4593C24.818 28.9292 24.6186 28.4148 24.2481 28.0292C23.8775 27.6435 23.3662 27.4184 22.8266 27.4031C22.3837 27.391 22.5446 27.5639 22.5578 27.123C22.5793 26.3159 22.105 25.575 21.3549 25.2446C20.6049 24.9142 19.7261 25.0589 19.1268 25.6115C16.2667 28.2632 17.2535 27.3493 17.0403 27.547L16.4731 26.9576C14.147 24.534 14.2615 20.7172 16.7289 18.4324C19.1963 16.1476 23.0822 16.2601 25.4083 18.6837L22.1321 21.7224C21.8215 22.015 21.6386 22.4147 21.6221 22.8371C21.5821 24.4508 24.0258 25.4669 25.5191 24.0787L28.5048 21.3111C28.5819 21.2395 28.6849 21.2009 28.791 21.2038C28.897 21.2068 28.9976 21.251 29.0705 21.3268C29.8553 22.1436 34.7827 27.2727 35.5356 28.0558C35.7605 28.2897 35.8815 28.6018 35.8721 28.9234C35.8626 29.245 35.7234 29.5497 35.4852 29.7704ZM35.5536 26.9297L29.6521 20.7873C29.4336 20.56 29.1321 20.4272 28.814 20.4182C28.4958 20.4092 28.187 20.5248 27.9556 20.7394L24.9695 23.5078C24.6523 23.8019 24.229 23.9597 23.7931 23.9465C23.3572 23.9333 22.9447 23.7502 22.6466 23.4375C22.4965 23.2812 22.4159 23.0727 22.4226 22.858C22.4292 22.6432 22.5227 22.4399 22.6822 22.2929L26.8424 18.4334C29.2517 16.193 33.037 16.2374 35.3913 18.5336C37.7455 20.8297 37.8174 24.5474 35.5536 26.9297Z"/>
</mask>
<path d="M36.106 18.1422C34.8437 16.8252 33.0999 16.0554 31.2591 16.0029C29.4184 15.9503 27.6319 16.6192 26.2939 17.8621L25.9903 18.1438C23.3608 15.4044 18.9682 15.2775 16.1793 17.8603C13.3903 20.4432 13.2611 24.7577 15.8906 27.4971L16.5743 28.2086C16.2856 28.8651 16.3779 29.6232 16.8159 30.1943C17.2539 30.7655 17.9703 31.0618 18.6924 30.9704C18.5701 31.5953 18.7612 32.2399 19.2059 32.7028C19.6505 33.1656 20.2946 33.3903 20.9369 33.3066C20.8146 33.9315 21.0056 34.576 21.4502 35.0388C21.8948 35.5015 22.5388 35.7262 23.181 35.6425C23.0219 36.4911 23.436 37.3441 24.2075 37.7568C24.979 38.1696 25.9332 38.0486 26.5727 37.457C28.8556 35.34 28.784 35.4456 28.9997 35.0889C29.6674 35.4116 30.4616 35.3476 31.0669 34.9223C31.6721 34.497 31.9903 33.7793 31.895 33.0544C32.5311 33.1715 33.1859 32.9824 33.6562 32.5457C34.1266 32.1089 34.3556 31.4774 34.2723 30.847C35.1414 31.0038 36.014 30.5909 36.4308 29.8256C36.8476 29.0603 36.7131 28.1182 36.098 27.4951C38.6309 24.875 38.6344 20.7665 36.106 18.1422ZM17.5447 29.8309C17.0774 29.3432 17.0999 28.576 17.5951 28.1155L19.6752 26.1863C20.1726 25.735 20.9472 25.7612 21.4118 26.245C21.8765 26.7287 21.8581 27.4898 21.3705 27.9513L19.2904 29.8805C18.7942 30.3396 18.0131 30.3175 17.5447 29.8309ZM19.7892 32.1672C19.3214 31.6796 19.344 30.912 19.8396 30.4517L21.9197 28.5226C22.4158 28.0628 23.1974 28.0852 23.6654 28.5725C24.1334 29.0597 24.1107 29.8274 23.6146 30.2871L21.5345 32.2167C21.0377 32.6749 20.2571 32.6519 19.7892 32.1652V32.1672ZM22.0333 34.503C21.5661 34.0153 21.5888 33.2482 22.0841 32.788L24.1642 30.8588C24.6635 30.4283 25.42 30.4629 25.8764 30.9372C26.3327 31.4114 26.3253 32.1553 25.8595 32.6206L23.7794 34.5498C23.2835 35.0099 22.5018 34.9881 22.0333 34.5011V34.503ZM26.0235 36.8888C25.7026 37.1863 25.2445 37.293 24.8218 37.1687C24.3991 37.0444 24.076 36.7081 23.9742 36.2864C23.8724 35.8647 24.0073 35.4217 24.3282 35.1242L26.4083 33.1947C26.9057 32.7434 27.6803 32.7696 28.145 33.2533C28.6096 33.7371 28.5912 34.4981 28.1036 34.9596L26.0235 36.8888ZM35.4852 29.7704C35.2474 29.9919 34.9296 30.1112 34.602 30.1019C34.2745 30.0926 33.9642 29.9555 33.7399 29.7209L28.4092 24.173C28.2576 24.0152 28.0043 24.0079 27.8436 24.1569C27.6829 24.3059 27.6755 24.5546 27.8272 24.7125L33.159 30.26C33.4619 30.5751 33.5707 31.0251 33.4443 31.4403C33.3179 31.8555 32.9755 32.173 32.5462 32.2731C32.1169 32.3732 31.6659 32.2407 31.363 31.9256L26.0315 26.3773C25.9334 26.2751 25.7873 26.2322 25.6482 26.2646C25.5091 26.297 25.3982 26.3998 25.3572 26.5343C25.3162 26.6688 25.3514 26.8146 25.4495 26.9167L30.7793 32.4634C31.2002 32.9011 31.2301 33.5759 30.8495 34.0478C30.469 34.5198 29.7934 34.6457 29.2633 34.3435C29.3463 33.7822 29.1806 33.2129 28.8083 32.7794C28.4359 32.3459 27.8924 32.0898 27.3152 32.0756C26.8752 32.0643 27.0352 32.2277 27.0464 31.7955C27.0623 31.2655 26.8631 30.751 26.4926 30.3653C26.1221 29.9797 25.6107 29.7545 25.0711 29.7394C24.6311 29.7256 24.7891 29.8966 24.8023 29.4593C24.818 28.9292 24.6186 28.4148 24.2481 28.0292C23.8775 27.6435 23.3662 27.4184 22.8266 27.4031C22.3837 27.391 22.5446 27.5639 22.5578 27.123C22.5793 26.3159 22.105 25.575 21.3549 25.2446C20.6049 24.9142 19.7261 25.0589 19.1268 25.6115C16.2667 28.2632 17.2535 27.3493 17.0403 27.547L16.4731 26.9576C14.147 24.534 14.2615 20.7172 16.7289 18.4324C19.1963 16.1476 23.0822 16.2601 25.4083 18.6837L22.1321 21.7224C21.8215 22.015 21.6386 22.4147 21.6221 22.8371C21.5821 24.4508 24.0258 25.4669 25.5191 24.0787L28.5048 21.3111C28.5819 21.2395 28.6849 21.2009 28.791 21.2038C28.897 21.2068 28.9976 21.251 29.0705 21.3268C29.8553 22.1436 34.7827 27.2727 35.5356 28.0558C35.7605 28.2897 35.8815 28.6018 35.8721 28.9234C35.8626 29.245 35.7234 29.5497 35.4852 29.7704ZM35.5536 26.9297L29.6521 20.7873C29.4336 20.56 29.1321 20.4272 28.814 20.4182C28.4958 20.4092 28.187 20.5248 27.9556 20.7394L24.9695 23.5078C24.6523 23.8019 24.229 23.9597 23.7931 23.9465C23.3572 23.9333 22.9447 23.7502 22.6466 23.4375C22.4965 23.2812 22.4159 23.0727 22.4226 22.858C22.4292 22.6432 22.5227 22.4399 22.6822 22.2929L26.8424 18.4334C29.2517 16.193 33.037 16.2374 35.3913 18.5336C37.7455 20.8297 37.8174 24.5474 35.5536 26.9297Z" fill="#FF4E00"/>
<path d="M36.106 18.1422C34.8437 16.8252 33.0999 16.0554 31.2591 16.0029C29.4184 15.9503 27.6319 16.6192 26.2939 17.8621L25.9903 18.1438C23.3608 15.4044 18.9682 15.2775 16.1793 17.8603C13.3903 20.4432 13.2611 24.7577 15.8906 27.4971L16.5743 28.2086C16.2856 28.8651 16.3779 29.6232 16.8159 30.1943C17.2539 30.7655 17.9703 31.0618 18.6924 30.9704C18.5701 31.5953 18.7612 32.2399 19.2059 32.7028C19.6505 33.1656 20.2946 33.3903 20.9369 33.3066C20.8146 33.9315 21.0056 34.576 21.4502 35.0388C21.8948 35.5015 22.5388 35.7262 23.181 35.6425C23.0219 36.4911 23.436 37.3441 24.2075 37.7568C24.979 38.1696 25.9332 38.0486 26.5727 37.457C28.8556 35.34 28.784 35.4456 28.9997 35.0889C29.6674 35.4116 30.4616 35.3476 31.0669 34.9223C31.6721 34.497 31.9903 33.7793 31.895 33.0544C32.5311 33.1715 33.1859 32.9824 33.6562 32.5457C34.1266 32.1089 34.3556 31.4774 34.2723 30.847C35.1414 31.0038 36.014 30.5909 36.4308 29.8256C36.8476 29.0603 36.7131 28.1182 36.098 27.4951C38.6309 24.875 38.6344 20.7665 36.106 18.1422ZM17.5447 29.8309C17.0774 29.3432 17.0999 28.576 17.5951 28.1155L19.6752 26.1863C20.1726 25.735 20.9472 25.7612 21.4118 26.245C21.8765 26.7287 21.8581 27.4898 21.3705 27.9513L19.2904 29.8805C18.7942 30.3396 18.0131 30.3175 17.5447 29.8309ZM19.7892 32.1672C19.3214 31.6796 19.344 30.912 19.8396 30.4517L21.9197 28.5226C22.4158 28.0628 23.1974 28.0852 23.6654 28.5725C24.1334 29.0597 24.1107 29.8274 23.6146 30.2871L21.5345 32.2167C21.0377 32.6749 20.2571 32.6519 19.7892 32.1652V32.1672ZM22.0333 34.503C21.5661 34.0153 21.5888 33.2482 22.0841 32.788L24.1642 30.8588C24.6635 30.4283 25.42 30.4629 25.8764 30.9372C26.3327 31.4114 26.3253 32.1553 25.8595 32.6206L23.7794 34.5498C23.2835 35.0099 22.5018 34.9881 22.0333 34.5011V34.503ZM26.0235 36.8888C25.7026 37.1863 25.2445 37.293 24.8218 37.1687C24.3991 37.0444 24.076 36.7081 23.9742 36.2864C23.8724 35.8647 24.0073 35.4217 24.3282 35.1242L26.4083 33.1947C26.9057 32.7434 27.6803 32.7696 28.145 33.2533C28.6096 33.7371 28.5912 34.4981 28.1036 34.9596L26.0235 36.8888ZM35.4852 29.7704C35.2474 29.9919 34.9296 30.1112 34.602 30.1019C34.2745 30.0926 33.9642 29.9555 33.7399 29.7209L28.4092 24.173C28.2576 24.0152 28.0043 24.0079 27.8436 24.1569C27.6829 24.3059 27.6755 24.5546 27.8272 24.7125L33.159 30.26C33.4619 30.5751 33.5707 31.0251 33.4443 31.4403C33.3179 31.8555 32.9755 32.173 32.5462 32.2731C32.1169 32.3732 31.6659 32.2407 31.363 31.9256L26.0315 26.3773C25.9334 26.2751 25.7873 26.2322 25.6482 26.2646C25.5091 26.297 25.3982 26.3998 25.3572 26.5343C25.3162 26.6688 25.3514 26.8146 25.4495 26.9167L30.7793 32.4634C31.2002 32.9011 31.2301 33.5759 30.8495 34.0478C30.469 34.5198 29.7934 34.6457 29.2633 34.3435C29.3463 33.7822 29.1806 33.2129 28.8083 32.7794C28.4359 32.3459 27.8924 32.0898 27.3152 32.0756C26.8752 32.0643 27.0352 32.2277 27.0464 31.7955C27.0623 31.2655 26.8631 30.751 26.4926 30.3653C26.1221 29.9797 25.6107 29.7545 25.0711 29.7394C24.6311 29.7256 24.7891 29.8966 24.8023 29.4593C24.818 28.9292 24.6186 28.4148 24.2481 28.0292C23.8775 27.6435 23.3662 27.4184 22.8266 27.4031C22.3837 27.391 22.5446 27.5639 22.5578 27.123C22.5793 26.3159 22.105 25.575 21.3549 25.2446C20.6049 24.9142 19.7261 25.0589 19.1268 25.6115C16.2667 28.2632 17.2535 27.3493 17.0403 27.547L16.4731 26.9576C14.147 24.534 14.2615 20.7172 16.7289 18.4324C19.1963 16.1476 23.0822 16.2601 25.4083 18.6837L22.1321 21.7224C21.8215 22.015 21.6386 22.4147 21.6221 22.8371C21.5821 24.4508 24.0258 25.4669 25.5191 24.0787L28.5048 21.3111C28.5819 21.2395 28.6849 21.2009 28.791 21.2038C28.897 21.2068 28.9976 21.251 29.0705 21.3268C29.8553 22.1436 34.7827 27.2727 35.5356 28.0558C35.7605 28.2897 35.8815 28.6018 35.8721 28.9234C35.8626 29.245 35.7234 29.5497 35.4852 29.7704ZM35.5536 26.9297L29.6521 20.7873C29.4336 20.56 29.1321 20.4272 28.814 20.4182C28.4958 20.4092 28.187 20.5248 27.9556 20.7394L24.9695 23.5078C24.6523 23.8019 24.229 23.9597 23.7931 23.9465C23.3572 23.9333 22.9447 23.7502 22.6466 23.4375C22.4965 23.2812 22.4159 23.0727 22.4226 22.858C22.4292 22.6432 22.5227 22.4399 22.6822 22.2929L26.8424 18.4334C29.2517 16.193 33.037 16.2374 35.3913 18.5336C37.7455 20.8297 37.8174 24.5474 35.5536 26.9297Z" stroke="#FF4E00" stroke-width="0.4" mask="url(#path-2-outside-1_1_57832)"/>
</svg>
