<svg width="60" height="60" viewBox="0 0 60 60" fill="none" xmlns="http://www.w3.org/2000/svg">
<ellipse cx="29.8455" cy="29.9062" rx="29.3065" ry="29.5" fill="white"/>
<path d="M39.5576 28.4272C39.7199 29.1065 39.8039 29.8022 39.8078 30.5007C39.8078 32.3415 39.2619 34.141 38.2391 35.6715C37.2164 37.2021 35.7627 38.395 34.0618 39.0995C32.361 39.8039 30.4895 39.9882 28.6839 39.6291C26.8783 39.27 25.2198 38.3835 23.9181 37.0819C22.6163 35.7803 21.7298 34.1219 21.3707 32.3165C21.0115 30.511 21.1958 28.6397 21.9003 26.939C22.6048 25.2383 23.7979 23.7848 25.3286 22.7621C26.8593 21.7394 28.6589 21.1935 30.4998 21.1935C31.1042 21.1922 31.7071 21.2521 32.2994 21.3723L32.657 20.1806C31.9458 20.0484 31.2231 19.9885 30.4998 20.0018C28.4232 20.0018 26.3931 20.6176 24.6664 21.7712C22.9397 22.9248 21.594 24.5645 20.7993 26.483C20.0045 28.4014 19.7966 30.5124 20.2018 32.549C20.6069 34.5855 21.6069 36.4563 23.0753 37.9246C24.5438 39.3929 26.4146 40.3928 28.4514 40.7979C30.4882 41.203 32.5993 40.9951 34.5179 40.2005C36.4365 39.4058 38.0764 38.0601 39.2301 36.3336C40.3838 34.6071 40.9996 32.5772 40.9996 30.5007C40.9977 29.6985 40.9057 28.899 40.7255 28.1173L39.5576 28.4272Z" fill="#FF4E00"/>
<path d="M35.5886 29.6861C35.645 30.0337 35.6675 30.386 35.6557 30.7379C35.6081 31.7615 35.258 32.748 34.6497 33.5727C34.0414 34.3973 33.2021 35.0231 32.2381 35.3708C31.2741 35.7185 30.2286 35.7727 29.2338 35.5263C28.239 35.2799 27.3396 34.7442 26.6494 33.9867C25.9591 33.2293 25.509 32.2843 25.356 31.2711C25.2029 30.2579 25.3538 29.222 25.7896 28.2946C26.2253 27.3671 26.9263 26.5897 27.804 26.0606C28.6816 25.5315 29.6965 25.2745 30.7202 25.3221C30.944 25.3221 31.1679 25.378 31.3917 25.4116L31.7722 24.2926C31.4247 24.2328 31.0728 24.2028 30.7202 24.2031C29.4746 24.1595 28.2441 24.4863 27.1843 25.1421C26.1245 25.7979 25.283 26.7532 24.7663 27.8872C24.2495 29.0212 24.0808 30.283 24.2813 31.5129C24.4819 32.7428 25.0428 33.8856 25.893 34.7968C26.7433 35.708 27.8447 36.3465 29.0579 36.6318C30.2712 36.917 31.5418 36.836 32.7091 36.3992C33.8763 35.9623 34.8877 35.1891 35.6155 34.1774C36.3432 33.1657 36.7544 31.961 36.7973 30.7156C36.8069 30.2811 36.7769 29.8466 36.7077 29.4175L35.5886 29.6861Z" fill="#FF4E00"/>
<path d="M30.0536 31.5495C29.8928 31.5491 29.7387 31.4834 29.6252 31.3667C29.5694 31.31 29.5252 31.2426 29.495 31.1683C29.4648 31.0941 29.4492 31.0144 29.4492 30.9339C29.4492 30.8535 29.4648 30.7738 29.495 30.6995C29.5252 30.6253 29.5694 30.5578 29.6252 30.5012L32.5999 27.5511L32.231 24.3817C32.1848 23.7951 32.3641 23.2133 32.7308 22.7603L34.7179 20.3832C34.8435 20.2375 35.0037 20.1273 35.1829 20.0633C35.3621 19.9992 35.5543 19.9835 35.7412 20.0175C35.9249 20.0511 36.097 20.1327 36.2408 20.2544C36.3847 20.3761 36.4954 20.5339 36.5622 20.7124L37.6093 23.3821L40.1081 24.1013C40.3145 24.1562 40.5028 24.2669 40.6531 24.4219C40.8035 24.5769 40.9104 24.7704 40.9627 24.9823C41.015 25.1941 41.0108 25.4165 40.9504 25.6261C40.8901 25.8357 40.7759 26.0248 40.6197 26.1736L38.6802 28.0875C38.1623 28.5039 37.5176 28.7197 36.8597 28.697L33.4566 28.4166L30.4581 31.3789C30.4062 31.4349 30.3433 31.4791 30.2736 31.5085C30.2039 31.5379 30.1289 31.5519 30.0536 31.5495ZM34.5989 27.2829L36.9787 27.4902C37.2906 27.465 37.5923 27.3648 37.8592 27.1976L39.7987 25.2837L37.3356 24.5645L34.5989 27.2829ZM35.4794 21.2975L33.647 23.5405C33.4898 23.74 33.4094 23.9915 33.4209 24.2476L33.6827 26.4784L36.4551 23.7234L35.4794 21.2975Z" fill="#FF4E00"/>
</svg>
