<svg width="60" height="60" viewBox="0 0 60 60" fill="none" xmlns="http://www.w3.org/2000/svg">
<ellipse cx="29.9315" cy="29.9062" rx="29.3065" ry="29.5" fill="white"/>
<path d="M26.2599 27.3717C25.208 27.3717 24.1797 27.0389 23.3051 26.4156C22.4305 25.7922 21.7488 24.9062 21.3463 23.8695C20.9437 22.8329 20.8384 21.6922 21.0436 20.5917C21.2488 19.4913 21.7553 18.4804 22.4991 17.687C23.2429 16.8936 24.1906 16.3533 25.2223 16.1344C26.254 15.9155 27.3233 16.0278 28.2951 16.4572C29.267 16.8866 30.0976 17.6138 30.682 18.5467C31.2664 19.4796 31.5783 20.5765 31.5783 21.6985C31.5752 23.2021 31.0138 24.6431 30.0171 25.7063C29.0204 26.7695 27.6694 27.3683 26.2599 27.3717ZM26.2599 17.2636C25.4422 17.2636 24.643 17.5222 23.9632 18.0068C23.2833 18.4913 22.7535 19.18 22.4406 19.9858C22.1277 20.7915 22.0458 21.6781 22.2054 22.5335C22.3649 23.3889 22.7586 24.1746 23.3367 24.7913C23.9149 25.408 24.6515 25.828 25.4534 25.9981C26.2553 26.1683 27.0865 26.081 27.8419 25.7472C28.5972 25.4135 29.2429 24.8483 29.6971 24.1231C30.1513 23.398 30.3938 22.5454 30.3938 21.6733C30.3938 20.5037 29.9583 19.3821 29.183 18.5552C28.4077 17.7282 27.3562 17.2636 26.2599 17.2636Z" fill="#FF4E00"/>
<path d="M32.4907 27.6866C31.8618 27.7023 31.2356 27.5952 30.6428 27.3708C30.565 27.3409 30.4935 27.295 30.4324 27.2356C30.3713 27.1763 30.3217 27.1047 30.2865 27.0249C30.2513 26.9451 30.2312 26.8587 30.2273 26.7706C30.2234 26.6826 30.2358 26.5945 30.2638 26.5116C30.2918 26.4286 30.3348 26.3523 30.3904 26.2871C30.4461 26.2219 30.5132 26.169 30.588 26.1315C30.6628 26.0939 30.7438 26.0725 30.8264 26.0683C30.9089 26.0642 30.9915 26.0774 31.0692 26.1073C31.5218 26.2982 32.004 26.3968 32.4907 26.3979C33.5071 26.3386 34.4637 25.8662 35.1636 25.0777C35.8635 24.2893 36.2536 23.2447 36.2536 22.1588C36.2536 21.0729 35.8635 20.0284 35.1636 19.2399C34.4637 18.4514 33.5071 17.979 32.4907 17.9198C32.3336 17.9198 32.1829 17.8532 32.0719 17.7347C31.9608 17.6162 31.8984 17.4556 31.8984 17.288C31.9014 17.1215 31.9648 16.9626 32.0752 16.8449C32.1856 16.7271 32.3345 16.6595 32.4907 16.6562C33.816 16.724 35.0661 17.3333 35.9816 18.3578C36.8971 19.3823 37.4079 20.7434 37.4079 22.1588C37.4079 23.5742 36.8971 24.9353 35.9816 25.9598C35.0661 26.9843 33.816 27.5936 32.4907 27.6614V27.6866Z" fill="#FF4E00"/>
<path d="M33.4872 38.3131H18.6809C18.4372 38.3145 18.1963 38.2586 17.9752 38.1495C17.754 38.0403 17.5582 37.8804 17.4016 37.6814C17.2353 37.4852 17.1128 37.2515 17.043 36.9977C16.9733 36.7439 16.9582 36.4766 16.9988 36.2157C17.3348 34.4955 18.1237 32.9131 19.2731 31.6544C20.102 30.7819 21.0844 30.0927 22.1638 29.6265C23.2432 29.1603 24.3984 28.9263 25.5629 28.9379H26.2854C28.1688 28.9379 31.7578 30.113 33.2977 32.223C34.1668 33.3942 34.7781 34.7587 35.0863 36.2157C35.1355 36.4681 35.1324 36.729 35.0771 36.9799C35.0219 37.2309 34.9159 37.466 34.7665 37.6687C34.6121 37.8715 34.417 38.0347 34.1956 38.1462C33.9742 38.2577 33.7321 38.3148 33.4872 38.3131ZM25.7761 30.2267C24.7422 30.1954 23.7129 30.385 22.7487 30.7843C21.7845 31.1835 20.9048 31.7844 20.1615 32.5515C19.1538 33.6099 18.4651 34.9649 18.1834 36.4431C18.1693 36.5167 18.1717 36.5927 18.1902 36.6651C18.2087 36.7375 18.2429 36.8043 18.29 36.8601C18.3347 36.9213 18.3923 36.9703 18.4582 37.0033C18.5241 37.0362 18.5963 37.0521 18.669 37.0496H33.4754C33.5429 37.0481 33.6094 37.0316 33.6705 37.0011C33.7317 36.9707 33.7863 36.9269 33.8307 36.8727C33.8702 36.8177 33.8981 36.7542 33.9124 36.6866C33.9267 36.6189 33.9272 36.5488 33.9137 36.481C33.6633 35.2223 33.1445 34.042 32.3975 33.0317C31.213 31.3133 27.9793 30.2267 26.3328 30.2267H25.7761Z" fill="#FF4E00"/>
<path d="M41.3169 37.986H36.8039C36.6468 37.986 36.4962 37.9194 36.3851 37.8009C36.274 37.6825 36.2116 37.5218 36.2116 37.3542C36.2116 37.1867 36.274 37.026 36.3851 36.9075C36.4962 36.789 36.6468 36.7225 36.8039 36.7225H41.3169C41.3856 36.7252 41.454 36.7119 41.5174 36.6835C41.5808 36.6551 41.6377 36.6124 41.6841 36.5582C41.7305 36.5069 41.7653 36.4449 41.7859 36.377C41.8064 36.3091 41.8121 36.2371 41.8025 36.1665C41.4892 34.6632 40.6395 33.349 39.4335 32.5024C37.9438 31.5738 36.2651 31.0449 34.5415 30.9609C34.4637 30.9593 34.387 30.9413 34.3157 30.908C34.2444 30.8747 34.18 30.8268 34.1261 30.767C34.0722 30.7071 34.0299 30.6365 34.0016 30.5593C33.9733 30.482 33.9595 30.3995 33.9611 30.3165C33.961 30.2341 33.9764 30.1526 34.0063 30.0766C34.0363 30.0007 34.0801 29.9319 34.1352 29.8742C34.1904 29.8165 34.2558 29.7712 34.3276 29.7408C34.3994 29.7105 34.4761 29.6957 34.5533 29.6974C36.4915 29.7801 38.38 30.3749 40.0494 31.4284C40.8072 31.9467 41.4597 32.6219 41.9683 33.4141C42.477 34.2063 42.8314 35.0993 43.0107 36.0402C43.036 36.2884 43.0114 36.5395 42.9386 36.7767C42.8657 37.014 42.7463 37.2319 42.5883 37.4161C42.4302 37.6002 42.2372 37.7463 42.022 37.8445C41.8069 37.9428 41.5746 37.991 41.3406 37.986H41.3169Z" fill="#FF4E00"/>
</svg>
