<svg width="52" height="53" viewBox="0 0 52 53" fill="none" xmlns="http://www.w3.org/2000/svg">
<circle cx="26" cy="26.4062" r="26" fill="white"/>
<path d="M35.603 20.6777H31.9922V19.3277C31.9923 19.1505 31.9573 18.9751 31.8895 18.8118C31.8217 18.6485 31.7224 18.5007 31.5973 18.3769C31.4723 18.2532 31.3241 18.1562 31.1616 18.0915C30.999 18.0269 30.8253 17.9959 30.6507 18.0004H21.6294C21.2162 18.0004 20.8199 18.1662 20.5267 18.4616C20.2335 18.757 20.0673 19.158 20.0643 19.5773V20.7117H16.3977C16.0328 20.7116 15.6824 20.8563 15.4213 21.115C15.1602 21.3736 15.0091 21.7256 15.0003 22.0957V22.5382C14.9817 25.062 15.7658 27.5246 17.2361 29.5603C17.518 29.9606 17.8281 30.3397 18.1639 30.6947C20.1056 32.6934 22.6859 33.9242 25.4414 34.1661V36.9568H21.3387C21.1905 36.9568 21.0483 37.0165 20.9435 37.1229C20.8387 37.2293 20.7798 37.3735 20.7798 37.524C20.7798 37.6744 20.8387 37.8187 20.9435 37.9251C21.0483 38.0314 21.1905 38.0912 21.3387 38.0912H30.6507C30.799 38.0912 30.9411 38.0314 31.046 37.9251C31.1508 37.8187 31.2097 37.6744 31.2097 37.524C31.2097 37.3735 31.1508 37.2293 31.046 37.1229C30.9411 37.0165 30.799 36.9568 30.6507 36.9568H26.5257V34.098C29.3081 33.8669 31.9154 32.6265 33.8702 30.604C34.2099 30.2494 34.5237 29.8702 34.8093 29.4695C36.2753 27.4316 37.0589 24.9705 37.045 22.4474V22.0957C37.0451 21.9056 37.0076 21.7175 36.9346 21.5424C36.8616 21.3673 36.7546 21.2089 36.6201 21.0766C36.4856 20.9443 36.3262 20.8409 36.1515 20.7723C35.9767 20.7038 35.7902 20.6716 35.603 20.6777ZM21.1822 25.6692V19.5773C21.1852 19.4589 21.2335 19.3464 21.3171 19.2637C21.4006 19.1811 21.5127 19.1348 21.6294 19.1349H30.6507C30.7011 19.1349 30.7495 19.1552 30.7851 19.1914C30.8207 19.2275 30.8408 19.2766 30.8408 19.3277V25.6125C30.8743 25.6805 30.6507 32.748 26.1792 32.748C25.6016 32.7727 25.0252 32.6756 24.4864 32.4628C23.9476 32.2499 23.4582 31.926 23.0491 31.5115C21.104 29.4922 21.1822 25.7146 21.1822 25.6692ZM18.0969 28.8342C16.792 27.0036 16.0987 24.7974 16.1182 22.5382V22.0957C16.1182 22.0205 16.1477 21.9484 16.2001 21.8952C16.2525 21.842 16.3236 21.8121 16.3977 21.8121H20.0643V25.6465C20.0643 25.8167 19.9861 29.5716 21.9536 31.9653C20.8295 31.4079 19.8025 30.6684 18.9129 29.7758C18.6103 29.4907 18.3369 29.1752 18.0969 28.8342ZM35.8824 22.5382C35.9101 24.8109 35.2207 27.0329 33.915 28.8796C33.6684 29.2153 33.3955 29.5302 33.0989 29.8212C32.1888 30.7458 31.1351 31.5123 29.98 32.0901C31.2674 30.2187 31.9687 27.9967 31.9922 25.7146V21.8121H35.603C35.6771 21.8121 35.7482 21.842 35.8006 21.8952C35.853 21.9484 35.8824 22.0205 35.8824 22.0957V22.5382Z" fill="#FF4E00"/>
</svg>
