<svg width="225" height="125" viewBox="0 0 225 125" fill="none" xmlns="http://www.w3.org/2000/svg">
<path d="M283.799 -182.618L4.77081 -119.438C2.49249 -118.922 0.875 -116.897 0.875 -114.561V112.855C0.875 116.061 3.85022 118.438 6.97757 117.731L147.129 86.0463C150.256 85.3393 153.231 87.717 153.231 90.9232V119.688C153.231 122.912 156.237 125.293 159.376 124.555L337.532 82.6669C340.67 81.929 343.676 84.3103 343.676 87.5342V112.991C343.676 116.153 346.575 118.521 349.673 117.891L490.036 89.3313C493.134 88.7008 496.032 91.0689 496.032 94.2309V119.767C496.032 122.966 498.994 125.342 502.117 124.648L778.905 63.1478C781.193 62.6394 782.82 60.6104 782.82 58.2668V-172.597C782.82 -175.797 779.856 -178.173 776.733 -177.477L634.311 -145.745C631.188 -145.049 628.224 -147.426 628.224 -150.625V-172.616C628.224 -175.81 625.271 -178.185 622.151 -177.5L446.092 -138.834C442.972 -138.149 440.019 -140.524 440.019 -143.717V-172.556C440.019 -175.769 437.032 -178.148 433.901 -177.429L296.022 -145.793C292.89 -145.074 289.904 -147.453 289.904 -150.666V-177.741C289.904 -180.948 286.927 -183.326 283.799 -182.618Z" fill="url(#paint0_linear_1_58876)"/>
<defs>
<linearGradient id="paint0_linear_1_58876" x1="401.826" y1="-199.721" x2="402.983" y2="166.522" gradientUnits="userSpaceOnUse">
<stop stop-color="#FF7A40"/>
<stop offset="0.988999" stop-color="#FF4E00"/>
</linearGradient>
</defs>
</svg>
