<svg width="335" height="335" viewBox="0 0 335 335" fill="none" xmlns="http://www.w3.org/2000/svg">
<rect width="335" height="335" rx="34" fill="white"/>
<path d="M117.43 36.4062H108.027V45.9738H117.43V36.4062Z" fill="#353232"/>
<path d="M163.07 36.4062H153.668V45.9738H163.07V36.4062Z" fill="#353232"/>
<path d="M172.195 36.4062H162.793V45.9738H172.195V36.4062Z" fill="#353232"/>
<path d="M190.457 36.4062H181.055V45.9738H190.457V36.4062Z" fill="#353232"/>
<path d="M199.578 36.4062H190.176V45.9738H199.578V36.4062Z" fill="#353232"/>
<path d="M208.715 36.4062H199.312V45.9738H208.715V36.4062Z" fill="#353232"/>
<path d="M226.973 36.4062H217.57V45.9738H226.973V36.4062Z" fill="#353232"/>
<path d="M135.687 45.6934H126.285V55.2609H135.687V45.6934Z" fill="#353232"/>
<path d="M153.945 45.6934H144.543V55.2609H153.945V45.6934Z" fill="#353232"/>
<path d="M163.07 45.6934H153.668V55.2609H163.07V45.6934Z" fill="#353232"/>
<path d="M126.551 54.9844H117.148V64.5519H126.551V54.9844Z" fill="#353232"/>
<path d="M135.687 54.9844H126.285V64.5519H135.687V54.9844Z" fill="#353232"/>
<path d="M153.945 54.9844H144.543V64.5519H153.945V54.9844Z" fill="#353232"/>
<path d="M172.195 54.9844H162.793V64.5519H172.195V54.9844Z" fill="#353232"/>
<path d="M217.84 54.9844H208.438V64.5519H217.84V54.9844Z" fill="#353232"/>
<path d="M226.973 54.9844H217.57V64.5519H226.973V54.9844Z" fill="#353232"/>
<path d="M135.687 64.2715H126.285V73.8391H135.687V64.2715Z" fill="#353232"/>
<path d="M144.812 64.2715H135.41V73.8391H144.812V64.2715Z" fill="#353232"/>
<path d="M153.945 64.2715H144.543V73.8391H153.945V64.2715Z" fill="#353232"/>
<path d="M181.32 64.2715H171.918V73.8391H181.32V64.2715Z" fill="#353232"/>
<path d="M199.578 64.2715H190.176V73.8391H199.578V64.2715Z" fill="#353232"/>
<path d="M217.84 64.2715H208.438V73.8391H217.84V64.2715Z" fill="#353232"/>
<path d="M117.43 73.5625H108.027V83.1301H117.43V73.5625Z" fill="#353232"/>
<path d="M126.551 73.5625H117.148V83.1301H126.551V73.5625Z" fill="#353232"/>
<path d="M135.687 73.5625H126.285V83.1301H135.687V73.5625Z" fill="#353232"/>
<path d="M153.945 73.5625H144.543V83.1301H153.945V73.5625Z" fill="#353232"/>
<path d="M163.07 73.5625H153.668V83.1301H163.07V73.5625Z" fill="#353232"/>
<path d="M208.715 73.5625H199.312V83.1301H208.715V73.5625Z" fill="#353232"/>
<path d="M217.84 73.5625H208.438V83.1301H217.84V73.5625Z" fill="#353232"/>
<path d="M226.973 73.5625H217.57V83.1301H226.973V73.5625Z" fill="#353232"/>
<path d="M117.43 82.8477H108.027V92.4152H117.43V82.8477Z" fill="#353232"/>
<path d="M126.551 82.8477H117.148V92.4152H126.551V82.8477Z" fill="#353232"/>
<path d="M153.945 82.8477H144.543V92.4152H153.945V82.8477Z" fill="#353232"/>
<path d="M172.195 82.8477H162.793V92.4152H172.195V82.8477Z" fill="#353232"/>
<path d="M181.32 82.8477H171.918V92.4152H181.32V82.8477Z" fill="#353232"/>
<path d="M199.578 82.8477H190.176V92.4152H199.578V82.8477Z" fill="#353232"/>
<path d="M117.43 92.1406H108.027V101.708H117.43V92.1406Z" fill="#353232"/>
<path d="M135.687 92.1406H126.285V101.708H135.687V92.1406Z" fill="#353232"/>
<path d="M153.945 92.1406H144.543V101.708H153.945V92.1406Z" fill="#353232"/>
<path d="M172.195 92.1406H162.793V101.708H172.195V92.1406Z" fill="#353232"/>
<path d="M190.457 92.1406H181.055V101.708H190.457V92.1406Z" fill="#353232"/>
<path d="M208.715 92.1406H199.312V101.708H208.715V92.1406Z" fill="#353232"/>
<path d="M226.973 92.1406H217.57V101.708H226.973V92.1406Z" fill="#353232"/>
<path d="M126.551 101.434H117.148V111.001H126.551V101.434Z" fill="#353232"/>
<path d="M135.687 101.432H126.285V110.999H135.687V101.432Z" fill="#353232"/>
<path d="M144.812 101.434H135.41V111.001H144.812V101.434Z" fill="#353232"/>
<path d="M163.07 101.434H153.668V111.001H163.07V101.434Z" fill="#353232"/>
<path d="M172.195 101.434H162.793V111.001H172.195V101.434Z" fill="#353232"/>
<path d="M190.457 101.434H181.055V111.001H190.457V101.434Z" fill="#353232"/>
<path d="M217.84 101.434H208.438V111.001H217.84V101.434Z" fill="#353232"/>
<path d="M226.973 101.434H217.57V111.001H226.973V101.434Z" fill="#353232"/>
<path d="M53.5273 110.719H44.125V120.286H53.5273V110.719Z" fill="#353232"/>
<path d="M62.6601 110.719H53.2578V120.286H62.6601V110.719Z" fill="#353232"/>
<path d="M71.7851 110.719H62.3828V120.286H71.7851V110.719Z" fill="#353232"/>
<path d="M80.9218 110.719H71.5195V120.286H80.9218V110.719Z" fill="#353232"/>
<path d="M90.0429 110.719H80.6406V120.286H90.0429V110.719Z" fill="#353232"/>
<path d="M99.1679 110.719H89.7656V120.286H99.1679V110.719Z" fill="#353232"/>
<path d="M108.293 110.719H98.8906V120.286H108.293V110.719Z" fill="#353232"/>
<path d="M126.551 110.719H117.148V120.286H126.551V110.719Z" fill="#353232"/>
<path d="M144.812 110.719H135.41V120.286H144.812V110.719Z" fill="#353232"/>
<path d="M163.07 110.719H153.668V120.286H163.07V110.719Z" fill="#353232"/>
<path d="M181.32 110.719H171.918V120.286H181.32V110.719Z" fill="#353232"/>
<path d="M217.84 110.719H208.438V120.286H217.84V110.719Z" fill="#353232"/>
<path d="M254.359 110.719H244.957V120.286H254.359V110.719Z" fill="#353232"/>
<path d="M263.484 110.719H254.082V120.286H263.484V110.719Z" fill="#353232"/>
<path d="M300 110.719H290.598V120.286H300V110.719Z" fill="#353232"/>
<path d="M53.5273 120.01H44.125V129.577H53.5273V120.01Z" fill="#353232"/>
<path d="M62.6601 120.01H53.2578V129.577H62.6601V120.01Z" fill="#353232"/>
<path d="M71.7851 120.012H62.3828V129.579H71.7851V120.012Z" fill="#353232"/>
<path d="M90.0429 120.01H80.6406V129.577H90.0429V120.01Z" fill="#353232"/>
<path d="M108.293 120.012H98.8906V129.579H108.293V120.012Z" fill="#353232"/>
<path d="M117.43 120.01H108.027V129.577H117.43V120.01Z" fill="#353232"/>
<path d="M144.812 120.01H135.41V129.577H144.812V120.01Z" fill="#353232"/>
<path d="M153.945 120.01H144.543V129.577H153.945V120.01Z" fill="#353232"/>
<path d="M181.32 120.012H171.918V129.579H181.32V120.012Z" fill="#353232"/>
<path d="M208.715 120.012H199.312V129.579H208.715V120.012Z" fill="#353232"/>
<path d="M226.973 120.01H217.57V129.577H226.973V120.01Z" fill="#353232"/>
<path d="M236.098 120.01H226.695V129.577H236.098V120.01Z" fill="#353232"/>
<path d="M254.359 120.01H244.957V129.577H254.359V120.01Z" fill="#353232"/>
<path d="M263.484 120.01H254.082V129.577H263.484V120.01Z" fill="#353232"/>
<path d="M272.617 120.01H263.215V129.577H272.617V120.01Z" fill="#353232"/>
<path d="M300 120.01H290.598V129.577H300V120.01Z" fill="#353232"/>
<path d="M71.7851 129.297H62.3828V138.864H71.7851V129.297Z" fill="#353232"/>
<path d="M80.9218 129.297H71.5195V138.864H80.9218V129.297Z" fill="#353232"/>
<path d="M99.1679 129.297H89.7656V138.864H99.1679V129.297Z" fill="#353232"/>
<path d="M126.551 129.297H117.148V138.864H126.551V129.297Z" fill="#353232"/>
<path d="M135.687 129.297H126.285V138.864H135.687V129.297Z" fill="#353232"/>
<path d="M163.07 129.297H153.668V138.864H163.07V129.297Z" fill="#353232"/>
<path d="M181.32 129.297H171.918V138.864H181.32V129.297Z" fill="#353232"/>
<path d="M190.457 129.297H181.055V138.864H190.457V129.297Z" fill="#353232"/>
<path d="M236.098 129.297H226.695V138.864H236.098V129.297Z" fill="#353232"/>
<path d="M245.223 129.297H235.82V138.864H245.223V129.297Z" fill="#353232"/>
<path d="M254.359 129.297H244.957V138.864H254.359V129.297Z" fill="#353232"/>
<path d="M272.617 129.297H263.215V138.864H272.617V129.297Z" fill="#353232"/>
<path d="M281.742 129.297H272.34V138.864H281.742V129.297Z" fill="#353232"/>
<path d="M44.4023 138.582H35V148.15H44.4023V138.582Z" fill="#353232"/>
<path d="M53.5273 138.582H44.125V148.15H53.5273V138.582Z" fill="#353232"/>
<path d="M71.7851 138.582H62.3828V148.15H71.7851V138.582Z" fill="#353232"/>
<path d="M90.0429 138.582H80.6406V148.15H90.0429V138.582Z" fill="#353232"/>
<path d="M108.293 138.582H98.8906V148.15H108.293V138.582Z" fill="#353232"/>
<path d="M117.43 138.582H108.027V148.15H117.43V138.582Z" fill="#353232"/>
<path d="M126.551 138.582H117.148V148.15H126.551V138.582Z" fill="#353232"/>
<path d="M144.812 138.582H135.41V148.15H144.812V138.582Z" fill="#353232"/>
<path d="M163.07 138.582H153.668V148.15H163.07V138.582Z" fill="#353232"/>
<path d="M172.195 138.582H162.793V148.15H172.195V138.582Z" fill="#353232"/>
<path d="M190.457 138.582H181.055V148.15H190.457V138.582Z" fill="#353232"/>
<path d="M226.973 138.582H217.57V148.15H226.973V138.582Z" fill="#353232"/>
<path d="M236.098 138.582H226.695V148.15H236.098V138.582Z" fill="#353232"/>
<path d="M245.223 138.582H235.82V148.15H245.223V138.582Z" fill="#353232"/>
<path d="M254.359 138.582H244.957V148.15H254.359V138.582Z" fill="#353232"/>
<path d="M272.617 138.582H263.215V148.15H272.617V138.582Z" fill="#353232"/>
<path d="M290.867 138.582H281.465V148.15H290.867V138.582Z" fill="#353232"/>
<path d="M44.4023 147.875H35V157.443H44.4023V147.875Z" fill="#353232"/>
<path d="M62.6601 147.875H53.2578V157.443H62.6601V147.875Z" fill="#353232"/>
<path d="M80.9218 147.875H71.5195V157.443H80.9218V147.875Z" fill="#353232"/>
<path d="M99.1679 147.875H89.7656V157.443H99.1679V147.875Z" fill="#353232"/>
<path d="M153.945 147.875H144.543V157.443H153.945V147.875Z" fill="#353232"/>
<path d="M163.07 147.875H153.668V157.443H163.07V147.875Z" fill="#353232"/>
<path d="M181.32 147.875H171.918V157.443H181.32V147.875Z" fill="#353232"/>
<path d="M190.457 147.875H181.055V157.443H190.457V147.875Z" fill="#353232"/>
<path d="M199.578 147.875H190.176V157.443H199.578V147.875Z" fill="#353232"/>
<path d="M208.715 147.875H199.312V157.443H208.715V147.875Z" fill="#353232"/>
<path d="M217.84 147.875H208.438V157.443H217.84V147.875Z" fill="#353232"/>
<path d="M236.098 147.875H226.695V157.443H236.098V147.875Z" fill="#353232"/>
<path d="M254.359 147.875H244.957V157.443H254.359V147.875Z" fill="#353232"/>
<path d="M290.867 147.875H281.465V157.443H290.867V147.875Z" fill="#353232"/>
<path d="M300 147.875H290.598V157.443H300V147.875Z" fill="#353232"/>
<path d="M44.4023 157.16H35V166.728H44.4023V157.16Z" fill="#353232"/>
<path d="M80.9218 157.16H71.5195V166.728H80.9218V157.16Z" fill="#353232"/>
<path d="M108.293 157.16H98.8906V166.728H108.293V157.16Z" fill="#353232"/>
<path d="M117.43 157.164H108.027V166.732H117.43V157.164Z" fill="#353232"/>
<path d="M126.551 157.164H117.148V166.732H126.551V157.164Z" fill="#353232"/>
<path d="M153.945 157.164H144.543V166.732H153.945V157.164Z" fill="#353232"/>
<path d="M172.195 157.164H162.793V166.732H172.195V157.164Z" fill="#353232"/>
<path d="M181.32 157.16H171.918V166.728H181.32V157.16Z" fill="#353232"/>
<path d="M190.457 157.164H181.055V166.732H190.457V157.164Z" fill="#353232"/>
<path d="M199.578 157.164H190.176V166.732H199.578V157.164Z" fill="#353232"/>
<path d="M208.715 157.16H199.312V166.728H208.715V157.16Z" fill="#353232"/>
<path d="M217.84 157.164H208.438V166.732H217.84V157.164Z" fill="#353232"/>
<path d="M236.098 157.164H226.695V166.732H236.098V157.164Z" fill="#353232"/>
<path d="M245.223 157.16H235.82V166.728H245.223V157.16Z" fill="#353232"/>
<path d="M263.484 157.164H254.082V166.732H263.484V157.164Z" fill="#353232"/>
<path d="M272.617 157.164H263.215V166.732H272.617V157.164Z" fill="#353232"/>
<path d="M290.867 157.164H281.465V166.732H290.867V157.164Z" fill="#353232"/>
<path d="M300 157.164H290.598V166.732H300V157.164Z" fill="#353232"/>
<path d="M44.4023 166.453H35V176.021H44.4023V166.453Z" fill="#353232"/>
<path d="M99.1679 166.453H89.7656V176.021H99.1679V166.453Z" fill="#353232"/>
<path d="M108.293 166.453H98.8906V176.021H108.293V166.453Z" fill="#353232"/>
<path d="M126.551 166.453H117.148V176.021H126.551V166.453Z" fill="#353232"/>
<path d="M144.812 166.453H135.41V176.021H144.812V166.453Z" fill="#353232"/>
<path d="M163.07 166.453H153.668V176.021H163.07V166.453Z" fill="#353232"/>
<path d="M245.223 166.453H235.82V176.021H245.223V166.453Z" fill="#353232"/>
<path d="M254.359 166.453H244.957V176.021H254.359V166.453Z" fill="#353232"/>
<path d="M62.6601 175.738H53.2578V185.306H62.6601V175.738Z" fill="#353232"/>
<path d="M71.7851 175.738H62.3828V185.306H71.7851V175.738Z" fill="#353232"/>
<path d="M80.9218 175.738H71.5195V185.306H80.9218V175.738Z" fill="#353232"/>
<path d="M90.0429 175.738H80.6406V185.306H90.0429V175.738Z" fill="#353232"/>
<path d="M117.43 175.738H108.027V185.306H117.43V175.738Z" fill="#353232"/>
<path d="M126.551 175.738H117.148V185.306H126.551V175.738Z" fill="#353232"/>
<path d="M135.687 175.738H126.285V185.306H135.687V175.738Z" fill="#353232"/>
<path d="M144.812 175.738H135.41V185.306H144.812V175.738Z" fill="#353232"/>
<path d="M163.07 175.738H153.668V185.306H163.07V175.738Z" fill="#353232"/>
<path d="M172.195 175.738H162.793V185.306H172.195V175.738Z" fill="#353232"/>
<path d="M190.457 175.738H181.055V185.306H190.457V175.738Z" fill="#353232"/>
<path d="M226.973 175.738H217.57V185.306H226.973V175.738Z" fill="#353232"/>
<path d="M245.223 175.738H235.82V185.306H245.223V175.738Z" fill="#353232"/>
<path d="M263.484 175.738H254.082V185.306H263.484V175.738Z" fill="#353232"/>
<path d="M272.617 175.738H263.215V185.306H272.617V175.738Z" fill="#353232"/>
<path d="M44.4023 185.031H35V194.599H44.4023V185.031Z" fill="#353232"/>
<path d="M53.5273 185.031H44.125V194.599H53.5273V185.031Z" fill="#353232"/>
<path d="M62.6601 185.031H53.2578V194.599H62.6601V185.031Z" fill="#353232"/>
<path d="M80.9218 185.031H71.5195V194.599H80.9218V185.031Z" fill="#353232"/>
<path d="M90.0429 185.031H80.6406V194.599H90.0429V185.031Z" fill="#353232"/>
<path d="M99.1679 185.031H89.7656V194.599H99.1679V185.031Z" fill="#353232"/>
<path d="M108.293 185.031H98.8906V194.599H108.293V185.031Z" fill="#353232"/>
<path d="M135.687 185.031H126.285V194.599H135.687V185.031Z" fill="#353232"/>
<path d="M153.945 185.031H144.543V194.599H153.945V185.031Z" fill="#353232"/>
<path d="M172.195 185.031H162.793V194.599H172.195V185.031Z" fill="#353232"/>
<path d="M190.457 185.031H181.055V194.599H190.457V185.031Z" fill="#353232"/>
<path d="M199.578 185.031H190.176V194.599H199.578V185.031Z" fill="#353232"/>
<path d="M236.098 185.031H226.695V194.599H236.098V185.031Z" fill="#353232"/>
<path d="M272.617 185.031H263.215V194.599H272.617V185.031Z" fill="#353232"/>
<path d="M281.742 185.031H272.34V194.599H281.742V185.031Z" fill="#353232"/>
<path d="M44.4023 194.32H35V203.888H44.4023V194.32Z" fill="#353232"/>
<path d="M62.6601 194.32H53.2578V203.888H62.6601V194.32Z" fill="#353232"/>
<path d="M108.293 194.32H98.8906V203.888H108.293V194.32Z" fill="#353232"/>
<path d="M163.07 194.32H153.668V203.888H163.07V194.32Z" fill="#353232"/>
<path d="M181.32 194.32H171.918V203.888H181.32V194.32Z" fill="#353232"/>
<path d="M199.578 194.32H190.176V203.888H199.578V194.32Z" fill="#353232"/>
<path d="M217.84 194.32H208.438V203.888H217.84V194.32Z" fill="#353232"/>
<path d="M226.973 194.32H217.57V203.888H226.973V194.32Z" fill="#353232"/>
<path d="M245.223 194.32H235.82V203.888H245.223V194.32Z" fill="#353232"/>
<path d="M254.359 194.32H244.957V203.888H254.359V194.32Z" fill="#353232"/>
<path d="M263.484 194.32H254.082V203.888H263.484V194.32Z" fill="#353232"/>
<path d="M281.742 194.32H272.34V203.888H281.742V194.32Z" fill="#353232"/>
<path d="M290.867 194.32H281.465V203.888H290.867V194.32Z" fill="#353232"/>
<path d="M300 194.32H290.598V203.888H300V194.32Z" fill="#353232"/>
<path d="M44.4023 203.607H35V213.175H44.4023V203.607Z" fill="#353232"/>
<path d="M62.6601 203.607H53.2578V213.175H62.6601V203.607Z" fill="#353232"/>
<path d="M71.7851 203.609H62.3828V213.177H71.7851V203.609Z" fill="#353232"/>
<path d="M80.9218 203.607H71.5195V213.175H80.9218V203.607Z" fill="#353232"/>
<path d="M99.1679 203.607H89.7656V213.175H99.1679V203.607Z" fill="#353232"/>
<path d="M135.687 203.609H126.285V213.177H135.687V203.609Z" fill="#353232"/>
<path d="M144.812 203.607H135.41V213.175H144.812V203.607Z" fill="#353232"/>
<path d="M153.945 203.607H144.543V213.175H153.945V203.607Z" fill="#353232"/>
<path d="M172.195 203.607H162.793V213.175H172.195V203.607Z" fill="#353232"/>
<path d="M181.32 203.609H171.918V213.177H181.32V203.609Z" fill="#353232"/>
<path d="M190.457 203.607H181.055V213.175H190.457V203.607Z" fill="#353232"/>
<path d="M199.578 203.607H190.176V213.175H199.578V203.607Z" fill="#353232"/>
<path d="M245.223 203.607H235.82V213.175H245.223V203.607Z" fill="#353232"/>
<path d="M254.359 203.607H244.957V213.175H254.359V203.607Z" fill="#353232"/>
<path d="M44.4023 212.895H35V222.462H44.4023V212.895Z" fill="#353232"/>
<path d="M71.7851 212.895H62.3828V222.462H71.7851V212.895Z" fill="#353232"/>
<path d="M90.0429 212.895H80.6406V222.462H90.0429V212.895Z" fill="#353232"/>
<path d="M117.43 212.895H108.027V222.462H117.43V212.895Z" fill="#353232"/>
<path d="M126.551 212.895H117.148V222.462H126.551V212.895Z" fill="#353232"/>
<path d="M163.07 212.895H153.668V222.462H163.07V212.895Z" fill="#353232"/>
<path d="M172.195 212.895H162.793V222.462H172.195V212.895Z" fill="#353232"/>
<path d="M181.32 212.895H171.918V222.462H181.32V212.895Z" fill="#353232"/>
<path d="M245.223 212.895H235.82V222.462H245.223V212.895Z" fill="#353232"/>
<path d="M263.484 212.895H254.082V222.462H263.484V212.895Z" fill="#353232"/>
<path d="M290.867 212.895H281.465V222.462H290.867V212.895Z" fill="#353232"/>
<path d="M300 212.895H290.598V222.462H300V212.895Z" fill="#353232"/>
<path d="M44.4023 222.186H35V231.753H44.4023V222.186Z" fill="#353232"/>
<path d="M80.9218 222.186H71.5195V231.753H80.9218V222.186Z" fill="#353232"/>
<path d="M90.0429 222.186H80.6406V231.753H90.0429V222.186Z" fill="#353232"/>
<path d="M99.1679 222.186H89.7656V231.753H99.1679V222.186Z" fill="#353232"/>
<path d="M108.293 222.186H98.8906V231.753H108.293V222.186Z" fill="#353232"/>
<path d="M144.812 222.186H135.41V231.753H144.812V222.186Z" fill="#353232"/>
<path d="M153.945 222.186H144.543V231.753H153.945V222.186Z" fill="#353232"/>
<path d="M163.07 222.186H153.668V231.753H163.07V222.186Z" fill="#353232"/>
<path d="M172.195 222.186H162.793V231.753H172.195V222.186Z" fill="#353232"/>
<path d="M181.32 222.186H171.918V231.753H181.32V222.186Z" fill="#353232"/>
<path d="M190.457 222.186H181.055V231.753H190.457V222.186Z" fill="#353232"/>
<path d="M199.578 222.186H190.176V231.753H199.578V222.186Z" fill="#353232"/>
<path d="M208.715 222.186H199.312V231.753H208.715V222.186Z" fill="#353232"/>
<path d="M226.973 222.186H217.57V231.753H226.973V222.186Z" fill="#353232"/>
<path d="M236.098 222.186H226.695V231.753H236.098V222.186Z" fill="#353232"/>
<path d="M245.223 222.186H235.82V231.753H245.223V222.186Z" fill="#353232"/>
<path d="M254.359 222.186H244.957V231.753H254.359V222.186Z" fill="#353232"/>
<path d="M263.484 222.186H254.082V231.753H263.484V222.186Z" fill="#353232"/>
<path d="M272.617 222.186H263.215V231.753H272.617V222.186Z" fill="#353232"/>
<path d="M281.742 222.186H272.34V231.753H281.742V222.186Z" fill="#353232"/>
<path d="M300 222.186H290.598V231.753H300V222.186Z" fill="#353232"/>
<path d="M117.43 231.473H108.027V241.04H117.43V231.473Z" fill="#353232"/>
<path d="M163.07 231.473H153.668V241.04H163.07V231.473Z" fill="#353232"/>
<path d="M181.32 231.473H171.918V241.04H181.32V231.473Z" fill="#353232"/>
<path d="M190.457 231.473H181.055V241.04H190.457V231.473Z" fill="#353232"/>
<path d="M199.578 231.473H190.176V241.04H199.578V231.473Z" fill="#353232"/>
<path d="M208.715 231.473H199.312V241.04H208.715V231.473Z" fill="#353232"/>
<path d="M217.84 231.473H208.438V241.04H217.84V231.473Z" fill="#353232"/>
<path d="M226.973 231.473H217.57V241.04H226.973V231.473Z" fill="#353232"/>
<path d="M263.484 231.473H254.082V241.04H263.484V231.473Z" fill="#353232"/>
<path d="M272.617 231.473H263.215V241.04H272.617V231.473Z" fill="#353232"/>
<path d="M300 231.473H290.598V241.04H300V231.473Z" fill="#353232"/>
<path d="M117.43 240.764H108.027V250.331H117.43V240.764Z" fill="#353232"/>
<path d="M144.812 240.764H135.41V250.331H144.812V240.764Z" fill="#353232"/>
<path d="M153.945 240.764H144.543V250.331H153.945V240.764Z" fill="#353232"/>
<path d="M163.07 240.764H153.668V250.331H163.07V240.764Z" fill="#353232"/>
<path d="M172.195 240.764H162.793V250.331H172.195V240.764Z" fill="#353232"/>
<path d="M181.32 240.764H171.918V250.331H181.32V240.764Z" fill="#353232"/>
<path d="M208.715 240.764H199.312V250.331H208.715V240.764Z" fill="#353232"/>
<path d="M217.84 240.764H208.438V250.331H217.84V240.764Z" fill="#353232"/>
<path d="M226.973 240.764H217.57V250.331H226.973V240.764Z" fill="#353232"/>
<path d="M245.223 240.764H235.82V250.331H245.223V240.764Z" fill="#353232"/>
<path d="M263.484 240.764H254.082V250.331H263.484V240.764Z" fill="#353232"/>
<path d="M117.43 250.051H108.027V259.618H117.43V250.051Z" fill="#353232"/>
<path d="M135.687 250.051H126.285V259.618H135.687V250.051Z" fill="#353232"/>
<path d="M153.945 250.051H144.543V259.618H153.945V250.051Z" fill="#353232"/>
<path d="M172.195 250.051H162.793V259.618H172.195V250.051Z" fill="#353232"/>
<path d="M217.84 250.051H208.438V259.618H217.84V250.051Z" fill="#353232"/>
<path d="M226.973 250.051H217.57V259.618H226.973V250.051Z" fill="#353232"/>
<path d="M263.484 250.051H254.082V259.618H263.484V250.051Z" fill="#353232"/>
<path d="M272.617 250.051H263.215V259.618H272.617V250.051Z" fill="#353232"/>
<path d="M117.43 259.34H108.027V268.907H117.43V259.34Z" fill="#353232"/>
<path d="M126.551 259.34H117.148V268.907H126.551V259.34Z" fill="#353232"/>
<path d="M144.812 259.34H135.41V268.907H144.812V259.34Z" fill="#353232"/>
<path d="M163.07 259.34H153.668V268.907H163.07V259.34Z" fill="#353232"/>
<path d="M181.32 259.34H171.918V268.907H181.32V259.34Z" fill="#353232"/>
<path d="M208.715 259.34H199.312V268.907H208.715V259.34Z" fill="#353232"/>
<path d="M226.973 259.34H217.57V268.907H226.973V259.34Z" fill="#353232"/>
<path d="M236.098 259.34H226.695V268.907H236.098V259.34Z" fill="#353232"/>
<path d="M245.223 259.34H235.82V268.907H245.223V259.34Z" fill="#353232"/>
<path d="M254.359 259.34H244.957V268.907H254.359V259.34Z" fill="#353232"/>
<path d="M263.484 259.34H254.082V268.907H263.484V259.34Z" fill="#353232"/>
<path d="M272.617 259.34H263.215V268.907H272.617V259.34Z" fill="#353232"/>
<path d="M281.742 259.34H272.34V268.907H281.742V259.34Z" fill="#353232"/>
<path d="M290.867 259.34H281.465V268.907H290.867V259.34Z" fill="#353232"/>
<path d="M300 259.34H290.598V268.907H300V259.34Z" fill="#353232"/>
<path d="M117.43 268.629H108.027V278.196H117.43V268.629Z" fill="#353232"/>
<path d="M126.551 268.629H117.148V278.196H126.551V268.629Z" fill="#353232"/>
<path d="M135.687 268.629H126.285V278.196H135.687V268.629Z" fill="#353232"/>
<path d="M144.812 268.629H135.41V278.196H144.812V268.629Z" fill="#353232"/>
<path d="M181.32 268.629H171.918V278.196H181.32V268.629Z" fill="#353232"/>
<path d="M190.457 268.629H181.055V278.196H190.457V268.629Z" fill="#353232"/>
<path d="M199.578 268.629H190.176V278.196H199.578V268.629Z" fill="#353232"/>
<path d="M208.715 268.629H199.312V278.196H208.715V268.629Z" fill="#353232"/>
<path d="M217.84 268.629H208.438V278.196H217.84V268.629Z" fill="#353232"/>
<path d="M226.973 268.629H217.57V278.196H226.973V268.629Z" fill="#353232"/>
<path d="M236.098 268.629H226.695V278.196H236.098V268.629Z" fill="#353232"/>
<path d="M254.359 268.629H244.957V278.196H254.359V268.629Z" fill="#353232"/>
<path d="M272.617 268.629H263.215V278.196H272.617V268.629Z" fill="#353232"/>
<path d="M117.43 277.92H108.027V287.487H117.43V277.92Z" fill="#353232"/>
<path d="M135.687 277.92H126.285V287.487H135.687V277.92Z" fill="#353232"/>
<path d="M144.812 277.92H135.41V287.487H144.812V277.92Z" fill="#353232"/>
<path d="M153.945 277.92H144.543V287.487H153.945V277.92Z" fill="#353232"/>
<path d="M172.195 277.92H162.793V287.487H172.195V277.92Z" fill="#353232"/>
<path d="M199.578 277.92H190.176V287.487H199.578V277.92Z" fill="#353232"/>
<path d="M208.715 277.918H199.312V287.486H208.715V277.918Z" fill="#353232"/>
<path d="M217.84 277.92H208.438V287.487H217.84V277.92Z" fill="#353232"/>
<path d="M226.973 277.92H217.57V287.487H226.973V277.92Z" fill="#353232"/>
<path d="M236.098 277.92H226.695V287.487H236.098V277.92Z" fill="#353232"/>
<path d="M245.223 277.918H235.82V287.486H245.223V277.918Z" fill="#353232"/>
<path d="M254.359 277.92H244.957V287.487H254.359V277.92Z" fill="#353232"/>
<path d="M263.484 277.92H254.082V287.487H263.484V277.92Z" fill="#353232"/>
<path d="M272.617 277.92H263.215V287.487H272.617V277.92Z" fill="#353232"/>
<path d="M281.742 277.918H272.34V287.486H281.742V277.918Z" fill="#353232"/>
<path d="M290.867 277.92H281.465V287.487H290.867V277.92Z" fill="#353232"/>
<path d="M117.43 287.207H108.027V296.775H117.43V287.207Z" fill="#353232"/>
<path d="M126.551 287.207H117.148V296.775H126.551V287.207Z" fill="#353232"/>
<path d="M144.812 287.207H135.41V296.775H144.812V287.207Z" fill="#353232"/>
<path d="M190.457 287.207H181.055V296.775H190.457V287.207Z" fill="#353232"/>
<path d="M217.84 287.207H208.438V296.775H217.84V287.207Z" fill="#353232"/>
<path d="M226.973 287.207H217.57V296.775H226.973V287.207Z" fill="#353232"/>
<path d="M236.098 287.207H226.695V296.775H236.098V287.207Z" fill="#353232"/>
<path d="M263.484 287.207H254.082V296.775H263.484V287.207Z" fill="#353232"/>
<path d="M290.867 287.207H281.465V296.775H290.867V287.207Z" fill="#353232"/>
<path d="M126.551 296.496H117.148V306.064H126.551V296.496Z" fill="#353232"/>
<path d="M135.687 296.496H126.285V306.064H135.687V296.496Z" fill="#353232"/>
<path d="M144.812 296.496H135.41V306.064H144.812V296.496Z" fill="#353232"/>
<path d="M153.945 296.496H144.543V306.064H153.945V296.496Z" fill="#353232"/>
<path d="M163.07 296.496H153.668V306.064H163.07V296.496Z" fill="#353232"/>
<path d="M190.457 296.496H181.055V306.064H190.457V296.496Z" fill="#353232"/>
<path d="M217.84 296.496H208.438V306.064H217.84V296.496Z" fill="#353232"/>
<path d="M236.098 296.496H226.695V306.064H236.098V296.496Z" fill="#353232"/>
<path d="M263.484 296.496H254.082V306.064H263.484V296.496Z" fill="#353232"/>
<path d="M272.617 296.496H263.215V306.064H272.617V296.496Z" fill="#353232"/>
<path d="M281.742 296.496H272.34V306.064H281.742V296.496Z" fill="#353232"/>
<path d="M55.539 101.429H78.8165C89.7706 101.429 98.8991 92.1397 98.8991 80.993V57.3063C98.8991 45.6952 89.7706 36.4062 78.3601 36.4062H55.0826C44.1284 36.4062 35 45.6952 35 56.8418V80.5285C35 92.1397 44.1284 101.429 55.539 101.429ZM89.7706 58.6996V79.1352C89.7706 86.1019 83.8372 92.1397 76.9908 92.1397H56.9083C49.6055 92.1397 44.1284 86.5663 44.1284 79.1352V58.6996C44.1284 51.7329 50.0619 45.6952 56.9083 45.6952H76.9908C84.2936 45.6952 89.7706 51.2685 89.7706 58.6996Z" fill="#353232"/>
<path d="M256.359 101.429H279.637C290.591 101.429 299.719 92.1397 299.719 80.993V57.3063C299.719 45.6952 290.591 36.4062 279.18 36.4062H255.903C244.949 36.4062 235.82 45.6952 235.82 56.8418V80.5285C235.82 92.1397 244.949 101.429 256.359 101.429ZM290.591 58.6996V79.1352C290.591 86.1019 284.657 92.1397 277.811 92.1397H257.729C250.426 92.1397 244.949 86.5663 244.949 79.1352V58.6996C244.949 51.7329 250.882 45.6952 257.729 45.6952H277.811C285.114 45.6952 290.591 51.2685 290.591 58.6996Z" fill="#353232"/>
<path d="M55.539 305.786H78.8165C89.7706 305.786 98.8991 296.497 98.8991 285.35V261.664C98.8991 250.053 89.7706 240.764 78.3601 240.764H55.0826C44.1284 240.764 35 250.053 35 261.199V284.886C35 296.497 44.1284 305.786 55.539 305.786ZM89.7706 263.057V283.493C89.7706 290.459 83.8372 296.497 76.9908 296.497H56.9083C49.6055 296.497 44.1284 290.924 44.1284 283.493V263.057C44.1284 256.09 50.0619 250.053 56.9083 250.053H76.9908C84.2936 250.053 89.7706 255.626 89.7706 263.057Z" fill="#353232"/>
<path d="M80.6431 54.9844H53.2578V82.8511H80.6431V54.9844Z" fill="#353232"/>
<path d="M281.467 54.9844H254.082V82.8511H281.467V54.9844Z" fill="#353232"/>
<path d="M80.6431 259.34H53.2578V287.207H80.6431V259.34Z" fill="#353232"/>
</svg>
