<svg width="26" height="26" viewBox="0 0 26 26" fill="none" xmlns="http://www.w3.org/2000/svg">
<g clip-path="url(#clip0_1_58032)">
<path d="M25.8805 12.7421C25.8805 12.6122 25.7757 12.5045 25.6467 12.4984C21.0185 12.3218 18.2018 11.7268 16.2313 9.74086C14.2567 7.75086 13.6683 4.91002 13.493 0.235552C13.489 0.105592 13.3822 0 13.2513 0H12.7113C12.5823 0 12.4755 0.105592 12.4695 0.235552C12.2942 4.90799 11.7058 7.75086 9.73126 9.74086C7.7587 11.7288 4.94393 12.3218 0.315757 12.4984C0.186805 12.5025 0.0820312 12.6101 0.0820312 12.7421V13.2863C0.0820312 13.4163 0.186805 13.5239 0.315757 13.53C4.94393 13.7067 7.76072 14.3016 9.73126 16.2876C11.7018 18.2735 12.2902 21.1063 12.4675 25.7623C12.4715 25.8923 12.5783 25.998 12.7092 25.998H13.2513C13.3802 25.998 13.487 25.8923 13.493 25.7623C13.6703 21.1063 14.2587 18.2735 16.2292 16.2876C18.2018 14.2996 21.0165 13.7067 25.6447 13.53C25.7737 13.5259 25.8785 13.4183 25.8785 13.2863V12.7421H25.8805Z" fill="white"/>
</g>
<defs>
<clipPath id="clip0_1_58032">
<rect width="26" height="26" fill="white"/>
</clipPath>
</defs>
</svg>
