<svg width="247" height="23" viewBox="0 0 247 23" fill="none" xmlns="http://www.w3.org/2000/svg">
<path d="M0.567414 0.423999H22.9264V22H16.9524V5.18H6.54141V22H0.567414V0.423999ZM41.5467 0.0759988C44.06 0.0759988 46.148 0.414332 47.8107 1.091C49.4927 1.74833 50.8267 2.599 51.8127 3.643C52.7987 4.66767 53.4947 5.80833 53.9007 7.065C54.3067 8.32167 54.5097 9.53967 54.5097 10.719V11.589C54.5097 12.749 54.3067 13.967 53.9007 15.243C53.4947 16.4997 52.7987 17.6597 51.8127 18.723C50.8267 19.767 49.4927 20.637 47.8107 21.333C46.148 22.0097 44.06 22.348 41.5467 22.348H40.2707C38.5887 22.348 37.1 22.1933 35.8047 21.884C34.5093 21.5553 33.3783 21.1203 32.4117 20.579C31.4643 20.0377 30.662 19.419 30.0047 18.723C29.3473 18.0077 28.8157 17.2537 28.4097 16.461C28.023 15.649 27.7427 14.8273 27.5687 13.996C27.3947 13.1647 27.3077 12.3623 27.3077 11.589V10.719C27.3077 9.92633 27.3947 9.124 27.5687 8.312C27.7427 7.48067 28.023 6.66867 28.4097 5.876C28.8157 5.08333 29.3473 4.339 30.0047 3.643C30.662 2.92767 31.4643 2.309 32.4117 1.787C33.3783 1.265 34.5093 0.849333 35.8047 0.54C37.1 0.230666 38.5887 0.0759988 40.2707 0.0759988H41.5467ZM48.3037 10.951C48.3037 10.2937 48.1973 9.617 47.9847 8.921C47.7913 8.20567 47.424 7.558 46.8827 6.978C46.3413 6.398 45.5873 5.92433 44.6207 5.557C43.6733 5.18967 42.436 5.006 40.9087 5.006C39.4007 5.006 38.1633 5.18967 37.1967 5.557C36.2493 5.92433 35.4953 6.398 34.9347 6.978C34.3933 7.558 34.0163 8.20567 33.8037 8.921C33.6103 9.617 33.5137 10.2937 33.5137 10.951V11.357C33.5137 12.0143 33.62 12.7007 33.8327 13.416C34.0453 14.112 34.4223 14.7597 34.9637 15.359C35.5243 15.939 36.2783 16.4223 37.2257 16.809C38.1923 17.1957 39.42 17.389 40.9087 17.389C42.4167 17.389 43.654 17.1957 44.6207 16.809C45.5873 16.4223 46.3413 15.939 46.8827 15.359C47.424 14.7597 47.7913 14.112 47.9847 13.416C48.1973 12.7007 48.3037 12.0143 48.3037 11.357V10.951ZM64.8529 11.85V22H58.8789V0.423999H64.8529V9.298L74.9449 0.423999H82.5429L71.1749 10.313L83.0359 22H75.2349L64.8529 11.85ZM97.4793 0.0759988C99.9926 0.0759988 102.081 0.414332 103.743 1.091C105.425 1.74833 106.759 2.599 107.745 3.643C108.731 4.66767 109.427 5.80833 109.833 7.065C110.239 8.32167 110.442 9.53967 110.442 10.719V11.589C110.442 12.749 110.239 13.967 109.833 15.243C109.427 16.4997 108.731 17.6597 107.745 18.723C106.759 19.767 105.425 20.637 103.743 21.333C102.081 22.0097 99.9926 22.348 97.4793 22.348H96.2033C94.5213 22.348 93.0326 22.1933 91.7373 21.884C90.442 21.5553 89.311 21.1203 88.3443 20.579C87.397 20.0377 86.5946 19.419 85.9373 18.723C85.28 18.0077 84.7483 17.2537 84.3423 16.461C83.9556 15.649 83.6753 14.8273 83.5013 13.996C83.3273 13.1647 83.2403 12.3623 83.2403 11.589V10.719C83.2403 9.92633 83.3273 9.124 83.5013 8.312C83.6753 7.48067 83.9556 6.66867 84.3423 5.876C84.7483 5.08333 85.28 4.339 85.9373 3.643C86.5946 2.92767 87.397 2.309 88.3443 1.787C89.311 1.265 90.442 0.849333 91.7373 0.54C93.0326 0.230666 94.5213 0.0759988 96.2033 0.0759988H97.4793ZM104.236 10.951C104.236 10.2937 104.13 9.617 103.917 8.921C103.724 8.20567 103.357 7.558 102.815 6.978C102.274 6.398 101.52 5.92433 100.553 5.557C99.606 5.18967 98.3686 5.006 96.8413 5.006C95.3333 5.006 94.096 5.18967 93.1293 5.557C92.182 5.92433 91.428 6.398 90.8673 6.978C90.326 7.558 89.949 8.20567 89.7363 8.921C89.543 9.617 89.4463 10.2937 89.4463 10.951V11.357C89.4463 12.0143 89.5526 12.7007 89.7653 13.416C89.978 14.112 90.355 14.7597 90.8963 15.359C91.457 15.939 92.211 16.4223 93.1583 16.809C94.125 17.1957 95.3526 17.389 96.8413 17.389C98.3493 17.389 99.5866 17.1957 100.553 16.809C101.52 16.4223 102.274 15.939 102.815 15.359C103.357 14.7597 103.724 14.112 103.917 13.416C104.13 12.7007 104.236 12.0143 104.236 11.357V10.951ZM131.864 5.18H122.584C122.584 8.11867 122.506 10.6803 122.352 12.865C122.197 15.0497 121.926 16.7317 121.54 17.911C121.366 18.433 121.143 18.9357 120.873 19.419C120.602 19.9023 120.235 20.3373 119.771 20.724C119.307 21.1107 118.717 21.42 118.002 21.652C117.286 21.884 116.387 22 115.305 22H113.159V16.925H113.362C114.251 16.925 114.899 16.751 115.305 16.403C115.73 16.055 116.03 15.6587 116.204 15.214C116.3 14.9627 116.387 14.6823 116.465 14.373C116.542 14.0637 116.6 13.677 116.639 13.213C116.697 12.7297 116.745 12.1497 116.784 11.473C116.822 10.777 116.851 9.92633 116.871 8.921C116.89 7.89633 116.9 6.69767 116.9 5.325C116.919 3.933 116.929 2.29933 116.929 0.423999H137.838V22H131.864V5.18ZM162.909 0.423999V5.122H149.047V8.631H162.474V13.503H149.047V17.244H163.083V22H143.16V0.423999H162.909ZM185.865 13.329H173.83V22H167.856V0.423999H173.83V8.428H185.865V0.423999H191.839V22H185.865V13.329ZM215.756 7.5L203.141 22H197.167V0.423999H203.141V14.924L215.756 0.423999H221.73V22H215.756V7.5ZM246.822 0.423999V5.122H232.96V8.631H246.387V13.503H232.96V17.244H246.996V22H227.073V0.423999H246.822Z" fill="#FF4E00"/>
</svg>
