<svg width="44" height="45" viewBox="0 0 44 45" fill="none" xmlns="http://www.w3.org/2000/svg">
<rect x="0.929688" width="42.907" height="45" rx="8" fill="url(#paint0_linear_1_55653)"/>
<path d="M14.5927 29V26.858C14.5927 26.366 14.6407 25.886 14.7367 25.418C14.8447 24.938 15.0847 24.482 15.4567 24.05C15.8407 23.606 16.4047 23.18 17.1487 22.772C17.9047 22.364 18.9247 21.98 20.2087 21.62C20.5567 21.524 20.9047 21.428 21.2527 21.332C21.6127 21.236 21.9427 21.146 22.2427 21.062C22.7227 20.942 23.1127 20.828 23.4127 20.72C23.7127 20.612 23.9467 20.504 24.1147 20.396C24.2827 20.288 24.3967 20.174 24.4567 20.054C24.5167 19.934 24.5467 19.802 24.5467 19.658V19.64C24.5467 19.484 24.5107 19.334 24.4387 19.19C24.3787 19.046 24.2527 18.92 24.0607 18.812C23.8807 18.704 23.6227 18.62 23.2867 18.56C22.9627 18.5 22.5367 18.47 22.0087 18.47C21.3727 18.47 20.8747 18.542 20.5147 18.686C20.1547 18.83 19.8787 19.004 19.6867 19.208C19.5067 19.4 19.3927 19.604 19.3447 19.82C19.2967 20.036 19.2667 20.222 19.2547 20.378H14.8267V20.252C14.8267 19.952 14.8567 19.628 14.9167 19.28C14.9767 18.92 15.0907 18.56 15.2587 18.2C15.4267 17.84 15.6607 17.498 15.9607 17.174C16.2727 16.838 16.6747 16.544 17.1667 16.292C17.6707 16.028 18.2767 15.818 18.9847 15.662C19.6927 15.506 20.5327 15.428 21.5047 15.428H22.4047C23.7007 15.428 24.7747 15.536 25.6267 15.752C26.4907 15.968 27.1747 16.268 27.6787 16.652C28.1827 17.024 28.5367 17.468 28.7407 17.984C28.9567 18.5 29.0647 19.052 29.0647 19.64V19.784C29.0647 20.384 28.9567 20.906 28.7407 21.35C28.5367 21.782 28.2067 22.16 27.7507 22.484C27.3067 22.796 26.7247 23.066 26.0047 23.294C25.2967 23.522 24.4387 23.726 23.4307 23.906C23.0707 23.978 22.7047 24.05 22.3327 24.122C21.9727 24.194 21.6367 24.266 21.3247 24.338C20.6767 24.47 20.1487 24.596 19.7407 24.716C19.3447 24.836 19.0387 24.95 18.8227 25.058C18.6067 25.166 18.4627 25.268 18.3907 25.364C18.3187 25.448 18.2827 25.526 18.2827 25.598H29.3527V29H14.5927Z" fill="white"/>
<defs>
<linearGradient id="paint0_linear_1_55653" x1="22.9307" y1="-2.28214" x2="23.3752" y2="50.879" gradientUnits="userSpaceOnUse">
<stop stop-color="#FF7A40"/>
<stop offset="0.988999" stop-color="#FF4E00"/>
</linearGradient>
</defs>
</svg>
