<svg width="44" height="45" viewBox="0 0 44 45" fill="none" xmlns="http://www.w3.org/2000/svg">
<rect x="0.929688" width="42.907" height="45" rx="8" fill="url(#paint0_linear_1_55640)"/>
<path d="M21.264 29.198C20.244 29.198 19.356 29.12 18.6 28.964C17.856 28.796 17.226 28.58 16.71 28.316C16.194 28.052 15.774 27.752 15.45 27.416C15.138 27.08 14.892 26.744 14.712 26.408C14.532 26.06 14.412 25.724 14.352 25.4C14.292 25.076 14.262 24.794 14.262 24.554V24.356H18.726C18.738 24.452 18.774 24.59 18.834 24.77C18.894 24.95 19.02 25.13 19.212 25.31C19.416 25.478 19.716 25.628 20.112 25.76C20.508 25.892 21.06 25.958 21.768 25.958C22.464 25.958 23.022 25.916 23.442 25.832C23.862 25.736 24.18 25.622 24.396 25.49C24.612 25.346 24.75 25.19 24.81 25.022C24.882 24.854 24.918 24.698 24.918 24.554V24.536C24.918 24.236 24.804 23.99 24.576 23.798C24.36 23.606 23.922 23.51 23.262 23.51H19.14V20.63H23.244C23.544 20.63 23.79 20.606 23.982 20.558C24.186 20.498 24.342 20.426 24.45 20.342C24.558 20.258 24.63 20.162 24.666 20.054C24.714 19.934 24.738 19.814 24.738 19.694C24.738 19.55 24.708 19.412 24.648 19.28C24.6 19.136 24.474 19.01 24.27 18.902C24.066 18.782 23.76 18.686 23.352 18.614C22.956 18.542 22.41 18.506 21.714 18.506C21.018 18.506 20.478 18.56 20.094 18.668C19.71 18.776 19.422 18.902 19.23 19.046C19.05 19.19 18.936 19.334 18.888 19.478C18.84 19.622 18.81 19.73 18.798 19.802H14.442V19.586C14.442 19.394 14.466 19.154 14.514 18.866C14.562 18.578 14.664 18.284 14.82 17.984C14.976 17.672 15.204 17.366 15.504 17.066C15.804 16.754 16.194 16.478 16.674 16.238C17.166 15.998 17.766 15.806 18.474 15.662C19.194 15.506 20.052 15.428 21.048 15.428H22.092C23.58 15.428 24.774 15.536 25.674 15.752C26.586 15.968 27.288 16.244 27.78 16.58C28.272 16.916 28.596 17.288 28.752 17.696C28.92 18.092 29.004 18.476 29.004 18.848V18.974C29.004 19.334 28.944 19.652 28.824 19.928C28.704 20.192 28.548 20.426 28.356 20.63C28.164 20.822 27.936 20.984 27.672 21.116C27.42 21.248 27.162 21.35 26.898 21.422C27.21 21.494 27.516 21.608 27.816 21.764C28.116 21.908 28.386 22.106 28.626 22.358C28.866 22.61 29.058 22.916 29.202 23.276C29.358 23.624 29.436 24.032 29.436 24.5V24.608C29.436 25.112 29.34 25.64 29.148 26.192C28.968 26.732 28.614 27.224 28.086 27.668C27.558 28.112 26.814 28.478 25.854 28.766C24.906 29.054 23.658 29.198 22.11 29.198H21.264Z" fill="white"/>
<defs>
<linearGradient id="paint0_linear_1_55640" x1="22.9307" y1="-2.28214" x2="23.3752" y2="50.879" gradientUnits="userSpaceOnUse">
<stop stop-color="#FF7A40"/>
<stop offset="0.988999" stop-color="#FF4E00"/>
</linearGradient>
</defs>
</svg>
