<svg width="1098" height="277" viewBox="0 0 1098 277" fill="none" xmlns="http://www.w3.org/2000/svg">
<path d="M1106.41 238.364C1106.35 238.278 1106.27 238.17 1106.17 238.042C1105.88 237.655 1105.44 237.079 1104.85 236.326C1103.68 234.819 1101.92 232.602 1099.57 229.769C1094.88 224.101 1087.86 215.968 1078.53 206.116C1059.86 186.411 1031.97 159.836 995.087 132.371C921.311 77.4394 811.556 18.9589 667.618 4.73846C551.502 -6.73327 458.861 16.2804 395.258 42.1536C363.455 55.0906 338.912 68.743 322.326 79.1557C314.033 84.3618 307.73 88.7577 303.504 91.8494C301.39 93.3952 299.796 94.6156 298.732 95.4473C298.201 95.8629 297.801 96.1812 297.536 96.3953C297.403 96.5023 297.303 96.5837 297.238 96.6374C297.205 96.6642 297.18 96.6846 297.164 96.6977C297.156 96.7042 297.15 96.709 297.146 96.7121C297.145 96.7135 297.143 96.7142 297.143 96.7149C297.138 96.7111 297.092 96.6561 296.503 95.9474L297.142 96.7159L295.109 98.405L295.515 95.7942L309.677 4.49755C282.327 8.74093 251.731 21.267 222.571 37.2624C192.946 53.5136 164.868 73.3091 143.277 91.5264C39.0219 179.492 5.26933 271.818 1.39072 295.248L1.49501 373.536L1106.59 374.89L1106.41 238.364Z" stroke="#FF4E00" stroke-width="2"/>
</svg>
