<svg width="426" height="39" viewBox="0 0 426 39" fill="none" xmlns="http://www.w3.org/2000/svg">
<path d="M0.6 0.799999H39.15V38H28.85V9H10.9V38H0.6V0.799999ZM71.2539 0.199998C75.5872 0.199998 79.1872 0.783332 82.0539 1.95C84.9539 3.08333 87.2539 4.55 88.9539 6.35C90.6539 8.11666 91.8539 10.0833 92.5539 12.25C93.2539 14.4167 93.6039 16.5167 93.6039 18.55V20.05C93.6039 22.05 93.2539 24.15 92.5539 26.35C91.8539 28.5167 90.6539 30.5167 88.9539 32.35C87.2539 34.15 84.9539 35.65 82.0539 36.85C79.1872 38.0167 75.5872 38.6 71.2539 38.6H69.0539C66.1539 38.6 63.5872 38.3333 61.3539 37.8C59.1206 37.2333 57.1706 36.4833 55.5039 35.55C53.8706 34.6167 52.4872 33.55 51.3539 32.35C50.2206 31.1167 49.3039 29.8167 48.6039 28.45C47.9372 27.05 47.4539 25.6333 47.1539 24.2C46.8539 22.7667 46.7039 21.3833 46.7039 20.05V18.55C46.7039 17.1833 46.8539 15.8 47.1539 14.4C47.4539 12.9667 47.9372 11.5667 48.6039 10.2C49.3039 8.83333 50.2206 7.55 51.3539 6.35C52.4872 5.11667 53.8706 4.05 55.5039 3.15C57.1706 2.25 59.1206 1.53333 61.3539 1C63.5872 0.466665 66.1539 0.199998 69.0539 0.199998H71.2539ZM82.9039 18.95C82.9039 17.8167 82.7206 16.65 82.3539 15.45C82.0206 14.2167 81.3872 13.1 80.4539 12.1C79.5206 11.1 78.2206 10.2833 76.5539 9.65C74.9206 9.01667 72.7872 8.7 70.1539 8.7C67.5539 8.7 65.4206 9.01667 63.7539 9.65C62.1206 10.2833 60.8206 11.1 59.8539 12.1C58.9206 13.1 58.2706 14.2167 57.9039 15.45C57.5706 16.65 57.4039 17.8167 57.4039 18.95V19.65C57.4039 20.7833 57.5872 21.9667 57.9539 23.2C58.3206 24.4 58.9706 25.5167 59.9039 26.55C60.8706 27.55 62.1706 28.3833 63.8039 29.05C65.4706 29.7167 67.5872 30.05 70.1539 30.05C72.7539 30.05 74.8872 29.7167 76.5539 29.05C78.2206 28.3833 79.5206 27.55 80.4539 26.55C81.3872 25.5167 82.0206 24.4 82.3539 23.2C82.7206 21.9667 82.9039 20.7833 82.9039 19.65V18.95ZM111.437 20.5V38H101.137V0.799999H111.437V16.1L128.837 0.799999H141.937L122.337 17.85L142.787 38H129.337L111.437 20.5ZM167.689 0.199998C172.023 0.199998 175.623 0.783332 178.489 1.95C181.389 3.08333 183.689 4.55 185.389 6.35C187.089 8.11666 188.289 10.0833 188.989 12.25C189.689 14.4167 190.039 16.5167 190.039 18.55V20.05C190.039 22.05 189.689 24.15 188.989 26.35C188.289 28.5167 187.089 30.5167 185.389 32.35C183.689 34.15 181.389 35.65 178.489 36.85C175.623 38.0167 172.023 38.6 167.689 38.6H165.489C162.589 38.6 160.023 38.3333 157.789 37.8C155.556 37.2333 153.606 36.4833 151.939 35.55C150.306 34.6167 148.923 33.55 147.789 32.35C146.656 31.1167 145.739 29.8167 145.039 28.45C144.373 27.05 143.889 25.6333 143.589 24.2C143.289 22.7667 143.139 21.3833 143.139 20.05V18.55C143.139 17.1833 143.289 15.8 143.589 14.4C143.889 12.9667 144.373 11.5667 145.039 10.2C145.739 8.83333 146.656 7.55 147.789 6.35C148.923 5.11667 150.306 4.05 151.939 3.15C153.606 2.25 155.556 1.53333 157.789 1C160.023 0.466665 162.589 0.199998 165.489 0.199998H167.689ZM179.339 18.95C179.339 17.8167 179.156 16.65 178.789 15.45C178.456 14.2167 177.823 13.1 176.889 12.1C175.956 11.1 174.656 10.2833 172.989 9.65C171.356 9.01667 169.223 8.7 166.589 8.7C163.989 8.7 161.856 9.01667 160.189 9.65C158.556 10.2833 157.256 11.1 156.289 12.1C155.356 13.1 154.706 14.2167 154.339 15.45C154.006 16.65 153.839 17.8167 153.839 18.95V19.65C153.839 20.7833 154.023 21.9667 154.389 23.2C154.756 24.4 155.406 25.5167 156.339 26.55C157.306 27.55 158.606 28.3833 160.239 29.05C161.906 29.7167 164.023 30.05 166.589 30.05C169.189 30.05 171.323 29.7167 172.989 29.05C174.656 28.3833 175.956 27.55 176.889 26.55C177.823 25.5167 178.456 24.4 178.789 23.2C179.156 21.9667 179.339 20.7833 179.339 19.65V18.95ZM226.973 9H210.973C210.973 14.0667 210.839 18.4833 210.573 22.25C210.306 26.0167 209.839 28.9167 209.173 30.95C208.873 31.85 208.489 32.7167 208.023 33.55C207.556 34.3833 206.923 35.1333 206.123 35.8C205.323 36.4667 204.306 37 203.073 37.4C201.839 37.8 200.289 38 198.423 38H194.723V29.25H195.073C196.606 29.25 197.723 28.95 198.423 28.35C199.156 27.75 199.673 27.0667 199.973 26.3C200.139 25.8667 200.289 25.3833 200.423 24.85C200.556 24.3167 200.656 23.65 200.723 22.85C200.823 22.0167 200.906 21.0167 200.973 19.85C201.039 18.65 201.089 17.1833 201.123 15.45C201.156 13.6833 201.173 11.6167 201.173 9.25C201.206 6.85 201.223 4.03333 201.223 0.799999H237.273V38H226.973V9ZM280.5 0.799999V8.9H256.6V14.95H279.75V23.35H256.6V29.8H280.8V38H246.45V0.799999H280.5ZM320.078 23.05H299.328V38H289.028V0.799999H299.328V14.6H320.078V0.799999H330.378V38H320.078V23.05ZM371.615 13L349.865 38H339.565V0.799999H349.865V25.8L371.615 0.799999H381.915V38H371.615V13ZM425.177 0.799999V8.9H401.277V14.95H424.427V23.35H401.277V29.8H425.477V38H391.127V0.799999H425.177Z" fill="white"/>
</svg>
