<svg width="485" height="698" viewBox="0 0 485 698" fill="none" xmlns="http://www.w3.org/2000/svg">
<g clip-path="url(#clip0_110_14435)">
<path d="M0 0H455C471.569 0 485 13.4315 485 30V668C485 684.569 471.569 698 455 698H0V0Z" fill="#1E2028"/>
<path d="M0 0H455C471.569 0 485 13.4315 485 30V668C485 684.569 471.569 698 455 698H0V0Z" fill="url(#paint0_linear_110_14435)" fill-opacity="0.28"/>
<g opacity="0.4">
<mask id="mask0_110_14435" style="mask-type:alpha" maskUnits="userSpaceOnUse" x="-474" y="-1395" width="2227" height="2318">
<ellipse cx="639.296" cy="-235.898" rx="1163.3" ry="1107.28" transform="rotate(108.13 639.296 -235.898)" fill="#D9D9D9"/>
</mask>
<g mask="url(#mask0_110_14435)">
<ellipse cx="804.536" cy="-386.396" rx="1648.44" ry="469.22" transform="rotate(42.4838 804.536 -386.396)" fill="url(#paint1_linear_110_14435)" fill-opacity="0.18"/>
<ellipse cx="284.199" cy="-50.8979" rx="1306.01" ry="467.943" transform="rotate(57.3041 284.199 -50.8979)" fill="url(#paint2_linear_110_14435)" fill-opacity="0.18"/>
<ellipse cx="-231.965" cy="280.421" rx="1020.49" ry="467.943" transform="rotate(72.1507 -231.965 280.421)" fill="url(#paint3_linear_110_14435)" fill-opacity="0.18"/>
<ellipse cx="441.277" cy="890.985" rx="1020.49" ry="467.943" transform="rotate(129.511 441.277 890.985)" fill="url(#paint4_linear_110_14435)" fill-opacity="0.18"/>
</g>
</g>
</g>
<defs>
<linearGradient id="paint0_linear_110_14435" x1="0" y1="349" x2="485" y2="349" gradientUnits="userSpaceOnUse">
<stop stop-color="#CED0D8" stop-opacity="0"/>
<stop offset="1" stop-color="#CED0D8"/>
</linearGradient>
<linearGradient id="paint1_linear_110_14435" x1="804.536" y1="-855.615" x2="804.536" y2="270.664" gradientUnits="userSpaceOnUse">
<stop stop-color="white" stop-opacity="0"/>
<stop offset="1" stop-color="white"/>
</linearGradient>
<linearGradient id="paint2_linear_110_14435" x1="284.199" y1="-518.841" x2="284.199" y2="604.373" gradientUnits="userSpaceOnUse">
<stop stop-color="white" stop-opacity="0"/>
<stop offset="1" stop-color="white"/>
</linearGradient>
<linearGradient id="paint3_linear_110_14435" x1="-231.965" y1="-187.521" x2="-231.965" y2="935.692" gradientUnits="userSpaceOnUse">
<stop stop-color="white" stop-opacity="0"/>
<stop offset="1" stop-color="white"/>
</linearGradient>
<linearGradient id="paint4_linear_110_14435" x1="334.674" y1="762.002" x2="441.277" y2="1546.26" gradientUnits="userSpaceOnUse">
<stop stop-color="white" stop-opacity="0"/>
<stop offset="1" stop-color="white"/>
</linearGradient>
<clipPath id="clip0_110_14435">
<path d="M0 0H455C471.569 0 485 13.4315 485 30V668C485 684.569 471.569 698 455 698H0V0Z" fill="white"/>
</clipPath>
</defs>
</svg>
