<svg width="23" height="21" viewBox="0 0 23 21" fill="none" xmlns="http://www.w3.org/2000/svg">
<path fill-rule="evenodd" clip-rule="evenodd" d="M22.9854 1.82225C22.667 5.51171 21.2881 14.4647 20.5867 18.5971C20.2897 20.3461 19.7049 20.9322 19.1392 20.9896C17.91 21.1144 16.9762 20.0936 15.7851 19.2333C13.9215 17.8871 12.8686 17.0495 11.0596 15.7361C8.96856 14.2177 10.3243 13.3837 11.5153 12.0202C11.8272 11.6629 17.245 6.23265 17.35 5.74048C17.3633 5.6785 17.3757 5.44882 17.2516 5.3276C17.1275 5.20638 16.9447 5.24831 16.8132 5.28112C16.6263 5.3276 13.6486 7.49589 7.88168 11.786C7.03634 12.4258 6.27122 12.7366 5.58469 12.7211C4.82868 12.7029 3.37455 12.2499 2.29347 11.8625C0.96755 11.3877 -0.0862372 11.1361 0.00557628 10.3295C0.0527237 9.90935 0.577963 9.48006 1.58047 9.04076C7.75348 6.07679 11.8694 4.1236 13.929 3.17937C19.8099 0.484365 21.0317 0.0158003 21.8281 0.000306017C22.8259 -0.0191074 23.0666 0.88831 22.9854 1.82225Z" fill="#7E7E7E"/>
</svg>
