<svg width="23" height="19" viewBox="0 0 23 19" fill="none" xmlns="http://www.w3.org/2000/svg">
<path fill-rule="evenodd" clip-rule="evenodd" d="M22.9854 1.6487C22.667 4.98678 21.2881 13.0871 20.5867 16.8259C20.2897 18.4084 19.7049 18.9386 19.1392 18.9906C17.91 19.1035 16.9762 18.18 15.7851 17.4015C13.9215 16.1835 12.8686 15.4257 11.0596 14.2374C8.96856 12.8636 10.3243 12.1091 11.5153 10.8754C11.8272 10.5522 17.245 5.63906 17.35 5.19376C17.3633 5.13769 17.3757 4.92988 17.2516 4.82021C17.1275 4.71053 16.9447 4.74847 16.8132 4.77815C16.6263 4.82021 13.6486 6.78199 7.88168 10.6635C7.03634 11.2424 6.27122 11.5236 5.58469 11.5096C4.82868 11.4931 3.37455 11.0832 2.29347 10.7328C0.96755 10.3031 -0.0862372 10.0755 0.00557628 9.34575C0.0527237 8.9656 0.577963 8.5772 1.58047 8.17973C7.75348 5.49805 11.8694 3.73088 13.929 2.87657C19.8099 0.438235 21.0317 0.0142955 21.8281 0.000276873C22.8259 -0.0172876 23.0666 0.803709 22.9854 1.6487Z" fill="white"/>
</svg>
