<svg width="23" height="15" viewBox="0 0 23 15" fill="none" xmlns="http://www.w3.org/2000/svg">
<path fill-rule="evenodd" clip-rule="evenodd" d="M0 0.0120159C0.183822 9.37953 4.66434 15 12.5225 15H12.9821V9.64362C15.8656 9.94392 18.0485 12.1537 18.9215 15H23C22.5818 13.3827 21.8401 11.8763 20.8242 10.5804C19.8083 9.28459 18.5412 8.22859 17.1064 7.4819C18.3921 6.66351 19.5026 5.57652 20.3684 4.28921C21.2342 3.00191 21.8368 1.54176 22.1384 0H18.439C17.6349 2.97838 15.2453 5.68046 12.9821 5.93266V0.0120159H9.27117V10.3883C6.97353 9.78773 4.07843 6.88148 3.95204 0.0120159H0Z" fill="white"/>
</svg>
